<svg width="817" height="1454" viewBox="0 0 817 1454" fill="none" xmlns="http://www.w3.org/2000/svg">
<path d="M425.35 685.097C427.025 685.29 428.226 686.805 428.032 688.479C427.839 690.154 426.325 691.355 424.65 691.162L425.35 685.097ZM394.194 658.767C395.847 662.349 400.038 668.613 405.763 674.191C411.52 679.8 418.397 684.295 425.35 685.097L424.65 691.162C415.73 690.133 407.65 684.554 401.502 678.564C395.322 672.542 390.661 665.68 388.651 661.326L394.194 658.767Z" fill="black"/>
<path d="M428.075 707.088C429.742 707.336 430.894 708.888 430.647 710.555C430.4 712.223 428.848 713.375 427.18 713.128L428.075 707.088ZM390.644 679.99C392.4 683.319 397.829 689.571 405.045 695.365C412.246 701.147 420.633 705.986 428.075 707.088L427.18 713.128C418.138 711.788 408.722 706.146 401.223 700.125C393.737 694.115 387.567 687.241 385.244 682.838L390.644 679.99Z" fill="black"/>
<path d="M244.543 690.571L244.543 690.571C269.349 740.345 208.243 770.209 192.512 765.854C186.827 764.28 194.932 751.751 199.772 745.322C207.436 737.649 224.215 719.191 230.023 706.748C235.831 694.304 242.123 691.608 244.543 690.571Z" fill="black"/>
<path d="M250.395 689.796L322.561 779.552C337.021 797.537 335.416 823.573 318.856 839.646C300.764 857.206 271.854 856.244 255.197 837.316C227.387 805.713 193.121 766.279 191.787 764.278C189.345 760.615 190.566 754.675 197.281 757.728C217.428 776.043 247.953 727.813 247.953 705.059C247.953 690.293 227.807 705.059 232.08 696.512C235.499 689.674 247.546 689.389 250.395 689.796Z" fill="#F4B810"/>
<path d="M224.189 694.118L236.89 713.169C235.479 735.043 222.072 746.332 209.371 749.86L190.566 730.667C189.956 731.684 186.415 735.307 177.135 741.656C122.8 761.803 87.3914 728.835 72.1289 712.352C56.8663 695.868 65.4134 688.542 72.1289 682.437C64.1924 670.227 72.7394 659.238 81.8969 657.407C87.7577 643.732 98.1769 648.046 102.654 651.912C106.927 658.831 118.527 672.303 130.737 670.838C144.349 667.654 145.57 667.043 155.338 665.212L161.262 663.968C134.4 663.968 130.737 639.702 133.79 628.103C136.141 619.168 142.337 625.661 150.884 635.429C159.431 645.197 163.094 637.26 198.503 645.807C226.83 652.645 227.852 684.756 224.189 694.118Z" fill="#C88954"/>
<mask id="mask0_6_8" style="mask-type:alpha" maskUnits="userSpaceOnUse" x="63" y="623" width="174" height="127">
<path d="M219.249 686.356L236.184 712.463C232.656 739.982 217.133 745.627 208.665 749.155L190.566 730.667C189.955 731.684 186.415 735.307 177.135 741.656C122.8 761.803 87.3913 728.835 72.1287 712.352C56.8662 695.868 65.4132 688.542 72.1287 682.437C64.1922 670.227 72.7392 659.238 81.8967 657.407C87.7576 643.732 98.1768 648.046 102.654 651.912C106.927 658.831 118.527 672.303 130.737 670.838C144.349 667.654 145.57 667.043 155.338 665.212L161.262 663.968C134.4 663.968 130.737 639.702 133.789 628.103C136.141 619.168 142.336 625.661 150.883 635.429C159.43 645.197 163.093 637.26 198.502 645.807C226.83 652.645 222.912 676.995 219.249 686.356Z" fill="#B37340"/>
</mask>
<g mask="url(#mask0_6_8)">
</g>
<path d="M221.701 682.469L231.469 696.511C241.725 686.743 248.766 689.592 251.005 692.237C271.762 718.489 315.108 772.946 322.434 780.76C331.591 790.528 341.97 828.379 310.224 846.084C284.827 860.247 263.418 847.915 255.889 839.979C236.76 818.001 197.037 772.579 191.176 766.718C185.315 760.858 193.618 750.438 198.502 745.961L189.646 735.164C189.013 734.392 187.664 734.642 187.103 735.468C183.486 740.787 170.881 747.365 140.504 747.793C97.1586 748.403 62.9705 706.279 61.7495 696.511C60.7727 688.696 67.8545 685.115 71.5175 684.301C70.093 682.062 67.244 676.853 67.244 673.922C67.7324 661.224 76.4015 658.456 80.675 658.66C80.2681 657.032 81.0414 652.921 87.3906 649.502C95.3271 645.229 97.7691 650.113 111.2 664.154C122.342 675.802 139.492 669.835 156.167 665.023C157.748 664.567 157.525 661.386 155.916 661.042C125.597 654.555 126.828 628.12 133.789 624.472C136.942 622.819 140.907 626.359 148.689 634.141C157.157 642.609 158.819 639.734 194.839 645.839C223.654 650.723 224.753 672.294 221.701 682.469Z" stroke="black" stroke-width="10.5841"/>
<path d="M198.502 687.518C189.752 685.687 164.925 683.245 149.052 703.391" stroke="black" stroke-width="6.10501" stroke-linecap="round"/>
<path d="M474.286 630.667L397.44 595.31C397.44 595.31 240.966 920.105 294.083 930.52C347.2 940.935 409.69 921.146 409.69 921.146L474.286 630.667Z" fill="#F1F0F0"/>
<mask id="mask1_6_8" style="mask-type:alpha" maskUnits="userSpaceOnUse" x="293" y="595" width="182" height="343">
<path d="M474.287 630.661L397.44 595.31L293.969 915.164L409.202 937.372L474.287 630.661Z" fill="#F1F0F0"/>
</mask>
<g mask="url(#mask1_6_8)">
</g>
<path d="M296.262 1227.35C287.926 1164.02 286.54 1026.68 286.889 965.93L296.262 922.187L469.168 930.519C480.278 942.323 503.955 970.096 509.787 986.761C505.621 1003.43 542.074 1177.01 560.821 1261.72C567.07 1267.27 580.818 1279.84 585.817 1285.67C590.816 1291.51 571.236 1322.13 560.821 1336.71C544.504 1337.05 508.537 1337.54 495.206 1336.71C478.542 1335.67 469.168 1324.21 469.168 1311.71L469.168 1285.67C448.338 1207.56 403.137 1050.92 388.972 1049.25C371.267 1047.17 368.142 1221.1 368.142 1240.89C376.474 1246.72 380.64 1273.18 381.682 1285.67L357.727 1324.21C345.918 1321.08 317.093 1314.21 296.262 1311.71C275.432 1309.21 275.085 1277.34 277.516 1261.72L286.889 1261.72C290.013 1257.21 296.262 1244.01 296.262 1227.35Z" fill="#354455"/>
<mask id="mask2_6_8" style="mask-type:alpha" maskUnits="userSpaceOnUse" x="276" y="922" width="311" height="416">
<path d="M296.262 1227.35C287.926 1164.02 286.54 1026.68 286.889 965.93L296.262 922.187L469.168 930.519C480.278 942.323 503.955 970.096 509.787 986.761C505.621 1003.43 542.074 1177.01 560.821 1261.72C567.07 1267.27 580.818 1279.84 585.817 1285.67C590.816 1291.51 571.236 1322.13 560.821 1336.71C544.504 1337.05 508.537 1337.54 495.206 1336.71C478.542 1335.67 469.168 1324.21 469.168 1311.71L469.168 1285.67C448.338 1207.56 403.137 1050.92 388.972 1049.25C371.267 1047.17 368.142 1221.1 368.142 1240.89C376.474 1246.72 380.64 1273.18 381.682 1285.67L357.727 1324.21C345.918 1321.08 317.093 1314.21 296.262 1311.71C275.432 1309.21 275.085 1277.34 277.516 1261.72L286.889 1261.72C290.013 1257.21 296.262 1244.01 296.262 1227.35Z" fill="#2E333D"/>
</mask>
<g mask="url(#mask2_6_8)">
<path d="M549.409 1298.18L471.296 1294.01L471.296 1282.56C487.266 1281.52 522.538 1279.22 535.87 1278.39C549.201 1277.56 558.783 1262.07 561.907 1254.44L576.488 1269.02L549.409 1298.18Z" fill="#516280"/>
<path d="M311.905 1295.06L279.618 1276.31L275.452 1270.06L283.784 1261.73L311.905 1276.31L380.644 1278.39L380.644 1281.52L311.905 1295.06Z" fill="#516280"/>
<path d="M428.569 993.019L454.607 1073.21L501.475 1084.67L518.139 1065.92" stroke="black" stroke-width="8.85902"/>
</g>
<path d="M469.033 608.036C470.198 599.231 470.496 566.056 474.868 551.406L429.104 541.641C424.205 560.173 413.789 600.438 411.321 613.242C403.832 621.094 389.201 631.554 391.438 640.616C427.506 660.183 458.043 627.165 469.033 608.036Z" fill="#CC874D"/>
<mask id="mask3_6_8" style="mask-type:alpha" maskUnits="userSpaceOnUse" x="391" y="539" width="83" height="108">
<path d="M469.032 605.919C470.198 597.114 468.986 563.049 473.359 548.399L422.244 539.375C417.344 557.907 413.758 600.439 411.291 613.243C403.802 621.095 389.171 631.555 391.408 640.618C427.475 660.184 458.042 625.048 469.032 605.919Z" fill="#9A5E2C"/>
</mask>
<g mask="url(#mask3_6_8)">
<path d="M418.29 591.865C430.384 595.259 458.351 579.224 470.823 570.783L473.537 556.699L415.866 556.208C411.635 566.68 406.196 588.472 418.29 591.865Z" fill="black"/>
</g>
<path d="M372.244 984.679C371.909 979.524 368.078 839.91 382.659 795.125C396.637 717.081 441.749 639.993 463.298 613.161C465.36 609.353 471.529 593.828 473.009 586.146" stroke="black" stroke-width="5.92708"/>
<path d="M299.283 982.597C298.948 977.442 326.535 819.47 333.741 782.083C351.358 708.681 392.661 632.537 414.209 605.705L414.221 561.936" stroke="black" stroke-width="5.92708"/>
<path d="M473.901 749.962C471.491 736.299 475.076 722.258 483.742 711.423L522.057 663.514C531.228 652.047 549.635 656.707 552.244 671.158L579.429 821.743C583.986 846.982 566.896 871.032 541.563 875.033C516.935 878.922 493.732 862.365 489.4 837.811L473.901 749.962Z" fill="#F4B810"/>
<path d="M557.166 682.118C533.542 658.494 505.79 678.267 498.286 702.43C490.783 726.593 500.715 807.623 506.619 845.117" stroke="black" stroke-width="10.3355"/>
<path d="M502.657 842.328C513.393 819.698 540.694 810.4 563.011 821.772C583.55 832.238 591.285 857.671 580.051 877.8L507.615 1007.59L452.415 948.225L502.657 842.328Z" fill="#F4B810"/>
<path d="M438.907 980.513L459.737 955.516L505.563 1005.51L438.907 980.513Z" fill="#CC874D"/>
<path d="M414.921 583.698C396.871 582.657 366.31 602.387 357.638 608.694C334.725 625.359 326.501 631.322 322.973 644.022C321.068 650.882 268.416 860.045 254.529 954.475C266.68 963.502 293.722 983.021 300.388 984.687" stroke="black" stroke-width="10.4151"/>
<path d="M471.16 550.433L473.267 586.867C477.78 585.132 483.145 591.807 495.114 602.446C512.072 617.521 528.751 636.403 542.648 654.238C550.716 664.593 555.681 676.964 557.788 689.922L581.196 833.917C584.134 851.989 581.037 870.525 572.384 886.661L508.654 1005.51" stroke="black" stroke-width="10.4151"/>
<path d="M289.962 980.515C291.7 1055.16 293.093 1211.94 297.255 1237.77C297.255 1248.18 291.006 1257.56 286.839 1260.68C282.673 1263.8 273.3 1253.39 277.466 1281.51C280.799 1304.01 288.574 1306.51 292.045 1306.51" stroke="black" stroke-width="10.4151"/>
<path d="M505.143 1003.59C527.385 1074.87 551.185 1221.34 555.51 1247.14C558.843 1257.01 563.874 1257.85 572.711 1265.51C581.547 1273.18 586.755 1281.51 584.672 1286.72C576.225 1307.83 561.922 1333.51 558.634 1334.63" stroke="black" stroke-width="10.4151"/>
<path d="M451.365 945.102L504.482 1004.47" stroke="black" stroke-width="10.3355"/>
<path d="M504.012 826.816C509.918 890.306 451.366 948.227 451.366 948.227" stroke="black" stroke-width="10.3355"/>
<path d="M430.556 982.596L510.752 1010.72" stroke="black" stroke-width="10.4151"/>
<path d="M357.654 1038.84L394.106 1048.21L473.261 1280.47C470.136 1297.13 469.095 1332.13 489.925 1338.79" stroke="black" stroke-width="10.4151"/>
<path d="M385.774 1049.25C378.138 1088.14 367.235 1181.94 372.23 1246.1C381.594 1277.34 388.894 1286.72 372.23 1306.5" stroke="black" stroke-width="10.4151"/>
<path d="M393.077 1049.25L382.662 1013.84" stroke="black" stroke-width="8.85902"/>
<path d="M371.189 925.722L308.698 925.722" stroke="black" stroke-width="5.20754"/>
<path d="M290.981 1308.59L358.679 1324.21L372.219 1303.38" stroke="black" stroke-width="6.24904"/>
<path d="M489.916 1335.67L533.66 1335.67L561.78 1335.67" stroke="black" stroke-width="6.24904"/>
<path d="M437.824 979.472L447.198 968.536L458.654 953.435" stroke="black" stroke-width="6.24904"/>
<path d="M476.397 1280.47L534.721 1280.47C544.095 1277.34 562.009 1268.8 558.676 1259.64" stroke="black" stroke-width="6.24904"/>
<path d="M380.563 1276.3L310.147 1276.3C300.773 1273.18 282.859 1264.64 286.192 1255.47" stroke="black" stroke-width="6.24904"/>
<path d="M505.725 613.681C488.261 588.537 473.468 589.517 471.02 593.03C470.074 597.938 467.024 610.319 462.391 620.581C405.613 678.16 359.741 826.369 371.198 982.596C410.463 990.163 456.602 963.848 492.009 934.686C497.02 901.79 548.9 678.916 548.583 670.223C548.266 661.531 527.554 645.11 505.725 613.681Z" fill="#F4B810"/>
<path d="M359.741 610.777C366.697 593.03 399.738 587.119 413.906 583.653L413.906 617.213C407.847 622.242 393.806 635.383 391.733 646.138C334.617 722.219 307.666 922.188 300.375 982.595C291.847 982.059 276.42 965.931 255.59 952.392C266.005 887.741 314.139 648.285 321.562 638.377C325.643 632.929 330.456 628.372 359.741 610.777Z" fill="#F4B810"/>
<path d="M608.435 366.231C599.264 352.294 583.028 356.353 576.295 361.034C573.661 386.208 567.717 443.987 565.012 473.716C632.376 455.06 620.335 384.317 608.435 366.231Z" fill="#CC874D" stroke="#391F06" stroke-width="9.46058"/>
<mask id="mask4_6_8" style="mask-type:alpha" maskUnits="userSpaceOnUse" x="559" y="351" width="64" height="130">
<path d="M608.435 366.231C599.264 352.294 583.028 356.353 576.295 361.034C573.661 386.208 567.717 443.987 565.012 473.716C632.376 455.06 620.335 384.317 608.435 366.231Z" fill="#C88954" stroke="#391F06" stroke-width="9.46058"/>
</mask>
<g mask="url(#mask4_6_8)">
</g>
<path d="M608.411 366.231C599.241 352.294 583.004 356.353 576.272 361.034C573.638 386.208 567.693 443.987 564.989 473.716C632.353 455.06 620.311 384.317 608.411 366.231Z" stroke="black" stroke-width="9.46058"/>
<path d="M604.166 412.851C603.918 414.465 602.408 415.572 600.794 415.323C599.18 415.074 598.074 413.564 598.323 411.95L604.166 412.851ZM598.323 411.95C598.646 409.856 598.814 406.796 598.533 403.57C598.25 400.324 597.53 397.121 596.224 394.61C594.943 392.147 593.203 390.517 590.834 389.895C588.384 389.252 584.684 389.535 579.217 392.183L576.64 386.861C582.801 383.877 588.01 383.04 592.336 384.176C596.744 385.333 599.649 388.38 601.469 391.882C603.265 395.334 604.103 399.381 604.423 403.057C604.745 406.754 604.562 410.289 604.166 412.851L598.323 411.95Z" fill="black"/>
<path d="M229.127 380.034C237.26 365.468 253.749 368.336 260.804 372.516C265.26 397.431 275.389 454.626 280.247 484.079C211.705 470.369 218.573 398.937 229.127 380.034Z" fill="#CC874D" stroke="#391F06" stroke-width="9.46058"/>
<mask id="mask5_6_8" style="mask-type:alpha" maskUnits="userSpaceOnUse" x="217" y="364" width="70" height="127">
<path d="M229.127 380.034C237.26 365.468 253.749 368.336 260.804 372.516C265.26 397.431 275.389 454.626 280.247 484.079C211.705 470.369 218.573 398.937 229.127 380.034Z" fill="#C88954" stroke="#391F06" stroke-width="9.46058"/>
</mask>
<g mask="url(#mask5_6_8)">
</g>
<path d="M229.055 380.037C237.188 365.471 253.677 368.338 260.732 372.518C265.189 397.434 275.317 454.628 280.175 484.082C211.633 470.372 218.501 398.94 229.055 380.037Z" stroke="black" stroke-width="9.46058"/>
<path d="M234.918 426.286C235.284 427.877 236.87 428.871 238.462 428.505C240.053 428.14 241.047 426.554 240.681 424.962L234.918 426.286ZM240.681 424.962C240.207 422.897 239.817 419.857 239.863 416.62C239.909 413.361 240.394 410.115 241.514 407.515C242.613 404.966 244.23 403.213 246.547 402.421C248.944 401.601 252.654 401.615 258.3 403.858L260.483 398.363C254.121 395.835 248.865 395.379 244.634 396.826C240.321 398.301 237.646 401.551 236.084 405.176C234.545 408.749 234.003 412.847 233.95 416.536C233.898 420.247 234.338 423.759 234.918 426.286L240.681 424.962Z" fill="black"/>
<path d="M572.519 218.344L572.887 219.247L572.911 220.222L567.591 220.354C572.911 220.222 572.911 220.223 572.911 220.224L572.911 220.232L572.912 220.26L572.915 220.372L572.925 220.813C572.934 221.201 572.948 221.777 572.965 222.529C572.999 224.033 573.047 226.243 573.103 229.068C573.216 234.718 573.363 242.83 573.5 252.685C573.773 272.392 574.004 299.08 573.835 326.989C573.665 354.887 573.096 384.057 571.764 408.711C570.447 433.083 568.358 453.815 564.899 464.303C558.114 484.874 539.966 510.682 514.093 531.667C488.133 552.723 453.922 569.312 414.706 570.739L414.631 570.742L414.556 570.743C361.69 571.176 327.611 549.617 305.503 523.671C283.659 498.035 273.651 468.286 268.264 452.273L268.21 452.114C267.925 451.267 267.771 450.435 267.715 449.599L253.43 235.125C249.89 214.367 255.436 198.05 266.737 185.582C277.863 173.308 294.228 165.125 311.752 159.537C345.477 148.784 385.74 146.987 407.925 145.997C408.79 145.958 409.627 145.921 410.436 145.884L410.483 145.882L410.53 145.881C432.69 145.272 466.532 147.822 498.044 158.11C529.445 168.361 559.605 186.673 572.519 218.344Z" fill="#CC874D" stroke="#391F06" stroke-width="10.6432"/>
<path d="M515.359 247.386L558.217 303.219L554.282 195.085L440.206 182.078L251.401 261.725L253.53 320.224L407.322 237.709L515.359 247.386Z" fill="#9A5E2C"/>
<path d="M434.072 550.787C511.532 546.186 554.349 463.241 566.075 422.343C594.827 497.04 472.678 571.102 391.604 570.711C310.53 570.32 275.59 471.9 275.145 459.663C296.324 505.118 337.246 556.538 434.072 550.787Z" fill="#9A5E2C"/>
<mask id="mask6_6_8" style="mask-type:alpha" maskUnits="userSpaceOnUse" x="247" y="140" width="333" height="437">
<path d="M572.519 218.344L572.887 219.247L572.911 220.222L567.591 220.354C572.911 220.222 572.911 220.223 572.911 220.224L572.911 220.232L572.912 220.26L572.915 220.372L572.925 220.813C572.934 221.201 572.948 221.777 572.965 222.529C572.999 224.033 573.047 226.243 573.103 229.068C573.216 234.718 573.363 242.83 573.5 252.685C573.773 272.392 574.004 299.08 573.835 326.989C573.665 354.887 573.096 384.057 571.764 408.711C570.447 433.083 568.358 453.815 564.899 464.303C558.114 484.874 539.966 510.682 514.093 531.667C488.133 552.723 453.922 569.312 414.706 570.739L414.631 570.742L414.556 570.743C308.489 571.611 272.683 485.068 261.754 452.84C261.429 451.884 261.273 450.946 261.239 450.014L253.416 235.045C249.904 214.324 255.451 198.033 266.737 185.582C277.863 173.308 294.228 165.125 311.752 159.537C345.477 148.784 385.74 146.987 407.925 145.997C408.79 145.958 409.627 145.921 410.436 145.884L410.483 145.882L410.53 145.881C432.69 145.272 466.532 147.822 498.044 158.11C529.445 168.361 559.605 186.673 572.519 218.344Z" fill="#C88954" stroke="#391F06" stroke-width="10.6432"/>
</mask>
<g mask="url(#mask6_6_8)">
<path d="M538.435 216.648C554.357 263.965 559.556 293.031 564.656 319.359L568.562 345.393L592.67 162.398L261.769 174.439L259.405 272.066C259.989 288.119 284.897 257.182 294.107 250.12C317.895 253.459 377.674 221.471 397.276 207.304C417.855 220.009 511.254 217.637 538.435 216.648Z" fill="#9A5E2C"/>
<path d="M572.519 218.344L572.887 219.247L572.911 220.222L567.591 220.354C572.911 220.222 572.911 220.223 572.911 220.224L572.911 220.232L572.912 220.26L572.915 220.372L572.925 220.813C572.934 221.201 572.948 221.777 572.965 222.529C572.999 224.033 573.047 226.243 573.103 229.068C573.216 234.718 573.363 242.83 573.5 252.685C573.773 272.392 574.004 299.08 573.835 326.989C573.665 354.887 573.096 384.057 571.764 408.711C570.447 433.083 568.358 453.815 564.899 464.303C558.114 484.874 539.966 510.682 514.093 531.667C488.133 552.723 453.922 569.312 414.706 570.739L414.631 570.742L414.556 570.743C361.601 571.176 326.745 547.42 304.317 520.538C282.027 493.822 271.995 464.031 268.157 451.983C267.897 451.167 267.768 450.4 267.718 449.641L253.43 235.125C249.89 214.367 255.436 198.05 266.737 185.582C277.863 173.308 294.228 165.125 311.752 159.537C345.477 148.784 385.74 146.987 407.925 145.997C408.79 145.958 409.627 145.921 410.436 145.884L410.483 145.882L410.53 145.881C432.69 145.272 466.532 147.822 498.044 158.11C529.445 168.361 559.605 186.673 572.519 218.344Z" stroke="black" stroke-width="10.6432"/>
</g>
<g clip-path="url(#clip0_6_8)">
<path d="M485.367 483.139C493.088 459.073 482.462 453.442 476.184 453.635C419.587 473.579 392.211 473.92 380.131 476.894C368.051 479.868 371.145 488.784 384.329 502.396C435.961 540.257 475.715 513.221 485.367 483.139Z" fill="black"/>
<mask id="mask7_6_8" style="mask-type:alpha" maskUnits="userSpaceOnUse" x="372" y="453" width="117" height="69">
<path d="M485.369 482.518C493.135 458.969 482.404 453.448 476.068 453.632C418.964 473.105 391.333 473.414 379.143 476.315C366.954 479.216 372.396 490.767 385.718 504.101C437.875 541.204 475.661 511.954 485.369 482.518Z" fill="black"/>
</mask>
<g mask="url(#mask7_6_8)">
<path d="M372.452 485.369C415.773 496.602 467.041 474.082 487.26 461.418L484.479 443.065C448.471 452.156 375.396 470.935 371.166 473.324C365.878 476.309 368.638 479.519 372.452 485.369Z" fill="#FBFAFB"/>
<path d="M421.633 509.37C441.563 493.074 467.255 499.66 477.609 504.99C474.011 515.26 444.886 523.882 430.774 526.909C419.423 527.853 401.703 525.667 421.633 509.37Z" fill="#B35A4E"/>
</g>
<path d="M485.383 482.766C493.157 459.013 482.428 453.448 476.091 453.634C418.981 473.288 391.35 473.607 379.159 476.535C373.529 477.888 371.665 491.949 383.417 501.713C420.244 543.264 475.666 512.456 485.383 482.766Z" stroke="black" stroke-width="5.91286"/>
<path d="M497.718 264.41C529.449 274.497 533.76 290.118 533.871 298.595C534.527 303.304 462.136 294.697 456.184 293.73C450.232 292.763 442.582 277.658 445.784 268.075C448.985 258.491 462.578 253.238 497.718 264.41Z" fill="black"/>
<mask id="mask8_6_8" style="mask-type:alpha" maskUnits="userSpaceOnUse" x="445" y="258" width="89" height="42">
<path d="M497.718 264.41C529.449 274.497 533.76 290.118 533.871 298.595C534.527 303.304 462.136 294.697 456.184 293.73C450.232 292.763 442.582 277.658 445.784 268.075C448.985 258.491 462.578 253.238 497.718 264.41Z" fill="black"/>
</mask>
<g mask="url(#mask8_6_8)">
</g>
<path d="M325.935 270.659C295.021 283.027 291.857 298.919 292.362 307.382C292.051 312.126 363.624 298.28 369.49 296.883C375.356 295.486 381.888 279.865 377.999 270.54C374.109 261.214 360.171 256.963 325.935 270.659Z" fill="black"/>
<mask id="mask9_6_8" style="mask-type:alpha" maskUnits="userSpaceOnUse" x="292" y="261" width="88" height="48">
<path d="M325.935 270.659C295.021 283.027 291.857 298.919 292.362 307.382C292.051 312.126 363.624 298.28 369.49 296.883C375.356 295.486 381.888 279.865 377.999 270.54C374.109 261.214 360.171 256.963 325.935 270.659Z" fill="black"/>
</mask>
<g mask="url(#mask9_6_8)">
</g>
<path d="M483.327 326.277C511.026 328.358 520.049 343.798 521.893 358.214C523.05 367.258 518.651 376.851 509.592 377.884C500.067 378.971 488.028 376.478 480.37 376.478C467.058 376.478 455.349 381.724 444.934 376.478C434.518 371.233 436.881 322.79 483.327 326.277Z" fill="#FBFAFB"/>
<circle cx="19.4275" cy="19.4275" r="19.4275" transform="matrix(-0.997878 0.0651028 0.0651028 0.997878 475.424 334.974)" fill="black"/>
<circle cx="451.548" cy="348.025" r="4.85126" fill="#FBFAFB"/>
<path d="M343.078 330.706C371.315 334.231 379.254 349.117 380.488 363.153C381.258 371.909 376.987 380.859 368.294 382.156C359.964 383.399 349.394 382.369 341.579 382.369C327.86 382.369 315.091 387.615 304.675 382.369C294.26 377.123 296.86 324.937 343.078 330.706Z" fill="#FBFAFB"/>
<circle cx="19.4275" cy="19.4275" r="19.4275" transform="matrix(-0.997878 0.0651028 0.0651028 0.997878 336.64 340.88)" fill="black"/>
<circle cx="312.764" cy="353.932" r="4.85126" fill="#FBFAFB"/>
<path d="M381.047 421.497C388.851 427.839 412.948 430.986 424.021 431.766C444.959 434.797 404.833 457.315 395.755 451.729C386.573 437.863 373.243 415.154 381.047 421.497Z" fill="#935724"/>
<path d="M407.805 343.014C408.526 368.233 408.99 406.408 398.203 409.167C384.72 412.616 375.481 418.869 382.476 432.223C388.071 442.906 395.1 448.528 397.914 450.003" stroke="black" stroke-width="5.91286" stroke-linecap="round"/>
<path d="M300.257 377.956C294.353 354.332 306.149 335.137 332.726 330.708C360.532 326.073 385.88 346.95 378.497 377.956" stroke="black" stroke-width="5.90601" stroke-linecap="round"/>
<path d="M521.713 372.839C527.616 349.215 515.82 332.182 489.244 327.753C461.438 323.119 434.613 335.136 440.519 376.478" stroke="black" stroke-width="5.90601" stroke-linecap="round"/>
<path d="M497.972 272.684C529.703 282.772 534.014 298.393 534.125 306.869C534.781 311.579 462.39 302.972 456.438 302.005C450.486 301.038 442.836 285.933 446.038 276.349C449.239 266.766 462.832 261.513 497.972 272.684Z" fill="#9A5E2C"/>
<path d="M497.718 264.412C529.449 274.5 533.76 290.121 533.871 298.597C534.527 303.307 462.136 294.699 456.184 293.733C450.232 292.766 442.582 277.661 445.784 268.077C448.985 258.494 462.578 253.241 497.718 264.412Z" fill="black"/>
<mask id="mask10_6_8" style="mask-type:alpha" maskUnits="userSpaceOnUse" x="445" y="258" width="89" height="42">
<path d="M497.718 264.412C529.449 274.5 533.76 290.121 533.871 298.597C534.527 303.307 462.136 294.699 456.184 293.733C450.232 292.766 442.582 277.661 445.784 268.077C448.985 258.494 462.578 253.241 497.718 264.412Z" fill="black"/>
</mask>
<g mask="url(#mask10_6_8)">
<path d="M440.493 281.934L539.054 291.364L537.635 252.365L460.045 233.888L440.493 281.934Z" fill="#272B2B"/>
</g>
<path d="M326.282 278.933C295.369 291.3 292.205 307.193 292.71 315.655C292.398 320.4 363.972 306.553 369.838 305.156C375.704 303.76 382.235 288.138 378.346 278.813C374.457 269.488 360.518 265.236 326.282 278.933Z" fill="#9A5E2C"/>
<path d="M325.935 270.66C295.021 283.028 291.857 298.92 292.362 307.383C292.051 312.127 363.624 298.281 369.49 296.884C375.356 295.487 381.888 279.866 377.999 270.541C374.109 261.215 360.171 256.964 325.935 270.66Z" fill="black"/>
<mask id="mask11_6_8" style="mask-type:alpha" maskUnits="userSpaceOnUse" x="292" y="261" width="88" height="48">
<path d="M325.935 270.66C295.021 283.028 291.857 298.92 292.362 307.383C292.051 312.127 363.624 298.281 369.49 296.884C375.356 295.487 381.888 279.866 377.999 270.541C374.109 261.215 360.171 256.964 325.935 270.66Z" fill="black"/>
</mask>
<g mask="url(#mask11_6_8)">
<path d="M384.234 283.976L286.618 300.545L285.199 261.546L361.241 237.479L384.234 283.976Z" fill="#272B2B"/>
</g>
</g>
<path d="M540.669 33.7633L537.28 29.8615L545.084 23.0845L548.472 26.9862L540.669 33.7633ZM562.513 104.903C565.788 94.3673 566.875 63.939 540.669 33.7633L548.472 26.9862C577.08 59.9275 576.696 94.0976 572.383 107.971L562.513 104.903Z" fill="black"/>
<path d="M189.657 134.084C246.608 121.953 191.642 42.3016 285.401 33.5638C406.438 42.7686 401.425 2.5686 457.275 8.96827C518.557 15.9903 562.277 72.6814 567.751 106.445C621.512 87.9218 675.692 129.734 655.947 172.462C642.796 200.919 656.087 219.817 663.781 225.852C661.742 229.72 649.756 241.199 640.022 239.032C646.444 255.989 637.555 260.497 633.438 272.146C630.006 281.853 627.26 286.45 625.19 291.734C616.908 312.87 616.908 312.87 614.784 320.649C606.541 340.033 604.416 347.812 601.622 354.309C606.821 354.12 596.635 364.137 598.128 367.239L588.827 376.667L574.066 426.313C574.685 394.537 575.798 327.558 575.299 313.85C542.458 308.891 533.319 265.874 531.635 252.129C532.857 258.593 530.823 229.793 531.098 237.356C492.915 228.688 455.624 228.269 424.178 225.864C423.974 236.522 393.796 268.979 363.059 286.073C373.201 272.095 381.72 262.318 381.548 257.591C370.15 285.814 312.139 301.337 289.338 308.872C290.347 304.102 292.816 290.64 294.612 274.955C290.074 280.327 267.982 291.11 257.504 295.831L261.439 403.964C260.58 402.023 253.237 396.452 249.653 389.009C246.069 381.566 243.006 368.936 242.013 357.928L231.968 358.293L231.732 351.794L230.625 337.634C232.867 334.199 212.341 319.721 221.976 311.324C194.592 313.267 174.961 298.44 169.837 293.104C173.428 288.831 182.447 278.681 189.787 272.261C157.951 255.906 130.343 189.691 130.042 170.571L158.405 169.539C151.339 157.489 154.357 134.186 156.749 124.04C161.226 127.822 177.968 138.059 189.657 134.084Z" fill="#232727"/>
<mask id="mask12_6_8" style="mask-type:alpha" maskUnits="userSpaceOnUse" x="594" y="4" width="79" height="59">
<path d="M603.529 22.4516C611.833 20.6826 603.818 9.06792 617.49 7.79377C635.14 9.13602 634.396 3.84432 642.54 4.77752C651.476 5.80146 655.645 10.5974 656.443 15.5208C664.282 12.8197 672.183 18.9168 669.303 25.1473C667.386 29.2969 671.554 32.4566 672.767 32.6137C672.778 32.901 669.365 33.9454 665.456 33.2249C668.997 35.6844 669.106 38.7002 669.612 40.7524C667.944 39.9504 665.097 39.9676 664.27 40.9468C662.478 43.8592 667.582 46.607 668.721 47.0832C667.156 49.1245 664.615 50.4249 661.382 51.6641C662.14 51.6366 663.495 53.6292 663.713 54.0814L659.516 54.9244L657.364 62.1638C657.454 57.5302 657.616 47.7634 657.543 45.7644C652.755 45.0414 651.422 38.7686 651.176 36.7644C651.355 37.7069 651.058 33.5073 651.098 34.6102C645.53 33.3462 640.092 33.2851 635.507 32.9344C635.477 34.4885 631.077 39.2214 626.595 41.714C628.074 39.6758 629.316 38.2501 629.291 37.5608C627.629 41.6763 619.17 43.9398 615.845 45.0386C615.992 44.343 616.352 42.3801 616.614 40.0928C615.952 40.8761 612.731 42.4486 611.203 43.1369L611.777 58.9049C611.651 58.6218 610.581 57.8095 610.058 56.7242C609.535 55.6388 609.089 53.7971 608.944 52.1919L607.479 52.2452L607.445 51.2974L607.283 49.2326C607.61 48.7318 604.617 46.6206 606.022 45.3961C602.029 45.6794 599.166 43.5174 598.419 42.7393C598.943 42.1163 600.258 40.6362 601.328 39.7C596.686 37.3151 594.88 30.5602 594.836 27.7721L598.972 27.6216C597.941 25.8645 598.381 22.4664 598.73 20.987C599.383 21.5384 601.824 23.0313 603.529 22.4516Z" fill="#272B2B"/>
</mask>
<g mask="url(#mask12_6_8)">
</g>
<path d="M658.845 139.817C628.745 93.1045 584.047 100.529 565.461 110.081C569.006 77.4097 524.872 30.7693 493.017 17.1366C461.162 3.50384 427.525 5.91128 389.74 24.4449C359.512 39.2718 309.11 36.2542 287.687 32.892C269.735 32.7564 231.823 42.38 223.797 81.9595C213.763 131.434 210.25 116.178 210.529 123.86C186.658 141.376 171.652 134.354 163.363 129.143C160.447 127.31 156.905 128.543 156.145 131.903C152.571 147.681 156.681 163.143 159.531 169.5L136.109 170.352C132.764 170.474 130.175 173.354 130.627 176.671C137.236 225.145 178.595 267.345 190.301 271.652L173.485 288.31C170.915 290.856 171.218 295.093 174.168 297.187C175.803 298.346 177.497 299.524 178.924 300.467C233.167 321.213 280.153 280.216 296.995 260.67C295.262 266.943 292.361 285.8 291.722 300.417C291.543 304.497 295.648 307.192 299.407 305.597C347.004 285.407 375.617 261.846 384.253 252.169C381.886 257.58 376.171 270.687 372.243 279.823C414.701 249.878 420.942 236.042 427.603 223.966C454.082 225.369 507.608 230.758 530.978 235.588C531.624 292.365 559.167 311.086 572.858 313.349L583.474 377.455C586.172 374.81 587.475 374.838 594.204 365.203C596.223 362.312 597.906 359.414 600.384 354.356C606.443 341.992 608.482 338.124 620.848 309.047C623.618 302.533 626.222 297.215 631.131 285.795C636.041 274.374 643.37 262.584 643.581 252.808C643.708 246.942 641.795 244.944 640.008 237.081C646.615 234.602 652.193 231.756 657.059 228.655C660.466 226.483 660.227 221.578 657.537 218.563C648.042 207.926 647.76 192.26 653.005 178.675C661.116 157.671 662.907 153.869 658.845 139.817Z" stroke="black" stroke-width="10.3355"/>
<path d="M224.949 305.608C222.488 306.1 213.155 311.514 220.524 321.849C227.898 332.191 233.805 351.379 230.852 360.238C236.758 360.238 242.664 356.793 242.664 355.809C241.679 366.636 244.435 391.54 263.335 404.533" stroke="black" stroke-width="10.3355"/>
<path d="M438.106 1375.55C451.281 1367.66 466.955 1348.52 473.146 1339.93L564.866 1344.38L567.646 1407.96L567.646 1424.47C553.163 1429.98 517.751 1442.03 491.969 1446.11C413.083 1451.62 399.104 1437.61 394.05 1432.04C392.848 1420.26 395.539 1416.57 397.035 1416.19C397.167 1414.53 397.488 1412.76 397.748 1410.9C399.787 1396.34 421.637 1385.41 438.106 1375.55Z" fill="#333333"/>
<path d="M567.646 1407.96C556.31 1412.74 528.8 1423.98 501.909 1429.07C455.13 1435.49 396.134 1427.6 397.035 1416.19M567.646 1407.96L564.866 1344.38L473.146 1339.93C466.955 1348.52 451.281 1367.66 438.106 1375.55C421.637 1385.41 399.787 1396.34 397.748 1410.9C397.488 1412.76 397.167 1414.53 397.035 1416.19M567.646 1407.96L567.646 1424.47C553.163 1429.98 517.751 1442.03 491.969 1446.11C413.083 1451.62 399.104 1437.61 394.05 1432.04C392.848 1420.26 395.539 1416.57 397.035 1416.19" stroke="#090909" stroke-width="11.7276"/>
<path d="M436.732 1376.81C442.285 1372.19 457.025 1365 471.554 1373.17C489.714 1383.37 502.018 1402.1 527.461 1399.75M565.386 1361.73C555.465 1364.8 534.328 1375.68 529.145 1394.61C523.963 1413.55 507.664 1429.21 500.781 1433.76" stroke="black" stroke-width="2.66191"/>
<path d="M470.3 1371.61L471.473 1370.24M471.473 1370.24L491.41 1346.98L479.682 1344.63L484.373 1352.84L472.646 1354.01L477.337 1361.05L465.609 1362.22L471.473 1370.24Z" stroke="black" stroke-width="2.34552"/>
<path d="M240.106 1352.55C253.281 1344.66 268.955 1325.52 275.146 1316.93L366.866 1321.38L369.646 1384.96L369.646 1401.47C355.163 1406.98 319.751 1419.03 293.969 1423.11C215.083 1428.62 201.104 1414.61 196.05 1409.04C194.848 1397.26 197.539 1393.57 199.035 1393.19C199.167 1391.53 199.488 1389.76 199.748 1387.9C201.787 1373.34 223.637 1362.41 240.106 1352.55Z" fill="#333333"/>
<path d="M369.646 1384.96C358.31 1389.74 330.8 1400.98 303.909 1406.07C257.13 1412.49 198.134 1404.6 199.035 1393.19M369.646 1384.96L366.866 1321.38L275.146 1316.93C268.955 1325.52 253.281 1344.66 240.106 1352.55C223.637 1362.41 201.787 1373.34 199.748 1387.9C199.488 1389.76 199.167 1391.53 199.035 1393.19M369.646 1384.96L369.646 1401.47C355.163 1406.98 319.751 1419.03 293.969 1423.11C215.083 1428.62 201.104 1414.61 196.05 1409.04C194.848 1397.26 197.539 1393.57 199.035 1393.19" stroke="#090909" stroke-width="11.7276"/>
<path d="M238.732 1353.81C244.285 1349.19 259.025 1342 273.554 1350.17C291.714 1360.37 304.018 1379.1 329.461 1376.75M367.386 1338.73C357.465 1341.8 336.328 1352.68 331.145 1371.61C325.963 1390.55 309.664 1406.21 302.781 1410.76" stroke="black" stroke-width="2.66191"/>
<path d="M272.3 1348.61L273.473 1347.24M273.473 1347.24L293.41 1323.98L281.682 1321.63L286.373 1329.84L274.646 1331.01L279.337 1338.05L267.609 1339.22L273.473 1347.24Z" stroke="black" stroke-width="2.34552"/>
<defs>
<clipPath id="clip0_6_8">
<rect width="241.612" height="266.095" fill="white" transform="matrix(-0.999338 0.036366 0.036366 0.999338 532.225 255.645)"/>
</clipPath>
</defs>
</svg>
