<svg width="433" height="990" viewBox="0 0 433 990" fill="none" xmlns="http://www.w3.org/2000/svg">
<g clip-path="url(#clip0_8_66)">
<g clip-path="url(#clip1_8_66)">
<path fill-rule="evenodd" clip-rule="evenodd" d="M228.389 515.805L274.058 459.005C275.861 458.747 283.485 458.928 285.648 463.255C286.553 465.064 285.729 465.222 284.231 464.982C285.128 466.246 286.046 467.804 286.947 469.733C290.622 477.608 301.24 489.288 306.09 494.144C307.607 496.16 309.632 499.123 310.851 501.721C311.729 502.21 312.021 503.319 311.822 504.456C312.087 505.815 311.822 506.823 310.685 507.137C310.549 507.175 310.408 507.208 310.263 507.238C305.916 512.452 286.821 534.403 271.019 552.36C260.478 564.338 242.183 564.947 230.734 553.835C220.254 543.663 219.238 527.187 228.389 515.805Z" fill="#B37340"/>
<path d="M274.058 459.005L273.174 452.816L270.732 453.165L269.186 455.088L274.058 459.005ZM228.389 515.805L233.261 519.722L228.389 515.805ZM285.648 463.255L280.057 466.05V466.05L285.648 463.255ZM284.231 464.982L285.222 458.81L270.514 456.449L279.132 468.599L284.231 464.982ZM286.947 469.733L281.282 472.377V472.377L286.947 469.733ZM306.09 494.144L311.084 490.384L310.822 490.036L310.513 489.727L306.09 494.144ZM310.851 501.721L305.192 504.377L306.049 506.201L307.809 507.182L310.851 501.721ZM311.822 504.456L305.664 503.378L305.464 504.519L305.686 505.655L311.822 504.456ZM310.685 507.137L309.017 501.113L309.016 501.113L310.685 507.137ZM310.263 507.238L309.023 501.111L306.869 501.546L305.461 503.235L310.263 507.238ZM271.019 552.36L266.326 548.23H266.326L271.019 552.36ZM230.734 553.835L226.38 558.32V558.32L230.734 553.835ZM269.186 455.088L223.517 511.888L233.261 519.722L278.93 462.922L269.186 455.088ZM291.24 460.459C288.86 455.699 284.002 453.983 281.122 453.319C278.019 452.603 274.886 452.572 273.174 452.816L274.942 465.193C274.868 465.204 275.257 465.159 276.024 465.196C276.732 465.23 277.543 465.325 278.313 465.502C279.106 465.685 279.661 465.911 279.988 466.105C280.294 466.287 280.185 466.308 280.057 466.05L291.24 460.459ZM283.241 471.154C283.733 471.233 284.54 471.346 285.425 471.316C286.142 471.291 288.101 471.155 289.866 469.669C292.06 467.823 292.401 465.311 292.239 463.7C292.1 462.308 291.587 461.154 291.24 460.459L280.057 466.05C280.162 466.26 279.885 465.804 279.799 464.943C279.691 463.863 279.901 461.715 281.815 460.104C283.3 458.854 284.829 458.826 284.998 458.82C285.336 458.809 285.479 458.851 285.222 458.81L283.241 471.154ZM292.611 467.089C291.568 464.853 290.465 462.964 289.33 461.365L279.132 468.599C279.791 469.527 280.525 470.756 281.282 472.377L292.611 467.089ZM310.513 489.727C308.213 487.423 304.482 483.436 300.901 479.094C297.229 474.64 294.093 470.263 292.611 467.089L281.282 472.377C283.476 477.077 287.487 482.478 291.255 487.048C295.115 491.729 299.118 496.009 301.667 498.562L310.513 489.727ZM316.51 499.064C315.017 495.882 312.688 492.514 311.084 490.384L301.096 497.904C302.527 499.805 304.247 502.363 305.192 504.377L316.51 499.064ZM317.979 505.535C318.393 503.174 318.131 498.62 313.894 496.259L307.809 507.182C306.646 506.534 306.044 505.537 305.8 504.794C305.577 504.113 305.623 503.609 305.664 503.378L317.979 505.535ZM312.353 513.162C314.71 512.509 316.694 510.853 317.622 508.41C318.394 506.38 318.189 504.446 317.957 503.257L305.686 505.655C305.719 505.825 305.515 505.075 305.936 503.967C306.175 503.338 306.593 502.665 307.235 502.096C307.868 501.536 308.523 501.249 309.017 501.113L312.353 513.162ZM311.502 513.365C311.783 513.308 312.067 513.241 312.353 513.162L309.016 501.113C309.032 501.108 309.034 501.108 309.023 501.111L311.502 513.365ZM275.712 556.49C291.497 538.552 310.653 516.532 315.064 511.241L305.461 503.235C301.179 508.371 282.144 530.254 266.326 548.23L275.712 556.49ZM226.38 558.32C240.36 571.889 262.781 571.184 275.712 556.49L266.326 548.23C258.175 557.492 244.006 558.005 235.088 549.349L226.38 558.32ZM223.517 511.888C212.344 525.784 213.585 545.902 226.38 558.32L235.088 549.349C226.924 541.425 226.132 528.589 233.261 519.722L223.517 511.888Z" fill="black"/>
<path d="M277.76 459.496L277.76 459.495C262.063 490.994 300.732 509.893 310.687 507.137C314.285 506.141 309.156 498.212 306.093 494.144C301.243 489.288 290.625 477.607 286.949 469.732C283.274 461.858 279.292 460.152 277.76 459.496Z" fill="black"/>
<path d="M274.057 459.004L228.388 515.805C219.237 527.186 220.253 543.663 230.732 553.834C242.182 564.947 260.477 564.337 271.018 552.359C288.617 532.36 310.301 507.405 311.146 506.138C312.691 503.82 311.919 500.062 307.669 501.993C294.919 513.584 275.602 483.062 275.602 468.663C275.602 459.319 288.351 468.663 285.647 463.254C283.484 458.927 275.86 458.747 274.057 459.004Z" fill="#202A35"/>
<path d="M319.881 413.027C320.038 411.206 320.101 409.276 320.027 407.299C319.801 401.223 318.266 394.353 313.79 388.845C311.21 385.67 308.697 383.597 306.231 382.758C304.951 382.322 303.612 382.197 302.312 382.518C300.999 382.842 299.938 383.57 299.158 384.487C297.664 386.245 297.232 388.614 297.408 390.663C297.588 392.768 298.445 395.043 300.171 396.769C300.632 397.23 301.268 398.404 301.656 400.562C302.026 402.624 302.103 405.221 301.8 408.078C301.19 413.826 299.1 420.149 295.432 424.816C293.427 427.369 292.085 430.743 291.159 434.286C290.223 437.87 289.655 441.861 289.332 445.829C288.749 453.013 288.953 460.36 289.368 465.555C289.278 465.648 289.186 465.746 289.089 465.849C288.34 466.649 287.277 467.855 285.768 469.648C283.194 472.705 283.778 476.569 284.89 479.528C286.044 482.6 288.131 485.763 290.244 488.505C292.386 491.286 294.7 493.819 296.463 495.645C297.348 496.562 298.103 497.309 298.639 497.829C298.908 498.089 299.122 498.293 299.271 498.434C299.297 498.459 299.322 498.482 299.344 498.504C299.385 498.541 299.418 498.573 299.444 498.597L299.492 498.642L299.505 498.654L299.509 498.658L299.511 498.659C299.511 498.66 299.512 498.66 301.633 496.364L299.512 498.66L301.099 500.126L303.031 499.16C303.476 498.938 303.845 498.649 304.072 498.463C304.33 498.249 304.587 498.013 304.821 497.788C305.247 497.378 305.712 496.897 306.118 496.476L306.226 496.365C306.571 496.007 306.864 495.706 307.107 495.468C315.692 494.967 321.807 493.577 325.803 491.348C327.916 490.169 329.573 488.68 330.61 486.833C330.88 486.351 331.1 485.859 331.273 485.362C331.972 485.313 332.654 485.171 333.288 484.971C335.389 484.308 337.497 482.902 339.427 481.227C343.329 477.838 347.312 472.63 350.091 467.071C352.779 461.695 351.657 456.576 349.434 452.659C347.843 449.854 345.633 447.534 343.608 445.876C344.399 443.532 345.181 440.168 345.181 436.479C345.181 432.442 342.532 430.066 340.04 428.87C339.517 428.619 338.98 428.407 338.44 428.227C344.254 419.744 353.177 406.255 356.829 398.951C360.145 392.317 357.792 385.084 354.388 381.193C352.759 379.33 350.179 377.446 347.194 377.846C343.777 378.304 342.016 381.328 341.358 384.617C341.137 385.72 340.114 387.862 338.108 390.931C336.184 393.873 333.59 397.321 330.633 400.929C327.304 404.99 323.563 409.192 319.881 413.027Z" fill="#CC874D" stroke="black" stroke-width="6.25141"/>
<path d="M312.407 437.626L314.355 438.717L312.407 437.626ZM319.998 448.789L317.893 448.046L319.998 448.789ZM335.627 460.846C334.887 459.859 333.488 459.659 332.501 460.399C331.515 461.139 331.315 462.538 332.055 463.525L335.627 460.846ZM337.502 426.018C333.957 425.876 328.885 425.395 323.989 426.458C318.926 427.558 313.945 430.311 310.459 436.535L314.355 438.717C317.121 433.778 320.921 431.694 324.937 430.822C329.121 429.913 333.426 430.324 337.324 430.48L337.502 426.018ZM310.459 436.535C306.149 444.231 306.345 449.594 308.968 453.28C310.194 455.001 311.806 456.13 313.188 456.895C313.885 457.28 314.548 457.587 315.097 457.831C315.7 458.098 316.047 458.24 316.32 458.377L318.317 454.383C317.921 454.185 317.357 453.948 316.908 453.749C316.407 453.526 315.88 453.281 315.351 452.988C314.281 452.396 313.298 451.662 312.606 450.691C311.396 448.99 310.475 445.646 314.355 438.717L310.459 436.535ZM343.07 444.452C339.398 443.151 334.208 441.761 329.496 441.701C324.925 441.643 319.717 442.878 317.893 448.046L322.104 449.533C322.906 447.259 325.29 446.113 329.439 446.166C333.447 446.217 338.108 447.432 341.58 448.661L343.07 444.452ZM317.893 448.046C316.574 451.785 315.206 455.92 315.143 459.523C315.11 461.37 315.413 463.242 316.365 464.906C317.338 466.606 318.877 467.892 320.955 468.723L322.614 464.578C321.343 464.069 320.649 463.402 320.241 462.688C319.812 461.938 319.584 460.935 319.607 459.601C319.656 456.841 320.744 453.385 322.104 449.533L317.893 448.046ZM320.955 468.723C324.862 470.286 329.14 470.043 332.158 468.835C333.641 468.242 335.106 467.3 335.939 465.923C336.376 465.201 336.648 464.339 336.596 463.392C336.545 462.445 336.181 461.584 335.627 460.846L332.055 463.525C332.171 463.679 332.142 463.711 332.137 463.633C332.133 463.555 332.164 463.537 332.119 463.611C331.99 463.824 331.529 464.278 330.5 464.689C328.495 465.491 325.406 465.694 322.614 464.578L320.955 468.723Z" fill="black"/>
</g>
<path d="M279.512 893.604C271.175 888.611 261.256 876.5 257.338 871.068L199.294 873.882L197.535 914.119L197.535 924.562C206.7 928.053 229.11 935.68 245.426 938.262C295.348 941.745 304.194 932.884 307.392 929.355C308.153 921.898 306.45 919.563 305.503 919.328C305.42 918.272 305.216 917.153 305.052 915.977C303.762 906.764 289.934 899.845 279.512 893.604Z" fill="#333333"/>
<path d="M197.535 914.119C204.709 917.144 222.118 924.255 239.136 927.477C268.739 931.539 306.073 926.545 305.503 919.328M197.535 914.119L199.294 873.882L257.338 871.068C261.256 876.5 271.175 888.611 279.512 893.604C289.934 899.845 303.762 906.764 305.052 915.977C305.216 917.153 305.42 918.272 305.503 919.328M197.535 914.119L197.535 924.562C206.7 928.053 229.11 935.68 245.426 938.262C295.348 941.745 304.194 932.884 307.392 929.355C308.153 921.898 306.45 919.563 305.503 919.328" stroke="#090909" stroke-width="7.42158"/>
<path d="M280.378 894.403C276.864 891.481 267.536 886.93 258.342 892.098C246.849 898.558 239.063 910.406 222.962 908.922M198.962 884.858C205.24 886.802 218.617 893.687 221.896 905.671C225.175 917.654 235.49 927.564 239.846 930.444" stroke="black" stroke-width="1.68454"/>
<path d="M259.138 891.11L258.396 890.244M258.396 890.244L245.779 875.524L253.201 874.04L250.232 879.235L257.654 879.977L254.685 884.43L262.107 885.172L258.396 890.244Z" stroke="black" stroke-width="1.48432"/>
<path d="M156.647 925.122C149.304 918.757 141.638 905.107 138.723 899.078L81.0726 891.77L72.3531 931.089L70.5395 941.374C78.9595 946.404 99.7044 957.807 115.324 963.183C163.883 975.281 174.133 968.09 177.895 965.171C179.94 957.959 178.668 955.364 177.776 954.968C177.877 953.914 177.872 952.776 177.914 951.59C178.243 942.292 165.827 933.077 156.647 925.122Z" fill="#333333"/>
<path d="M72.3531 931.089C78.8926 935.314 94.8029 945.34 111.002 951.469C139.45 960.61 177.085 962.175 177.776 954.968M72.3531 931.089L81.0726 891.77L138.723 899.078C141.638 905.107 149.304 918.757 156.647 925.122C165.827 933.077 178.243 942.292 177.914 951.59C177.872 952.776 177.877 953.914 177.776 954.968M72.3531 931.089L70.5395 941.374C78.9595 946.404 99.7044 957.807 115.324 963.183C163.883 975.281 174.133 968.09 177.895 965.171C179.94 957.959 178.668 955.364 177.776 954.968" stroke="#090909" stroke-width="7.42158"/>
<path d="M157.362 926.059C154.408 922.571 146.012 916.47 136.06 919.962C123.62 924.329 113.895 934.645 98.2958 930.387M78.8394 902.521C84.6847 905.526 96.6623 914.629 97.8109 927C98.9596 939.371 107.397 950.921 111.186 954.514" stroke="black" stroke-width="1.68454"/>
<path d="M137.016 919.127L136.435 918.146M136.435 918.146L126.566 901.459L134.133 901.286L130.307 905.887L137.487 907.906L133.79 911.776L140.97 913.796L136.435 918.146Z" stroke="black" stroke-width="1.48432"/>
<path d="M140.401 446.587L189.032 424.212C189.032 424.212 288.054 629.753 254.44 636.344C220.826 642.935 181.28 630.412 181.28 630.412L140.401 446.587Z" fill="#F1F0F0"/>
<mask id="mask0_8_66" style="mask-type:alpha" maskUnits="userSpaceOnUse" x="140" y="424" width="115" height="217">
<path d="M140.401 446.584L189.032 424.212L254.512 626.627L181.588 640.68L140.401 446.584Z" fill="#F1F0F0"/>
</mask>
<g mask="url(#mask0_8_66)">
</g>
<path d="M253.065 824.189C258.34 784.116 259.218 697.202 258.997 658.755L253.065 631.073L143.644 636.346C136.614 643.816 121.63 661.392 117.939 671.937C120.576 682.483 97.5074 792.333 85.6436 845.939C81.689 849.455 72.9889 857.408 69.8252 861.099C66.6616 864.79 79.0526 884.167 85.6436 893.395C95.9695 893.614 118.73 893.922 127.167 893.395C137.712 892.735 143.644 885.485 143.644 877.576L143.644 861.099C156.826 811.666 185.431 712.538 194.395 711.483C205.6 710.165 207.577 820.235 207.577 832.757C202.304 836.448 199.668 853.19 199.009 861.099L214.168 885.485C221.641 883.508 239.883 879.158 253.065 877.576C266.247 875.994 266.466 855.826 264.928 845.939L258.997 845.939C257.019 843.083 253.065 834.735 253.065 824.189Z" fill="#354455"/>
<mask id="mask1_8_66" style="mask-type:alpha" maskUnits="userSpaceOnUse" x="69" y="631" width="197" height="263">
<path d="M253.065 824.189C258.34 784.116 259.218 697.202 258.997 658.755L253.065 631.073L143.644 636.346C136.614 643.816 121.63 661.392 117.939 671.937C120.576 682.483 97.5074 792.333 85.6436 845.939C81.689 849.455 72.9889 857.408 69.8252 861.099C66.6616 864.79 79.0526 884.167 85.6436 893.395C95.9695 893.614 118.73 893.922 127.167 893.395C137.712 892.735 143.644 885.485 143.644 877.576L143.644 861.099C156.826 811.666 185.431 712.538 194.395 711.483C205.6 710.165 207.577 820.235 207.577 832.757C202.304 836.448 199.668 853.19 199.009 861.099L214.168 885.485C221.641 883.508 239.883 879.158 253.065 877.576C266.247 875.994 266.466 855.826 264.928 845.939L258.997 845.939C257.019 843.083 253.065 834.735 253.065 824.189Z" fill="#2E333D"/>
</mask>
<g mask="url(#mask1_8_66)">
<path d="M92.8656 869.014L142.298 866.377L142.298 859.127C132.192 858.468 109.87 857.018 101.434 856.491C92.9974 855.963 86.9337 846.165 84.9564 841.331L75.729 850.559L92.8656 869.014Z" fill="#516280"/>
<path d="M243.169 867.036L263.601 855.172L266.237 851.218L260.964 845.945L243.169 855.172L199.668 856.491L199.668 858.468L243.169 867.036Z" fill="#516280"/>
<path d="M169.341 675.897L152.864 726.648L123.204 733.898L112.659 722.034" stroke="black" stroke-width="5.60627"/>
</g>
<path d="M98.1848 433.16C109.236 417.248 140.924 420.548 142.473 422.77C143.072 425.876 145.002 433.712 147.934 440.206C183.864 476.644 212.894 570.435 205.644 669.3C180.796 674.089 126.396 691.401 103.989 672.946C100.817 652.128 89.9462 478.402 90.1466 472.901C90.347 467.4 84.3704 453.05 98.1848 433.16Z" fill="#202A35"/>
<path d="M206.691 412.62C202.289 401.388 187.583 419.03 178.616 416.837L178.616 438.074C182.451 441.257 191.337 449.573 192.648 456.379C228.793 504.525 245.849 631.072 250.463 669.3C255.859 668.96 265.622 658.755 278.804 650.186C272.213 609.273 241.753 457.738 237.055 451.468C234.472 448.02 225.224 423.754 206.691 412.62Z" fill="#202A35"/>
<path d="M143.728 432.269C142.99 426.697 142.802 405.703 140.035 396.432L168.996 390.252C172.097 401.98 178.688 427.461 180.25 435.563C184.989 440.532 194.248 447.152 192.832 452.887C170.008 465.269 150.683 444.374 143.728 432.269Z" fill="#CC874D"/>
<mask id="mask2_8_66" style="mask-type:alpha" maskUnits="userSpaceOnUse" x="140" y="388" width="53" height="69">
<path d="M143.73 430.928C142.992 425.356 143.759 403.798 140.992 394.527L173.339 388.817C176.44 400.544 178.709 427.46 180.27 435.563C185.01 440.532 194.269 447.151 192.853 452.886C170.028 465.268 150.685 443.033 143.73 430.928Z" fill="#9A5E2C"/>
</mask>
<g mask="url(#mask2_8_66)">
<path d="M175.842 422.037C168.188 424.184 150.49 414.037 142.597 408.695L140.88 399.782L177.375 399.472C180.053 406.099 183.495 419.889 175.842 422.037Z" fill="black"/>
</g>
<path d="M204.979 670.62C205.191 667.357 207.615 579.005 198.388 550.664C189.542 501.275 160.994 452.491 147.357 435.511C146.052 433.101 142.148 423.276 141.211 418.415" stroke="black" stroke-width="3.75084"/>
<path d="M251.15 669.3C251.361 666.038 233.904 566.068 229.344 542.409C218.195 495.957 192.057 447.771 178.421 430.791L178.413 403.093" stroke="black" stroke-width="3.75084"/>
<path d="M141.123 519.394C142.344 512.471 140.467 505.36 135.987 499.941L107.358 465.311C101.133 457.78 88.9397 461.036 87.2967 470.668L72.6599 556.479C70.333 570.12 77.4854 583.618 90.0798 589.353C108.22 597.614 129.278 586.532 132.741 566.902L141.123 519.394Z" fill="#202A35"/>
<path d="M91.4835 445.689C106.434 430.739 123.996 443.252 128.745 458.543C133.493 473.834 127.208 525.113 123.472 548.84" stroke="black" stroke-width="6.54065"/>
<path d="M177.974 416.864C189.397 416.205 198.971 409.074 204.458 413.065C220.087 416.864 233.929 447.002 236.162 455.039C237.368 459.38 270.687 591.745 279.475 651.504C271.786 657.216 254.673 669.568 250.454 670.623" stroke="black" stroke-width="6.59099"/>
<path d="M142.384 395.813L141.05 418.87C138.194 417.772 136.003 418.87 125.868 418.87C122.183 418.87 109.564 421.867 99.2983 429.166C92.424 434.053 89.4713 442.412 88.1761 450.747L73.8309 543.055C71.1965 560.006 77.3396 577.137 90.146 588.551V588.551" stroke="black" stroke-width="6.59099"/>
<path d="M257.048 667.983C255.948 715.219 255.066 814.435 252.433 830.781C252.433 837.372 256.388 843.304 259.024 845.281C261.661 847.258 267.592 840.667 264.956 858.463C262.847 872.7 257.927 874.283 255.73 874.283" stroke="black" stroke-width="6.59099"/>
<path d="M120.879 682.588C106.803 727.691 91.7416 820.382 89.0048 836.711C86.8953 842.956 83.7117 843.49 78.1196 848.339C72.5275 853.189 69.232 858.461 70.5502 861.757C75.8952 875.119 84.9467 891.372 87.0277 892.075" stroke="black" stroke-width="6.59099"/>
<path d="M166.95 683.217L117.33 687.097" stroke="black" stroke-width="6.59099"/>
<path d="M214.215 704.892L191.146 710.824L141.055 857.803C143.032 868.349 143.691 890.495 130.509 894.713" stroke="black" stroke-width="6.59099"/>
<path d="M196.419 711.483C201.251 736.089 208.151 795.452 204.991 836.052C199.064 855.825 194.445 861.757 204.991 874.28" stroke="black" stroke-width="6.59099"/>
<path d="M191.797 711.484L198.388 689.074" stroke="black" stroke-width="5.60627"/>
<path d="M205.648 633.308L245.194 633.308" stroke="black" stroke-width="3.2955"/>
<path d="M256.404 875.598L213.562 885.484L204.994 872.303" stroke="black" stroke-width="3.95459"/>
<path d="M130.515 892.735L102.832 892.735L85.0367 892.735" stroke="black" stroke-width="3.95459"/>
<path d="M139.071 857.802L102.162 857.802C96.2298 855.825 84.8933 850.42 87.0024 844.62" stroke="black" stroke-width="3.95459"/>
<path d="M199.718 855.166L244.279 855.166C250.211 853.188 261.548 847.784 259.439 841.984" stroke="black" stroke-width="3.95459"/>
<path d="M55.4544 291.587C60.5999 282.368 71.0347 284.181 75.4997 286.826C78.3222 302.593 84.7365 338.787 87.8136 357.425C44.437 348.755 48.7768 303.55 55.4544 291.587Z" fill="#CC874D" stroke="#391F06" stroke-width="5.98695"/>
<mask id="mask3_8_66" style="mask-type:alpha" maskUnits="userSpaceOnUse" x="48" y="281" width="44" height="81">
<path d="M55.4544 291.587C60.5999 282.368 71.0347 284.181 75.4997 286.826C78.3222 302.593 84.7365 338.787 87.8136 357.425C44.437 348.755 48.7768 303.55 55.4544 291.587Z" fill="#C88954" stroke="#391F06" stroke-width="5.98695"/>
</mask>
<g mask="url(#mask3_8_66)">
</g>
<path d="M55.4651 291.585C60.6107 282.366 71.0454 284.179 75.5104 286.824C78.333 302.591 84.7473 338.785 87.8243 357.423C44.4477 348.753 48.7875 303.548 55.4651 291.585Z" stroke="black" stroke-width="5.98695"/>
<path d="M60.2965 320.816C60.5279 321.823 61.5319 322.452 62.5389 322.22C63.5459 321.989 64.1747 320.985 63.9432 319.978L60.2965 320.816ZM63.9432 319.978C63.6429 318.671 63.3959 316.747 63.4246 314.699C63.4536 312.636 63.7604 310.582 64.4691 308.937C65.1638 307.324 66.1871 306.214 67.6532 305.713C69.1704 305.194 71.5183 305.202 75.091 306.621L76.4724 303.144C72.4462 301.544 69.1199 301.256 66.4421 302.172C63.713 303.106 62.0203 305.163 61.0324 307.457C60.0584 309.718 59.7159 312.311 59.6831 314.646C59.6502 316.994 59.929 319.217 60.2965 320.816L63.9432 319.978Z" fill="black"/>
<path d="M295.489 282.82C289.685 274.002 279.41 276.571 275.15 279.535C273.485 295.465 269.728 332.031 268.019 350.844C310.647 339.033 303.021 294.265 295.489 282.82Z" fill="#CC874D" stroke="#391F06" stroke-width="5.98695"/>
<mask id="mask4_8_66" style="mask-type:alpha" maskUnits="userSpaceOnUse" x="264" y="273" width="41" height="82">
<path d="M295.489 282.82C289.685 274.002 279.41 276.571 275.15 279.535C273.485 295.465 269.728 332.031 268.019 350.844C310.647 339.033 303.021 294.265 295.489 282.82Z" fill="#C88954" stroke="#391F06" stroke-width="5.98695"/>
</mask>
<g mask="url(#mask4_8_66)">
</g>
<path d="M295.535 282.82C289.731 274.001 279.456 276.571 275.196 279.534C273.531 295.465 269.775 332.03 268.066 350.844C310.694 339.032 303.068 294.264 295.535 282.82Z" stroke="black" stroke-width="5.98695"/>
<path d="M293.967 312.279C293.809 313.3 292.854 314 291.833 313.843C290.811 313.686 290.111 312.73 290.268 311.709L293.967 312.279ZM290.268 311.709C290.473 310.384 290.579 308.447 290.401 306.406C290.221 304.351 289.765 302.325 288.939 300.736C288.128 299.177 287.026 298.146 285.528 297.752C283.977 297.345 281.636 297.525 278.176 299.201L276.545 295.834C280.443 293.945 283.74 293.415 286.477 294.133C289.267 294.865 291.105 296.793 292.258 299.009C293.394 301.193 293.925 303.754 294.128 306.081C294.332 308.42 294.216 310.657 293.967 312.279L290.268 311.709Z" fill="black"/>
<path d="M71.3049 196.593L71.1142 197.179L71.1439 197.796L74.5076 197.634C71.1439 197.796 71.1439 197.796 71.1439 197.797L71.1442 197.802L71.145 197.82L71.1485 197.891L71.1621 198.169C71.1742 198.415 71.1923 198.779 71.2162 199.254C71.2641 200.205 71.3357 201.602 71.4302 203.388C71.6192 206.959 71.9001 212.086 72.2681 218.312C73.0039 230.763 74.088 247.618 75.4809 265.225C76.8733 282.824 78.577 301.209 80.5539 316.708C82.5082 332.03 84.7818 345.019 87.4484 351.479C92.6788 364.149 105.322 379.602 122.619 391.655C139.974 403.748 162.33 412.641 187.148 411.735L187.195 411.733L187.242 411.73C220.629 409.567 241.144 394.39 253.902 376.996C266.508 359.809 271.454 340.572 274.116 330.217L274.142 330.114C274.283 329.566 274.342 329.034 274.339 328.504L273.472 192.48C274.75 179.215 270.497 169.172 262.79 161.824C255.202 154.59 244.497 150.179 233.178 147.46C211.397 142.227 185.903 142.948 171.855 143.346C171.307 143.361 170.777 143.376 170.265 143.39L170.235 143.391L170.205 143.392C156.191 144.029 134.949 147.198 115.534 155.143C96.1879 163.061 77.9958 176.008 71.3049 196.593Z" fill="#CC874D" stroke="#391F06" stroke-width="6.73533"/>
<path d="M108.723 212.287L84.2463 249.501L81.7469 181.071L153.146 167.605L275.981 209.174L277.333 246.193L176.465 201.201L108.723 212.287Z" fill="#9A5E2C"/>
<path d="M174.004 400.035C124.903 400.7 94.0565 350.323 84.7711 325.05C70.0663 373.52 150.574 414.636 201.726 410.653C252.878 406.67 270.395 342.942 270.112 335.198C258.839 364.863 235.381 399.203 174.004 400.035Z" fill="#9A5E2C"/>
<mask id="mask5_8_66" style="mask-type:alpha" maskUnits="userSpaceOnUse" x="67" y="139" width="215" height="277">
<path d="M71.3049 196.593L71.1142 197.179L71.1439 197.796L74.5076 197.634C71.1439 197.796 71.1439 197.796 71.1439 197.797L71.1442 197.802L71.145 197.82L71.1485 197.891L71.1621 198.169C71.1742 198.415 71.1923 198.779 71.2162 199.254C71.2641 200.205 71.3357 201.602 71.4302 203.388C71.6192 206.959 71.9001 212.086 72.2681 218.312C73.0039 230.763 74.088 247.618 75.4809 265.225C76.8733 282.824 78.577 301.209 80.5539 316.708C82.5082 332.03 84.7818 345.019 87.4484 351.479C92.6788 364.149 105.322 379.602 122.619 391.655C139.974 403.748 162.33 412.641 187.148 411.735L187.195 411.733L187.242 411.73C254.227 407.391 272.838 351.119 278.251 330.274C278.411 329.656 278.467 329.057 278.445 328.467L273.477 192.428C274.739 179.189 270.487 169.162 262.79 161.824C255.202 154.59 244.497 150.179 233.178 147.46C211.397 142.227 185.903 142.948 171.855 143.346C171.307 143.361 170.777 143.376 170.265 143.39L170.235 143.391L170.205 143.392C156.191 144.029 134.949 147.198 115.534 155.143C96.1879 163.061 77.9958 176.008 71.3049 196.593Z" fill="#C88954" stroke="#391F06" stroke-width="6.73533"/>
</mask>
<g mask="url(#mask5_8_66)">
<path d="M92.7373 193.952C84.8684 224.55 82.9262 243.135 80.9206 259.987L79.6552 276.599L56.0067 162.212L265.41 154.563L271.401 216.071C271.772 226.23 254.626 207.852 248.488 203.819C233.627 207.023 194.424 189.589 181.4 181.55C168.996 190.517 109.938 193.324 92.7373 193.952Z" fill="#9A5E2C"/>
<path d="M71.3049 196.593L71.1142 197.179L71.1439 197.796L74.5076 197.634C71.1439 197.796 71.1439 197.796 71.1439 197.797L71.1442 197.802L71.145 197.82L71.1485 197.891L71.1621 198.169C71.1742 198.415 71.1923 198.779 71.2162 199.254C71.2641 200.205 71.3357 201.602 71.4302 203.388C71.6192 206.959 71.9001 212.086 72.2681 218.312C73.0039 230.763 74.088 247.618 75.4809 265.225C76.8733 282.824 78.577 301.209 80.5539 316.708C82.5082 332.03 84.7818 345.019 87.4484 351.479C92.6788 364.149 105.322 379.602 122.619 391.655C139.974 403.748 162.33 412.641 187.148 411.735L187.195 411.733L187.242 411.73C220.685 409.564 241.589 392.964 254.507 374.963C267.344 357.074 272.303 337.809 274.17 330.029C274.296 329.501 274.342 329.011 274.339 328.53L273.472 192.48C274.75 179.215 270.497 169.172 262.79 161.824C255.202 154.59 244.497 150.179 233.178 147.46C211.397 142.227 185.903 142.948 171.855 143.346C171.307 143.361 170.777 143.376 170.265 143.39L170.235 143.391L170.205 143.392C156.191 144.029 134.949 147.198 115.534 155.143C96.1879 163.061 77.9958 176.008 71.3049 196.593Z" stroke="black" stroke-width="6.73533"/>
</g>
<g clip-path="url(#clip2_8_66)">
<path d="M201.515 315.993C196.882 320.355 181.818 323.452 174.865 324.455C161.79 327.332 188.153 339.696 193.625 335.751C198.781 326.577 206.148 311.63 201.515 315.993Z" fill="#935724"/>
<path d="M181.008 267.69C181.715 283.64 183.181 307.756 190.116 309C198.785 310.556 204.905 314.077 201.106 322.828C198.066 329.828 193.889 333.7 192.181 334.761" stroke="black" stroke-width="3.74185" stroke-linecap="round"/>
<path d="M124.665 228.67C105.103 236.499 103.102 246.556 103.423 251.911C103.226 254.914 148.519 246.146 152.231 245.261C155.943 244.377 160.075 234.49 157.613 228.589C155.151 222.688 146.33 219.999 124.665 228.67Z" fill="#9A5E2C"/>
<path d="M124.443 223.437C104.881 231.266 102.88 241.324 103.201 246.679C103.004 249.682 148.297 240.913 152.009 240.029C155.721 239.144 159.853 229.258 157.391 223.357C154.929 217.456 146.108 214.767 124.443 223.437Z" fill="black"/>
<mask id="mask6_8_66" style="mask-type:alpha" maskUnits="userSpaceOnUse" x="103" y="217" width="56" height="31">
<path d="M124.443 223.437C104.881 231.266 102.88 241.324 103.201 246.679C103.004 249.682 148.297 240.913 152.009 240.029C155.721 239.144 159.853 229.258 157.391 223.357C154.929 217.456 146.108 214.767 124.443 223.437Z" fill="black"/>
</mask>
<g mask="url(#mask6_8_66)">
<path d="M161.372 231.858L99.5993 242.352L98.6979 217.672L146.818 202.435L161.372 231.858Z" fill="#272B2B"/>
</g>
<path d="M233.319 224.704C253.4 231.085 256.129 240.97 256.2 246.334C256.616 249.315 210.804 243.874 207.037 243.262C203.27 242.651 198.428 233.093 200.453 227.028C202.478 220.963 211.08 217.637 233.319 224.704Z" fill="#9A5E2C"/>
<path d="M233.155 219.468C253.236 225.849 255.965 235.734 256.037 241.098C256.452 244.078 210.64 238.637 206.873 238.026C203.107 237.415 198.264 227.856 200.289 221.791C202.314 215.726 210.916 212.401 233.155 219.468Z" fill="black"/>
<mask id="mask7_8_66" style="mask-type:alpha" maskUnits="userSpaceOnUse" x="199" y="215" width="58" height="27">
<path d="M233.155 219.468C253.236 225.849 255.965 235.734 256.037 241.098C256.452 244.078 210.64 238.637 206.873 238.026C203.107 237.415 198.264 227.856 200.289 221.791C202.314 215.726 210.916 212.401 233.155 219.468Z" fill="black"/>
</mask>
<g mask="url(#mask7_8_66)">
<path d="M196.975 230.558L259.349 236.517L258.447 211.838L209.344 200.151L196.975 230.558Z" fill="#272B2B"/>
</g>
<path d="M138.349 358.651C132.316 343.839 138.748 339.773 142.719 339.592C179.394 349.444 196.684 348.337 204.45 349.631C212.216 350.925 210.694 356.7 203.032 365.925C172.281 392.307 145.891 377.167 138.349 358.651Z" fill="black"/>
<mask id="mask8_8_66" style="mask-type:alpha" maskUnits="userSpaceOnUse" x="135" y="339" width="75" height="42">
<path d="M138.318 358.26C132.281 343.775 138.785 339.774 142.792 339.584C179.764 349.115 197.214 347.976 205.045 349.218C212.877 350.46 210.001 358.011 202.238 367.068C171.119 392.997 145.864 376.365 138.318 358.26Z" fill="black"/>
</mask>
<g mask="url(#mask8_8_66)">
<path d="M209.703 354.608C182.91 363.787 149.473 352.052 136.104 345.037L136.973 333.322C160.133 337.32 207.148 345.642 209.933 346.945C213.414 348.574 211.827 350.732 209.703 354.608Z" fill="#FBFAFB"/>
<path d="M179.829 372.127C166.467 362.806 150.574 368.202 144.298 372.065C147.064 378.371 165.857 382.406 174.908 383.635C182.116 383.683 193.192 381.448 179.829 372.127Z" fill="#B35A4E"/>
</g>
<path d="M138.321 358.416C132.269 343.803 138.771 339.774 142.778 339.586C179.762 349.23 197.213 348.098 205.047 349.357C208.665 349.939 210.519 358.721 203.575 365.449C182.344 393.445 145.886 376.681 138.321 358.416Z" stroke="black" stroke-width="3.74185"/>
<path d="M132.703 259.879C115.326 262.529 110.378 272.707 109.91 281.892C109.617 287.655 112.856 293.496 118.622 293.71C124.684 293.936 132.16 291.782 136.992 291.413C145.392 290.77 153.033 293.515 159.352 289.702C165.671 285.889 161.842 255.437 132.703 259.879Z" fill="#FBFAFB"/>
<circle cx="134.981" cy="279.015" r="12.2943" transform="rotate(-0.641882 134.981 279.015)" fill="black"/>
<circle cx="3.07003" cy="3.07003" r="3.07003" transform="matrix(-0.997087 0.0762777 0.0762777 0.997087 141.076 270.649)" fill="#FBFAFB"/>
<path d="M220.164 254.86C202.516 258.447 198.226 268.224 198.125 277.14C198.061 282.701 201.189 288.143 206.736 288.542C212.053 288.924 218.672 287.764 223.603 287.386C232.26 286.724 240.57 289.418 246.889 285.605C253.208 281.792 249.048 248.989 220.164 254.86Z" fill="#FBFAFB"/>
<circle cx="220.808" cy="275.042" r="12.2943" transform="rotate(-0.641882 220.808 275.042)" fill="black"/>
<circle cx="3.07003" cy="3.07003" r="3.07003" transform="matrix(-0.997087 0.0762777 0.0762777 0.997087 226.903 266.675)" fill="#FBFAFB"/>
<path d="M249.456 282.608C252.04 267.416 243.671 255.874 226.688 254.362C208.919 252.78 193.932 267.176 200.087 286.385" stroke="black" stroke-width="3.73751" stroke-linecap="round"/>
<path d="M110.728 291.11C105.863 276.488 112.483 265.172 129.039 261.094C146.361 256.827 163.867 263.116 162.136 289.487" stroke="black" stroke-width="3.73751" stroke-linecap="round"/>
</g>
<path d="M82.8953 78.6303L84.8542 76.0115L79.6167 72.0938L77.6578 74.7125L82.8953 78.6303ZM72.3864 124.537C69.8338 118.038 67.7457 98.8834 82.8953 78.6303L77.6578 74.7125C61.1198 96.8217 62.9373 118.371 66.2985 126.928L72.3864 124.537Z" fill="black"/>
<path d="M309.055 125.77C272.552 120.738 303.573 67.9333 243.994 66.739C168.026 78.1262 169.337 52.5228 134.382 59.1357C96.0275 66.3916 71.0458 104.187 69.1468 125.749C34.3623 116.536 2.09277 145.422 16.5241 171.48C26.1355 188.835 18.618 201.375 14.0397 205.538C15.5053 207.886 23.5988 214.578 29.6428 212.762C26.371 223.761 32.1889 226.196 35.3245 233.359C37.9374 239.327 39.8826 242.102 41.4328 245.341C47.6336 258.3 47.6336 258.3 49.3328 263.112C55.4289 274.966 57.1281 279.778 59.1914 283.75C55.9008 283.87 62.7918 289.723 61.9922 291.749L68.2972 297.271L79.901 327.926C78.0463 307.899 74.2575 265.676 73.9406 257.001C94.4398 252.358 98.2255 224.786 98.6547 216.034C98.1817 220.17 98.1385 201.898 98.3133 206.685C122.013 199.454 145.53 197.472 165.267 194.505C165.886 201.222 186.429 220.317 206.616 229.689C199.571 221.334 193.744 215.556 193.634 212.565C202.129 229.853 239.458 236.977 254.196 240.682C253.339 237.718 251.161 229.335 249.304 219.518C252.416 222.699 266.856 228.487 273.687 230.984L276.186 299.414C276.639 298.149 281.017 294.295 282.936 289.432C284.855 284.569 286.206 276.456 286.325 269.463L292.682 269.23L292.532 265.117L292.578 256.129C291.005 254.065 303.293 243.981 296.825 239.125C314.197 239.089 325.904 228.827 328.893 225.223C326.429 222.692 320.269 216.701 315.341 212.987C334.68 201.197 349.054 158.134 348.363 146.052L330.414 146.708C334.318 138.777 331.34 124.208 329.362 117.915C326.711 120.508 316.616 127.741 309.055 125.77Z" fill="#232727"/>
<mask id="mask9_8_66" style="mask-type:alpha" maskUnits="userSpaceOnUse" x="-1" y="64" width="50" height="38">
<path d="M42.6962 74.3846C37.3732 73.6508 41.8968 65.9508 33.209 65.7766C22.1313 67.4371 22.3566 64.063 17.2595 65.0273C11.6666 66.0853 9.25687 69.3044 8.97995 72.4486C3.9077 71.105 -0.797832 75.3173 1.30654 79.117C2.70807 81.6476 0.223031 83.834 -0.535701 83.9891C-0.529062 84.1708 1.67326 84.6728 4.10706 84.0379C1.98573 85.7534 2.05543 87.6618 1.8306 88.9804C2.84669 88.3973 4.64409 88.277 5.21127 88.8569C6.47659 90.6125 3.38174 92.582 2.68483 92.935C3.76665 94.1513 5.43035 94.8549 7.52826 95.4881C7.04843 95.5056 6.28492 96.8257 6.16832 97.1212L8.85607 97.4598L10.5481 101.93C10.2777 99.0095 9.7252 92.8526 9.67899 91.5876C12.6682 90.9106 13.2202 86.8901 13.2828 85.6138C13.2138 86.2169 13.2075 83.5526 13.233 84.2505C16.6889 83.1962 20.1181 82.9071 22.9961 82.4744C23.0865 83.4539 26.082 86.2383 29.0257 87.605C27.9984 86.3867 27.1486 85.5442 27.1327 85.1079C28.3713 87.6289 33.8147 88.6677 35.9638 89.208C35.8388 88.7757 35.5211 87.5534 35.2505 86.1218C35.7042 86.5857 37.8098 87.4298 38.8059 87.7938L39.1704 97.7722C39.2364 97.5878 39.8747 97.0258 40.1546 96.3167C40.4345 95.6076 40.6315 94.4246 40.6488 93.4048L41.5758 93.3709L41.5539 92.7711L41.5606 91.4605C41.3312 91.1594 43.123 89.689 42.1799 88.9809C44.7131 88.9758 46.4202 87.4793 46.856 86.9537C46.4967 86.5847 45.5985 85.7111 44.8798 85.1695C47.6999 83.4504 48.5287 79.1038 48.428 77.3421L45.8107 77.4377C46.38 76.2812 45.9457 74.1567 45.6574 73.2391C45.2708 73.6172 43.7987 74.6719 42.6962 74.3846Z" fill="#272B2B"/>
</mask>
<g mask="url(#mask9_8_66)">
</g>
<path d="M13.1949 151.009C30.0402 120.14 58.5931 122.766 70.7639 127.938C67.0212 107.481 92.7269 76.01 112.204 65.9378C131.681 55.8655 153.023 55.8349 177.725 65.7913C197.486 73.7564 229.159 69.5292 242.525 66.42C253.849 65.5071 278.221 69.8341 285.11 94.4448C293.723 125.208 295.237 115.418 295.415 120.279C311.289 130.234 320.436 125.111 325.428 121.44C327.184 120.149 329.476 120.764 330.111 122.849C333.093 132.643 331.212 142.591 329.706 146.735L344.528 146.193C346.645 146.116 348.411 147.814 348.279 149.929C346.341 180.828 322.182 209.368 314.993 212.626L326.373 222.365C328.113 223.854 328.117 226.542 326.352 227.999C325.373 228.806 324.358 229.627 323.501 230.288C290.222 245.882 258.677 222.172 247.147 210.611C248.529 214.491 251.229 226.259 252.306 235.455C252.607 238.022 250.141 239.912 247.694 239.079C216.723 228.529 197.578 214.977 191.681 209.267C193.425 212.573 197.636 220.582 200.536 226.168C172.359 209.224 167.782 200.779 163.022 193.464C146.374 195.57 112.839 201.438 98.3119 205.563C100.52 241.428 83.999 254.513 75.4622 256.572L71.7159 297.522C69.8917 295.977 69.0702 296.055 64.3793 290.283C62.972 288.552 61.7761 286.8 59.9788 283.722C55.5852 276.198 54.1196 273.85 44.9753 256.068C42.9265 252.084 41.0384 248.848 37.4134 241.866C33.7885 234.884 28.6194 227.781 28.0356 221.62C27.6854 217.924 28.8008 216.575 29.5659 211.529C25.2819 210.269 21.6298 208.73 18.4159 206.997C16.1654 205.784 16.0902 202.676 17.6493 200.65C23.1516 193.498 22.6082 183.598 18.6712 175.265C12.5841 162.382 11.279 160.065 13.1949 151.009Z" stroke="black" stroke-width="6.54065"/>
<path d="M294.697 235.658C296.273 235.855 302.413 238.842 298.238 245.705C294.061 252.572 291.217 264.955 293.489 270.41C289.762 270.682 285.875 268.78 285.83 268.159C286.95 274.947 286.358 290.792 275.029 299.864" stroke="black" stroke-width="6.54065"/>
<path d="M80.687 589.449L86.0454 672.504C88.8734 675.034 116.602 686.932 189.022 670.057" stroke="black" stroke-width="6.51932"/>
<path fill-rule="evenodd" clip-rule="evenodd" d="M69.924 541.045L123.128 491.232C124.949 491.231 132.472 492.482 134.005 497.07C134.646 498.987 133.809 499.029 132.363 498.582C133.072 499.959 133.762 501.631 134.382 503.666C136.913 511.979 145.783 525.037 149.901 530.527C151.121 532.737 152.709 535.957 153.551 538.701C154.347 539.308 154.479 540.443 154.125 541.537C154.198 542.923 153.794 543.885 152.623 544.037C152.483 544.055 152.338 544.069 152.189 544.077C147.153 548.627 125.16 567.675 106.988 583.232C94.8676 593.608 76.6688 591.638 66.8962 579.026C57.9513 567.481 59.2632 551.026 69.924 541.045Z" fill="#B37340"/>
<path d="M123.128 491.232L123.123 484.981L120.656 484.983L118.855 486.669L123.128 491.232ZM69.924 541.045L65.6514 536.481L69.924 541.045ZM134.005 497.07L139.934 495.089L139.934 495.089L134.005 497.07ZM132.363 498.582L134.21 492.61L119.986 488.21L126.805 501.445L132.363 498.582ZM134.382 503.666L128.401 505.487L128.401 505.487L134.382 503.666ZM149.901 530.527L155.375 527.507L155.164 527.125L154.902 526.776L149.901 530.527ZM153.551 538.701L147.574 540.534L148.163 542.453L149.759 543.671L153.551 538.701ZM154.125 541.537L148.177 539.613L147.821 540.713L147.882 541.867L154.125 541.537ZM152.623 544.037L153.427 550.237L153.427 550.237L152.623 544.037ZM152.189 544.077L151.825 537.837L149.63 537.965L147.998 539.439L152.189 544.077ZM106.988 583.232L102.923 578.483L106.988 583.232ZM66.8962 579.026L61.9545 582.855L66.8962 579.026ZM118.855 486.669L65.6514 536.481L74.1966 545.608L127.4 495.796L118.855 486.669ZM139.934 495.089C138.247 490.041 133.679 487.659 130.922 486.597C127.95 485.452 124.852 484.98 123.123 484.981L123.133 497.484C123.058 497.484 123.449 497.494 124.204 497.638C124.9 497.772 125.69 497.979 126.427 498.263C127.186 498.556 127.704 498.858 128 499.096C128.277 499.319 128.167 499.324 128.076 499.052L139.934 495.089ZM130.515 504.554C130.991 504.701 131.775 504.926 132.657 505.02C133.372 505.096 135.332 505.235 137.288 504.008C139.716 502.486 140.402 500.048 140.468 498.434C140.525 497.039 140.18 495.825 139.934 495.089L128.076 499.052C128.15 499.273 127.941 498.784 127.976 497.922C128.02 496.84 128.527 494.745 130.645 493.417C132.291 492.384 133.811 492.57 133.982 492.588C134.32 492.624 134.457 492.686 134.21 492.61L130.515 504.554ZM140.362 501.845C139.644 499.486 138.817 497.461 137.92 495.719L126.805 501.445C127.327 502.457 127.88 503.776 128.401 505.487L140.362 501.845ZM154.902 526.776C152.949 524.172 149.815 519.699 146.881 514.896C143.872 509.971 141.383 505.196 140.362 501.845L128.401 505.487C129.912 510.449 133.124 516.36 136.212 521.415C139.375 526.592 142.736 531.393 144.901 534.279L154.902 526.776ZM159.528 536.868C158.496 533.506 156.663 529.842 155.375 527.507L144.428 533.547C145.578 535.632 146.922 538.407 147.574 540.534L159.528 536.868ZM160.073 543.461C160.81 541.184 161.182 536.66 157.343 533.731L149.759 543.671C148.704 542.866 148.251 541.8 148.115 541.032C147.989 540.328 148.105 539.836 148.177 539.613L160.073 543.461ZM153.427 550.237C155.857 549.921 158.056 548.556 159.317 546.265C160.365 544.362 160.432 542.417 160.368 541.207L147.882 541.867C147.892 542.043 147.793 541.272 148.364 540.235C148.689 539.646 149.197 539.037 149.914 538.563C150.62 538.096 151.31 537.904 151.819 537.838L153.427 550.237ZM152.553 550.318C152.84 550.302 153.131 550.275 153.427 550.237L151.819 537.838C151.834 537.836 151.837 537.836 151.825 537.837L152.553 550.318ZM111.054 587.981C129.206 572.44 151.269 553.333 156.38 548.716L147.998 539.439C143.038 543.92 121.113 562.91 102.923 578.483L111.054 587.981ZM61.9545 582.855C73.8872 598.255 96.1848 600.71 111.054 587.981L102.923 578.483C93.5505 586.507 79.4504 585.022 71.8378 575.197L61.9545 582.855ZM65.6514 536.481C52.635 548.668 51.0333 568.759 61.9545 582.855L71.8378 575.197C64.8694 566.203 65.8914 553.384 74.1966 545.608L65.6514 536.481Z" fill="black"/>
<path d="M126.718 492.238L126.718 492.238C106.746 521.215 142.373 545.365 152.617 544.037C156.319 543.556 152.356 534.985 149.895 530.526C145.777 525.037 136.907 511.979 134.376 503.665C131.844 495.352 128.142 493.103 126.718 492.238Z" fill="black"/>
<path d="M123.122 491.232L69.9179 541.044C59.257 551.025 57.9452 567.481 66.89 579.025C76.6626 591.638 94.8615 593.608 106.982 583.231C127.22 565.906 152.198 544.249 153.212 543.114C155.068 541.036 154.832 537.206 150.353 538.521C136.1 548.203 121.268 515.268 123.293 501.012C124.607 491.76 135.916 502.805 133.999 497.069C132.466 492.481 124.943 491.23 123.122 491.232Z" fill="#202A35"/>
<path d="M165.542 445.333C165.698 443.511 165.762 441.582 165.688 439.605C165.462 433.529 163.927 426.659 159.451 421.151C156.871 417.976 154.358 415.903 151.892 415.063C150.612 414.628 149.273 414.503 147.972 414.824C146.66 415.148 145.598 415.876 144.819 416.793C143.325 418.551 142.892 420.92 143.068 422.968C143.249 425.073 144.105 427.348 145.832 429.075C146.293 429.536 146.929 430.71 147.317 432.868C147.687 434.93 147.763 437.527 147.46 440.384C146.851 446.132 144.761 452.454 141.093 457.122C139.088 459.674 137.745 463.048 136.82 466.592C135.884 470.176 135.315 474.167 134.993 478.135C134.409 485.318 134.614 492.666 135.028 497.861C134.939 497.954 134.846 498.052 134.75 498.155C134.001 498.955 132.938 500.161 131.428 501.954C128.855 505.011 129.439 508.875 130.55 511.834C131.704 514.906 133.792 518.069 135.904 520.811C138.047 523.592 140.361 526.125 142.124 527.951C143.009 528.868 143.764 529.614 144.3 530.135C144.568 530.395 144.782 530.599 144.931 530.74C145.006 530.81 145.064 530.865 145.105 530.903L145.152 530.947L145.166 530.96L145.17 530.964L145.172 530.965C145.172 530.966 145.173 530.966 147.294 528.67L145.173 530.966L146.759 532.432L148.692 531.466C149.136 531.243 149.506 530.955 149.732 530.768C149.991 530.555 150.248 530.318 150.482 530.093C150.908 529.684 151.372 529.203 151.779 528.781L151.886 528.67C152.231 528.313 152.525 528.011 152.768 527.774C161.353 527.272 167.468 525.883 171.464 523.654C173.577 522.475 175.233 520.985 176.27 519.139C176.541 518.656 176.761 518.165 176.934 517.668C177.633 517.619 178.314 517.476 178.949 517.276C181.05 516.614 183.158 515.208 185.087 513.532C188.99 510.143 192.972 504.936 195.752 499.377C198.44 494.001 197.317 488.882 195.095 484.964C193.503 482.159 191.293 479.84 189.269 478.181C190.06 475.838 190.842 472.473 190.842 468.785C190.842 464.747 188.193 462.372 185.7 461.176C185.178 460.925 184.641 460.712 184.101 460.533C189.914 452.049 198.837 438.56 202.489 431.257C205.806 424.623 203.452 417.39 200.048 413.498C198.42 411.636 195.84 409.752 192.854 410.152C189.438 410.61 187.676 413.634 187.019 416.922C186.798 418.026 185.775 420.168 183.768 423.237C181.844 426.178 179.251 429.627 176.294 433.235C172.965 437.296 169.224 441.498 165.542 445.333Z" fill="#CC874D" stroke="black" stroke-width="6.25141"/>
<path d="M163.294 467.547C167.461 463.975 178.208 460.954 184.281 462.383" stroke="black" stroke-width="4.46529"/>
<path d="M169.542 482.281C173.71 478.709 183.563 477.921 189.636 479.35" stroke="black" stroke-width="4.46529"/>
<path d="M179.811 497.465C175.048 501.037 167.436 513.183 176.724 517.112" stroke="black" stroke-width="4.46529"/>
</g>
<defs>
<clipPath id="clip0_8_66">
<rect width="433" height="990" fill="white" transform="matrix(-1 0 0 1 433 0)"/>
</clipPath>
<clipPath id="clip1_8_66">
<rect width="181.291" height="209.869" fill="white" transform="translate(215.623 358.593)"/>
</clipPath>
<clipPath id="clip2_8_66">
<rect width="157.027" height="177.853" fill="white" transform="translate(98.1114 208.827) rotate(-2.09175)"/>
</clipPath>
</defs>
</svg>
