<svg xmlns="http://www.w3.org/2000/svg" xmlns:xlink="http://www.w3.org/1999/xlink" width="500" zoomAndPan="magnify" viewBox="0 0 375 374.999991" height="500" preserveAspectRatio="xMidYMid meet" version="1.0"><defs><g/><clipPath id="b7fe1b617d"><path d="M 174.011719 57.171875 L 372.761719 57.171875 L 372.761719 246.921875 L 174.011719 246.921875 Z M 174.011719 57.171875 " clip-rule="nonzero"/></clipPath><clipPath id="aef2f84531"><path d="M 181.347656 268.597656 L 206 268.597656 L 206 301.597656 L 181.347656 301.597656 Z M 181.347656 268.597656 " clip-rule="nonzero"/></clipPath></defs><g clip-path="url(#b7fe1b617d)"><path fill="#ffd700" d="M 369.507812 120.488281 C 358.746094 80.855469 326.1875 57.195312 282.410156 57.195312 L 174.015625 57.195312 L 176.152344 62.09375 C 185.339844 83.152344 206.125 96.765625 229.105469 96.773438 L 258.621094 96.773438 L 258.863281 96.765625 C 259.984375 96.6875 264.132812 96.433594 270.347656 96.433594 C 276.328125 96.433594 282.421875 96.667969 288.4375 97.128906 L 289.027344 97.175781 C 312.054688 98.988281 343.609375 105.007812 363.105469 123.363281 L 363.355469 123.597656 C 363.457031 123.695312 363.5625 123.789062 363.65625 123.886719 L 372.9375 133.128906 Z M 372.476562 166.164062 L 372.453125 166.542969 C 366.597656 215.921875 331.726562 246.59375 281.445312 246.59375 L 212.292969 246.59375 L 212.292969 153.109375 L 215.789062 153.109375 C 236.039062 153.109375 252.507812 169.578125 252.507812 189.824219 L 252.507812 206.375 L 283.136719 206.375 C 298.21875 206.375 310.921875 201.421875 319.875 192.050781 C 328.984375 182.511719 333.796875 168.722656 333.796875 152.179688 L 333.796875 151.613281 C 333.796875 138.800781 330.980469 127.757812 325.425781 118.777344 L 320.238281 110.394531 L 329.546875 113.628906 C 341.101562 117.636719 350.472656 122.976562 357.402344 129.503906 C 367.527344 139.039062 372.597656 151.371094 372.476562 166.164062 " fill-opacity="1" fill-rule="nonzero"/></g><g fill="#161a30" fill-opacity="1"><g transform="translate(-6.453704, 249.597593)"><g><path d="M 128.203125 -149.03125 L 128.203125 -79.46875 L 51.363281 -190.28125 C 28.511719 -190.28125 10.109375 -171.679688 10.109375 -149.03125 L 10.109375 1.011719 C 32.960938 1.011719 51.363281 -17.390625 51.363281 -40.242188 L 51.363281 -116.878906 L 128.203125 -13.953125 L 128.203125 1.011719 C 151.050781 1.011719 170.464844 -17.59375 170.464844 -40.441406 L 170.464844 -190.28125 C 147.613281 -190.28125 128.203125 -171.679688 128.203125 -149.03125 Z M 128.203125 -149.03125 "/></g></g></g><g fill="#161a30" fill-opacity="1"><g transform="translate(-1.629654, 302.91604)"><g><path d="M 28.375 0 L 35.34375 0 L 35.34375 -36.46875 L 28.375 -36.46875 L 28.375 -12.125 L 11.484375 -36.46875 L 4.5625 -36.46875 L 4.5625 0 L 11.484375 0 L 11.484375 -24.40625 Z M 28.375 0 "/></g></g></g><g fill="#161a30" fill-opacity="1"><g transform="translate(40.578449, 302.91604)"><g><path d="M 11.484375 -5.421875 L 11.484375 -15.65625 L 24.515625 -15.65625 L 23.390625 -21.1875 L 11.484375 -21.1875 L 11.484375 -31 L 27.40625 -31 L 26.34375 -36.46875 L 4.5625 -36.46875 L 4.5625 0 L 30.09375 0 L 28.96875 -5.421875 Z M 11.484375 -5.421875 "/></g></g></g><g fill="#161a30" fill-opacity="1"><g transform="translate(74.044686, 302.91604)"><g><path d="M 25.640625 0 L 32.9375 0 L 20.921875 -18.1875 L 33.625 -36.46875 L 26.390625 -36.46875 L 17.4375 -22.953125 L 7.234375 -37.546875 L 1.1875 -35.1875 L 13.296875 -18.453125 L 0.53125 0 L 7.671875 0 L 16.84375 -13.734375 Z M 25.640625 0 "/></g></g></g><g fill="#161a30" fill-opacity="1"><g transform="translate(110.514267, 302.91604)"><g><path d="M 4.078125 -13.25 C 4.078125 -10.632812 4.679688 -8.269531 5.890625 -6.15625 C 7.109375 -4.050781 8.84375 -2.398438 11.09375 -1.203125 C 13.351562 -0.00390625 15.96875 0.59375 18.9375 0.59375 C 21.9375 0.59375 24.582031 -0.00390625 26.875 -1.203125 C 29.164062 -2.398438 30.9375 -4.046875 32.1875 -6.140625 C 33.4375 -8.234375 34.0625 -10.601562 34.0625 -13.25 L 34.0625 -36.46875 L 27.03125 -36.46875 L 27.03125 -13.78125 C 27.03125 -10.957031 26.304688 -8.800781 24.859375 -7.3125 C 23.410156 -5.832031 21.472656 -5.09375 19.046875 -5.09375 C 16.609375 -5.09375 14.664062 -5.816406 13.21875 -7.265625 C 11.769531 -8.710938 11.046875 -10.882812 11.046875 -13.78125 L 11.046875 -36.46875 L 4.015625 -36.46875 Z M 4.078125 -13.25 "/></g></g></g><g fill="#161a30" fill-opacity="1"><g transform="translate(150.898918, 302.91604)"><g><path d="M 2.515625 -2.40625 C 3.734375 -1.65625 5.457031 -0.945312 7.6875 -0.28125 C 9.925781 0.375 11.796875 0.703125 13.296875 0.703125 C 16.160156 0.703125 18.617188 0.273438 20.671875 -0.578125 C 22.734375 -1.441406 24.289062 -2.625 25.34375 -4.125 C 26.394531 -5.632812 26.921875 -7.367188 26.921875 -9.328125 C 26.921875 -11.085938 26.5 -12.617188 25.65625 -13.921875 C 24.820312 -15.222656 23.78125 -16.328125 22.53125 -17.234375 C 21.28125 -18.148438 19.597656 -19.21875 17.484375 -20.4375 L 15.9375 -21.34375 L 14.21875 -22.3125 C 12.394531 -23.382812 11.078125 -24.269531 10.265625 -24.96875 C 9.460938 -25.664062 9.0625 -26.535156 9.0625 -27.578125 C 9.0625 -28.785156 9.570312 -29.703125 10.59375 -30.328125 C 11.613281 -30.953125 12.925781 -31.265625 14.53125 -31.265625 C 15.925781 -31.265625 17.222656 -31.066406 18.421875 -30.671875 C 19.617188 -30.285156 20.953125 -29.734375 22.421875 -29.015625 L 24.734375 -34.59375 C 20.941406 -36.414062 17.503906 -37.328125 14.421875 -37.328125 C 11.816406 -37.328125 9.570312 -36.90625 7.6875 -36.0625 C 5.8125 -35.226562 4.375 -34.066406 3.375 -32.578125 C 2.375 -31.097656 1.875 -29.429688 1.875 -27.578125 C 1.875 -25.816406 2.382812 -24.226562 3.40625 -22.8125 C 4.425781 -21.40625 5.640625 -20.179688 7.046875 -19.140625 C 8.460938 -18.109375 10.367188 -16.878906 12.765625 -15.453125 L 14.375 -14.484375 C 16.195312 -13.484375 17.546875 -12.613281 18.421875 -11.875 C 19.296875 -11.144531 19.734375 -10.332031 19.734375 -9.4375 C 19.734375 -8.15625 19.175781 -7.171875 18.0625 -6.484375 C 16.957031 -5.804688 15.335938 -5.46875 13.203125 -5.46875 C 11.804688 -5.46875 10.265625 -5.726562 8.578125 -6.25 C 6.898438 -6.769531 5.398438 -7.367188 4.078125 -8.046875 Z M 2.515625 -2.40625 "/></g></g></g><g fill="#161a30" fill-opacity="1"><g transform="translate(208.174878, 302.91604)"><g><path d="M 18.40625 0 C 23.757812 -0.0703125 27.894531 -1.722656 30.8125 -4.953125 C 33.726562 -8.191406 35.1875 -12.691406 35.1875 -18.453125 C 35.1875 -22.023438 34.566406 -25.160156 33.328125 -27.859375 C 32.097656 -30.566406 30.222656 -32.675781 27.703125 -34.1875 C 25.179688 -35.707031 22.082031 -36.46875 18.40625 -36.46875 L 4.5625 -36.46875 L 4.5625 0 Z M 18.671875 -30.578125 C 21.816406 -30.578125 24.15625 -29.53125 25.6875 -27.4375 C 27.226562 -25.34375 28 -22.347656 28 -18.453125 C 28 -14.085938 27.148438 -10.894531 25.453125 -8.875 C 23.753906 -6.851562 21.367188 -5.84375 18.296875 -5.84375 L 11.484375 -5.84375 L 11.484375 -30.578125 Z M 18.671875 -30.578125 "/></g></g></g><g fill="#161a30" fill-opacity="1"><g transform="translate(247.540539, 302.91604)"><g><path d="M 11.484375 -5.421875 L 11.484375 -15.65625 L 24.515625 -15.65625 L 23.390625 -21.1875 L 11.484375 -21.1875 L 11.484375 -31 L 27.40625 -31 L 26.34375 -36.46875 L 4.5625 -36.46875 L 4.5625 0 L 30.09375 0 L 28.96875 -5.421875 Z M 11.484375 -5.421875 "/></g></g></g><g fill="#161a30" fill-opacity="1"><g transform="translate(281.006777, 302.91604)"><g><path d="M 11.484375 -5.421875 L 11.484375 -15.65625 L 24.515625 -15.65625 L 23.390625 -21.1875 L 11.484375 -21.1875 L 11.484375 -31 L 27.40625 -31 L 26.34375 -36.46875 L 4.5625 -36.46875 L 4.5625 0 L 30.09375 0 L 28.96875 -5.421875 Z M 11.484375 -5.421875 "/></g></g></g><g fill="#161a30" fill-opacity="1"><g transform="translate(314.473018, 302.91604)"><g><path d="M 15.5 -12.71875 C 18.1875 -12.71875 20.65625 -13.15625 22.90625 -14.03125 C 25.15625 -14.90625 26.96875 -16.253906 28.34375 -18.078125 C 29.726562 -19.898438 30.421875 -22.132812 30.421875 -24.78125 C 30.421875 -28.75 29.085938 -31.6875 26.421875 -33.59375 C 23.753906 -35.507812 20.273438 -36.46875 15.984375 -36.46875 L 4.5625 -36.46875 L 4.5625 0 L 11.484375 0 L 11.484375 -12.71875 Z M 15.765625 -30.6875 C 18.160156 -30.6875 19.972656 -30.191406 21.203125 -29.203125 C 22.441406 -28.222656 23.0625 -26.609375 23.0625 -24.359375 C 22.914062 -22.390625 22.21875 -20.910156 20.96875 -19.921875 C 19.71875 -18.941406 18.019531 -18.453125 15.875 -18.453125 L 11.484375 -18.453125 L 11.484375 -30.6875 Z M 15.765625 -30.6875 "/></g></g></g><g clip-path="url(#aef2f84531)"><path fill="#ffd700" d="M 194.257812 299.820312 L 194.257812 294.492188 L 204.5625 286.808594 L 204.5625 292.171875 Z M 182.695312 286.855469 L 192.9375 294.492188 L 192.9375 299.8125 L 182.695312 292.171875 Z M 192.9375 280.300781 L 192.9375 285.59375 L 183.101562 278.257812 L 186.613281 275.582031 Z M 192.9375 278.652344 L 187.707031 274.75 L 192.9375 270.765625 Z M 194.257812 278.652344 L 194.257812 270.757812 L 199.523438 274.722656 Z M 194.257812 280.300781 L 200.632812 275.550781 L 204.160156 278.207031 L 194.257812 285.597656 Z M 182.695312 279.605469 L 192.9375 287.246094 L 192.9375 292.839844 L 182.695312 285.199219 Z M 204.5625 285.152344 L 194.257812 292.839844 L 194.257812 287.246094 L 204.5625 279.558594 Z M 193.597656 268.597656 L 181.367188 277.914062 L 181.367188 292.839844 L 193.597656 301.960938 L 205.890625 292.839844 L 205.890625 277.84375 L 193.597656 268.597656 " fill-opacity="1" fill-rule="nonzero"/></g></svg>