<svg xmlns="http://www.w3.org/2000/svg" xmlns:xlink="http://www.w3.org/1999/xlink" width="500" zoomAndPan="magnify" viewBox="0 0 375 374.999991" height="500" preserveAspectRatio="xMidYMid meet" version="1.0"><defs><clipPath id="61589466c7"><path d="M 47.144531 23.015625 L 218 23.015625 L 218 278 L 47.144531 278 Z M 47.144531 23.015625 " clip-rule="nonzero"/></clipPath><clipPath id="ac5fa3552b"><path d="M 198 108 L 305.894531 108 L 305.894531 352.265625 L 198 352.265625 Z M 198 108 " clip-rule="nonzero"/></clipPath><clipPath id="b218ff6227"><path d="M 246 23.015625 L 301 23.015625 L 301 78 L 246 78 Z M 246 23.015625 " clip-rule="nonzero"/></clipPath></defs><g clip-path="url(#61589466c7)"><path fill="#2ba977" d="M 163.539062 23.015625 L 217.480469 23.015625 L 217.480469 270.09375 C 189.851562 275.316406 169.511719 277.367188 147.507812 277.367188 C 81.628906 277.308594 47.335938 247.894531 47.335938 191.394531 C 47.335938 136.96875 83.710938 101.636719 140.078125 101.636719 C 148.828125 101.636719 155.492188 102.328125 163.539062 104.386719 Z M 165.433594 148.917969 C 159.113281 146.851562 153.910156 146.164062 147.246094 146.164062 C 119.964844 146.164062 104.207031 162.800781 104.207031 191.941406 C 104.207031 220.320312 119.269531 235.996094 146.898438 235.996094 C 152.867188 235.996094 157.726562 235.652344 165.433594 234.621094 Z M 165.433594 148.917969 " fill-opacity="1" fill-rule="nonzero"/></g><g clip-path="url(#ac5fa3552b)"><path fill="#2ba977" d="M 305.6875 108.273438 L 305.6875 231.980469 C 305.6875 274.585938 302.488281 295.078125 293.125 312.734375 C 284.378906 329.722656 272.847656 340.425781 249.035156 352.253906 L 198.992188 328.679688 C 222.804688 317.621094 234.324219 307.847656 241.683594 292.933594 C 249.390625 277.683594 251.820312 260.027344 251.820312 213.5625 L 251.820312 108.273438 Z M 305.6875 108.273438 " fill-opacity="1" fill-rule="nonzero"/></g><g clip-path="url(#b218ff6227)"><path fill="#2ba977" d="M 246.382812 23.015625 L 300.324219 23.015625 L 300.324219 77.789062 L 246.382812 77.789062 Z M 246.382812 23.015625 " fill-opacity="1" fill-rule="nonzero"/></g></svg>