<svg xmlns="http://www.w3.org/2000/svg" xmlns:xlink="http://www.w3.org/1999/xlink" width="500" zoomAndPan="magnify" viewBox="0 0 375 374.999991" height="500" preserveAspectRatio="xMidYMid meet" version="1.0"><path fill="#364548" d="M 195.511719 157.53125 L 233.667969 157.53125 L 233.667969 196.527344 L 252.960938 196.527344 C 261.878906 196.527344 271.027344 194.9375 279.476562 192.078125 C 283.613281 190.675781 288.269531 188.71875 292.359375 186.261719 C 286.976562 179.230469 284.222656 170.363281 283.414062 161.605469 C 282.308594 149.707031 284.71875 134.214844 292.765625 124.898438 L 296.777344 120.261719 L 301.554688 124.105469 C 313.585938 133.765625 323.714844 147.265625 325.488281 162.664062 C 339.972656 158.402344 356.980469 159.414062 369.757812 166.785156 L 375 169.804688 L 372.246094 175.183594 C 361.445312 196.261719 338.871094 202.777344 316.789062 201.628906 C 283.753906 283.878906 211.835938 322.8125 124.636719 322.8125 C 79.589844 322.8125 38.246094 305.980469 14.71875 266.023438 L 14.332031 265.367188 L 10.890625 258.402344 C 2.941406 240.808594 0.296875 221.550781 2.085938 202.296875 L 2.628906 196.527344 L 35.257812 196.527344 L 35.257812 157.53125 L 73.414062 157.53125 L 73.414062 119.390625 L 149.71875 119.390625 L 149.71875 81.253906 L 195.511719 81.253906 Z M 195.511719 157.53125 " fill-opacity="1" fill-rule="nonzero"/><path fill="#22a0c8" d="M 319.125 171.964844 C 321.675781 152.085938 306.800781 136.484375 297.574219 129.066406 C 286.945312 141.355469 285.28125 173.566406 301.976562 187.132812 C 292.671875 195.390625 273.050781 202.886719 252.960938 202.886719 L 8.433594 202.886719 C 6.488281 223.855469 10.160156 243.15625 18.5625 259.675781 L 21.347656 264.761719 C 23.105469 267.75 25.035156 270.640625 27.105469 273.410156 C 37.15625 274.0625 46.429688 274.28125 54.910156 274.09375 C 71.578125 273.722656 85.175781 271.761719 95.476562 268.183594 C 97.03125 267.703125 98.667969 268.574219 99.148438 270.113281 C 99.617188 271.589844 98.839844 273.175781 97.390625 273.722656 C 96.023438 274.203125 94.589844 274.640625 93.113281 275.058594 C 85.003906 277.378906 76.292969 278.933594 65.074219 279.632812 C 65.742188 279.648438 64.371094 279.726562 64.371094 279.726562 C 63.984375 279.757812 63.515625 279.804688 63.128906 279.820312 C 58.707031 280.066406 53.945312 280.113281 49.0625 280.113281 C 43.722656 280.113281 38.480469 280.019531 32.597656 279.710938 L 32.441406 279.804688 C 52.8125 302.699219 84.679688 316.417969 124.605469 316.417969 C 209.113281 316.417969 280.796875 278.964844 312.542969 194.894531 C 335.058594 197.210938 356.703125 191.457031 366.550781 172.246094 C 350.898438 163.238281 330.730469 166.117188 319.125 171.964844 Z M 319.125 171.964844 " fill-opacity="1" fill-rule="nonzero"/><path fill="#37b1d9" d="M 319.125 171.964844 C 321.675781 152.085938 306.800781 136.484375 297.574219 129.066406 C 286.945312 141.355469 285.28125 173.566406 301.976562 187.132812 C 292.671875 195.390625 273.050781 202.886719 252.960938 202.886719 L 22.90625 202.886719 C 21.910156 234.992188 33.828125 259.351562 54.910156 274.09375 C 71.578125 273.722656 85.175781 271.761719 95.476562 268.183594 C 97.03125 267.703125 98.667969 268.574219 99.148438 270.113281 C 99.617188 271.589844 98.839844 273.175781 97.390625 273.722656 C 96.023438 274.203125 94.589844 274.640625 93.113281 275.058594 C 85.003906 277.378906 75.542969 279.132812 64.324219 279.820312 C 64.324219 279.820312 64.0625 279.554688 64.046875 279.554688 C 92.800781 294.300781 134.519531 294.253906 182.320312 275.882812 C 235.921875 255.289062 285.824219 216.078125 320.632812 171.203125 C 320.136719 171.46875 319.621094 171.714844 319.125 171.964844 Z M 319.125 171.964844 " fill-opacity="1" fill-rule="nonzero"/><path fill="#1b81a5" d="M 8.886719 228.351562 C 10.410156 239.582031 13.691406 250.09375 18.5625 259.660156 L 21.347656 264.746094 C 23.105469 267.734375 25.035156 270.625 27.105469 273.394531 C 37.15625 274.046875 46.429688 274.265625 54.910156 274.078125 C 71.578125 273.707031 85.175781 271.746094 95.476562 268.167969 C 97.03125 267.6875 98.667969 268.558594 99.148438 270.097656 C 99.617188 271.574219 98.839844 273.160156 97.390625 273.707031 C 96.023438 274.1875 94.589844 274.625 93.113281 275.042969 C 85.003906 277.363281 75.589844 279.027344 64.371094 279.710938 C 63.984375 279.742188 63.3125 279.742188 62.925781 279.757812 C 58.507812 280.003906 53.792969 280.160156 48.90625 280.160156 C 43.570312 280.160156 38.121094 280.050781 32.257812 279.757812 C 52.625 302.652344 84.679688 316.433594 124.621094 316.433594 C 196.976562 316.433594 259.917969 288.980469 296.453125 228.335938 L 8.886719 228.335938 Z M 8.886719 228.351562 " fill-opacity="1" fill-rule="nonzero"/><path fill="#1d91b4" d="M 25.113281 228.351562 C 29.441406 248.074219 39.835938 263.550781 54.925781 274.078125 C 71.59375 273.707031 85.191406 271.746094 95.492188 268.167969 C 97.046875 267.6875 98.683594 268.558594 99.164062 270.097656 C 99.632812 271.574219 98.855469 273.160156 97.40625 273.707031 C 96.039062 274.1875 94.605469 274.625 93.128906 275.042969 C 85.019531 277.363281 75.421875 279.027344 64.1875 279.710938 C 92.941406 294.457031 134.53125 294.238281 182.335938 275.882812 C 211.261719 264.777344 239.097656 248.242188 264.070312 228.320312 L 25.113281 228.320312 Z M 25.113281 228.351562 " fill-opacity="1" fill-rule="nonzero"/><path fill="#23a3c2" d="M 41.625 163.894531 L 74.6875 163.894531 L 74.6875 196.945312 L 41.625 196.945312 Z M 44.378906 166.644531 L 46.992188 166.644531 L 46.992188 194.191406 L 44.378906 194.191406 Z M 49.277344 166.644531 L 51.988281 166.644531 L 51.988281 194.191406 L 49.277344 194.191406 Z M 54.289062 166.644531 L 56.996094 166.644531 L 56.996094 194.191406 L 54.289062 194.191406 Z M 59.300781 166.644531 L 62.007812 166.644531 L 62.007812 194.191406 L 59.300781 194.191406 Z M 64.308594 166.644531 L 67.019531 166.644531 L 67.019531 194.191406 L 64.308594 194.191406 Z M 69.320312 166.644531 L 71.933594 166.644531 L 71.933594 194.191406 L 69.320312 194.191406 Z M 79.777344 125.753906 L 112.84375 125.753906 L 112.84375 158.804688 L 79.761719 158.804688 Z M 82.53125 128.507812 L 85.144531 128.507812 L 85.144531 156.054688 L 82.53125 156.054688 Z M 87.433594 128.507812 L 90.140625 128.507812 L 90.140625 156.054688 L 87.433594 156.054688 Z M 92.441406 128.507812 L 95.152344 128.507812 L 95.152344 156.054688 L 92.441406 156.054688 Z M 97.453125 128.507812 L 100.160156 128.507812 L 100.160156 156.054688 L 97.453125 156.054688 Z M 102.464844 128.507812 L 105.171875 128.507812 L 105.171875 156.054688 L 102.464844 156.054688 Z M 107.472656 128.507812 L 110.089844 128.507812 L 110.089844 156.054688 L 107.472656 156.054688 Z M 107.472656 128.507812 " fill-opacity="1" fill-rule="nonzero"/><path fill="#34bbde" d="M 79.777344 163.894531 L 112.84375 163.894531 L 112.84375 196.945312 L 79.761719 196.945312 Z M 82.53125 166.644531 L 85.144531 166.644531 L 85.144531 194.191406 L 82.53125 194.191406 Z M 87.433594 166.644531 L 90.140625 166.644531 L 90.140625 194.191406 L 87.433594 194.191406 Z M 92.441406 166.644531 L 95.152344 166.644531 L 95.152344 194.191406 L 92.441406 194.191406 Z M 97.453125 166.644531 L 100.160156 166.644531 L 100.160156 194.191406 L 97.453125 194.191406 Z M 102.464844 166.644531 L 105.171875 166.644531 L 105.171875 194.191406 L 102.464844 194.191406 Z M 107.472656 166.644531 L 110.089844 166.644531 L 110.089844 194.191406 L 107.472656 194.191406 Z M 107.472656 166.644531 " fill-opacity="1" fill-rule="nonzero"/><path fill="#23a3c2" d="M 117.929688 163.894531 L 150.996094 163.894531 L 150.996094 196.945312 L 117.929688 196.945312 Z M 120.683594 166.644531 L 123.296875 166.644531 L 123.296875 194.191406 L 120.683594 194.191406 Z M 125.585938 166.644531 L 128.292969 166.644531 L 128.292969 194.191406 L 125.585938 194.191406 Z M 130.597656 166.644531 L 133.304688 166.644531 L 133.304688 194.191406 L 130.597656 194.191406 Z M 135.605469 166.644531 L 138.3125 166.644531 L 138.3125 194.191406 L 135.605469 194.191406 Z M 140.617188 166.644531 L 143.339844 166.644531 L 143.339844 194.191406 L 140.617188 194.191406 Z M 145.628906 166.644531 L 148.242188 166.644531 L 148.242188 194.191406 L 145.628906 194.191406 Z M 145.628906 166.644531 " fill-opacity="1" fill-rule="nonzero"/><path fill="#34bbde" d="M 117.929688 125.753906 L 150.996094 125.753906 L 150.996094 158.804688 L 117.929688 158.804688 Z M 120.683594 128.507812 L 123.296875 128.507812 L 123.296875 156.054688 L 120.683594 156.054688 Z M 125.585938 128.507812 L 128.292969 128.507812 L 128.292969 156.054688 L 125.585938 156.054688 Z M 130.597656 128.507812 L 133.304688 128.507812 L 133.304688 156.054688 L 130.597656 156.054688 Z M 135.605469 128.507812 L 138.3125 128.507812 L 138.3125 156.054688 L 135.605469 156.054688 Z M 140.617188 128.507812 L 143.339844 128.507812 L 143.339844 156.054688 L 140.617188 156.054688 Z M 145.628906 128.507812 L 148.242188 128.507812 L 148.242188 156.054688 L 145.628906 156.054688 Z M 156.085938 163.894531 L 189.148438 163.894531 L 189.148438 196.945312 L 156.085938 196.945312 Z M 158.839844 166.644531 L 161.453125 166.644531 L 161.453125 194.191406 L 158.839844 194.191406 Z M 163.738281 166.644531 L 166.445312 166.644531 L 166.445312 194.191406 L 163.738281 194.191406 Z M 168.75 166.644531 L 171.457031 166.644531 L 171.457031 194.191406 L 168.75 194.191406 Z M 173.761719 166.644531 L 176.46875 166.644531 L 176.46875 194.191406 L 173.761719 194.191406 Z M 178.769531 166.644531 L 181.476562 166.644531 L 181.476562 194.191406 L 178.769531 194.191406 Z M 183.78125 166.644531 L 186.394531 166.644531 L 186.394531 194.191406 L 183.78125 194.191406 Z M 183.78125 166.644531 " fill-opacity="1" fill-rule="nonzero"/><path fill="#23a3c2" d="M 156.085938 125.753906 L 189.148438 125.753906 L 189.148438 158.804688 L 156.085938 158.804688 Z M 158.839844 128.507812 L 161.453125 128.507812 L 161.453125 156.054688 L 158.839844 156.054688 Z M 163.738281 128.507812 L 166.445312 128.507812 L 166.445312 156.054688 L 163.738281 156.054688 Z M 168.75 128.507812 L 171.457031 128.507812 L 171.457031 156.054688 L 168.75 156.054688 Z M 173.761719 128.507812 L 176.46875 128.507812 L 176.46875 156.054688 L 173.761719 156.054688 Z M 178.769531 128.507812 L 181.476562 128.507812 L 181.476562 156.054688 L 178.769531 156.054688 Z M 183.78125 128.507812 L 186.394531 128.507812 L 186.394531 156.054688 L 183.78125 156.054688 Z M 183.78125 128.507812 " fill-opacity="1" fill-rule="nonzero"/><path fill="#34bbde" d="M 156.085938 87.613281 L 189.148438 87.613281 L 189.148438 120.667969 L 156.085938 120.667969 Z M 158.839844 90.367188 L 161.453125 90.367188 L 161.453125 117.914062 L 158.839844 117.914062 Z M 163.738281 90.367188 L 166.445312 90.367188 L 166.445312 117.914062 L 163.738281 117.914062 Z M 168.75 90.367188 L 171.457031 90.367188 L 171.457031 117.914062 L 168.75 117.914062 Z M 173.761719 90.367188 L 176.46875 90.367188 L 176.46875 117.914062 L 173.761719 117.914062 Z M 178.769531 90.367188 L 181.476562 90.367188 L 181.476562 117.914062 L 178.769531 117.914062 Z M 183.78125 90.367188 L 186.394531 90.367188 L 186.394531 117.914062 L 183.78125 117.914062 Z M 183.78125 90.367188 " fill-opacity="1" fill-rule="nonzero"/><path fill="#23a3c2" d="M 194.238281 163.894531 L 227.304688 163.894531 L 227.304688 196.945312 L 194.238281 196.945312 Z M 196.992188 166.644531 L 199.605469 166.644531 L 199.605469 194.191406 L 196.992188 194.191406 Z M 201.894531 166.644531 L 204.601562 166.644531 L 204.601562 194.191406 L 201.894531 194.191406 Z M 206.902344 166.644531 L 209.609375 166.644531 L 209.609375 194.191406 L 206.902344 194.191406 Z M 211.914062 166.644531 L 214.621094 166.644531 L 214.621094 194.191406 L 211.914062 194.191406 Z M 216.925781 166.644531 L 219.632812 166.644531 L 219.632812 194.191406 L 216.925781 194.191406 Z M 221.933594 166.644531 L 224.546875 166.644531 L 224.546875 194.191406 L 221.933594 194.191406 Z M 221.933594 166.644531 " fill-opacity="1" fill-rule="nonzero"/><path fill="#d3ecec" d="M 110.773438 250.546875 C 115.8125 250.484375 119.953125 254.511719 120.015625 259.550781 C 120.078125 264.589844 116.046875 268.730469 111.007812 268.792969 C 110.929688 268.792969 110.835938 268.792969 110.757812 268.792969 C 105.714844 268.730469 101.6875 264.589844 101.761719 259.550781 C 101.839844 254.589844 105.824219 250.609375 110.773438 250.546875 Z M 110.773438 250.546875 " fill-opacity="1" fill-rule="nonzero"/><path fill="#364548" d="M 110.773438 253.128906 C 111.613281 253.128906 112.40625 253.285156 113.136719 253.5625 C 111.863281 254.308594 111.425781 255.925781 112.171875 257.203125 C 112.65625 258.027344 113.527344 258.523438 114.476562 258.523438 C 115.488281 258.523438 116.359375 257.964844 116.808594 257.140625 C 118.195312 260.46875 116.609375 264.296875 113.277344 265.679688 C 109.949219 267.066406 106.121094 265.476562 104.734375 262.148438 C 103.351562 258.820312 104.9375 254.996094 108.269531 253.609375 C 109.0625 253.300781 109.917969 253.128906 110.773438 253.128906 Z M 110.773438 253.128906 " fill-opacity="1" fill-rule="nonzero"/><path fill="#bdd9d7" d="M 135.015625 316.246094 C 112.421875 305.53125 100.019531 290.957031 93.128906 275.058594 C 84.742188 277.453125 74.640625 278.980469 62.925781 279.648438 C 58.507812 279.898438 53.871094 280.019531 49 280.019531 C 43.382812 280.019531 37.453125 279.851562 31.246094 279.523438 C 51.972656 300.226562 77.457031 316.152344 124.652344 316.449219 C 128.121094 316.449219 131.578125 316.386719 135.015625 316.246094 Z M 135.015625 316.246094 " fill-opacity="1" fill-rule="nonzero"/><path fill="#d3ecec" d="M 101.515625 289.742188 C 98.386719 285.496094 95.351562 280.175781 93.128906 275.058594 C 84.742188 277.453125 74.640625 278.996094 62.925781 279.648438 C 70.984375 284.019531 82.5 288.0625 101.515625 289.742188 Z M 101.515625 289.742188 " fill-opacity="1" fill-rule="nonzero"/></svg>