<svg width="84" height="125" viewBox="0 0 84 125" fill="none" xmlns="http://www.w3.org/2000/svg">
<path d="M20.8333 125C32.3393 125 41.6667 115.673 41.6667 104.167V83.3333H20.8333C9.3274 83.3333 0 92.6606 0 104.167C0 115.673 9.3274 125 20.8333 125Z" fill="#0ACF83"/>
<path d="M0 62.5001C0 50.9941 9.3274 41.6667 20.8333 41.6667H41.6667V83.3334H20.8333C9.3274 83.3334 0 74.006 0 62.5001Z" fill="#A259FF"/>
<path d="M0 20.8333C0 9.3274 9.3274 0 20.8333 0H41.6667V41.6667H20.8333C9.3274 41.6667 0 32.3393 0 20.8333Z" fill="#F24E1E"/>
<path d="M41.6667 0H62.5001C74.006 0 83.3334 9.3274 83.3334 20.8333C83.3334 32.3393 74.006 41.6667 62.5001 41.6667H41.6667V0Z" fill="#FF7262"/>
<path d="M83.3334 62.5001C83.3334 74.006 74.006 83.3334 62.5001 83.3334C50.9941 83.3334 41.6667 74.006 41.6667 62.5001C41.6667 50.9941 50.9941 41.6667 62.5001 41.6667C74.006 41.6667 83.3334 50.9941 83.3334 62.5001Z" fill="#1ABCFE"/>
</svg>
