<svg xmlns="http://www.w3.org/2000/svg" xmlns:xlink="http://www.w3.org/1999/xlink" width="500" zoomAndPan="magnify" viewBox="0 0 375 374.999991" height="500" preserveAspectRatio="xMidYMid meet" version="1.0"><defs><clipPath id="1e1210b91b"><path d="M 41 23.15625 L 334 23.15625 L 334 351.65625 L 41 351.65625 Z M 41 23.15625 " clip-rule="nonzero"/></clipPath></defs><g clip-path="url(#1e1210b91b)"><path fill="#e535ab" d="M 215.449219 61.1875 L 282.832031 100.078125 C 284.734375 98.066406 286.945312 96.296875 289.464844 94.835938 C 303.445312 86.804688 321.265625 91.574219 329.386719 105.542969 C 337.421875 119.511719 332.644531 137.328125 318.664062 145.445312 C 316.171875 146.878906 313.550781 147.902344 310.882812 148.539062 L 310.882812 226.34375 C 313.527344 226.980469 316.113281 228.003906 318.585938 229.429688 C 332.644531 237.535156 337.421875 255.359375 329.296875 269.320312 C 321.265625 283.292969 303.351562 288.0625 289.382812 280.023438 C 286.59375 278.429688 284.175781 276.4375 282.160156 274.171875 L 215.175781 312.820312 C 216.132812 315.714844 216.65625 318.800781 216.65625 322.023438 C 216.65625 338.078125 203.597656 351.207031 187.441406 351.207031 C 171.285156 351.207031 158.230469 338.160156 158.230469 322.023438 C 158.230469 319.152344 158.652344 316.375 159.414062 313.765625 L 92.042969 274.886719 C 90.167969 276.847656 87.980469 278.589844 85.507812 280.023438 C 71.445312 288.0625 53.621094 283.292969 45.585938 269.320312 C 37.550781 255.359375 42.320312 237.535156 56.296875 229.429688 C 58.769531 228.003906 61.359375 226.980469 63.996094 226.34375 L 63.996094 148.539062 C 61.332031 147.902344 58.710938 146.878906 56.214844 145.445312 C 42.238281 137.410156 37.46875 119.511719 45.5 105.542969 C 53.535156 91.574219 71.445312 86.804688 85.421875 94.835938 C 87.921875 96.285156 90.128906 98.046875 92.019531 100.046875 L 159.425781 61.144531 C 158.652344 58.515625 158.230469 55.730469 158.230469 52.84375 C 158.230469 36.699219 171.285156 23.652344 187.441406 23.652344 C 203.597656 23.652344 216.65625 36.699219 216.65625 52.84375 C 216.65625 55.746094 216.234375 58.546875 215.449219 61.1875 Z M 208.417969 73.171875 L 275.972656 112.152344 C 273.886719 119.480469 274.652344 127.609375 278.753906 134.734375 C 282.867188 141.878906 289.566406 146.628906 296.996094 148.472656 L 296.996094 226.375 C 296.617188 226.46875 296.242188 226.570312 295.867188 226.671875 L 207.644531 73.949219 C 207.90625 73.695312 208.167969 73.433594 208.417969 73.171875 Z M 167.265625 73.96875 L 79.039062 226.699219 C 78.660156 226.585938 78.277344 226.484375 77.890625 226.378906 L 77.890625 148.476562 C 85.324219 146.632812 92.023438 141.882812 96.136719 134.738281 C 100.242188 127.597656 101.003906 119.453125 98.898438 112.113281 L 166.433594 73.144531 C 166.707031 73.425781 166.980469 73.699219 167.265625 73.972656 Z M 195.601562 80.886719 L 283.8125 233.574219 C 281.828125 235.453125 280.097656 237.648438 278.664062 240.132812 C 277.25 242.59375 276.222656 245.1875 275.585938 247.832031 L 99.300781 247.832031 C 98.660156 245.1875 97.640625 242.605469 96.21875 240.132812 C 94.785156 237.660156 93.050781 235.488281 91.085938 233.609375 L 179.308594 80.898438 C 181.882812 81.636719 184.617188 82.035156 187.441406 82.035156 C 190.28125 82.035156 193.015625 81.636719 195.601562 80.886719 Z M 209.046875 302.355469 L 276.15625 263.625 C 275.949219 262.988281 275.78125 262.351562 275.621094 261.710938 L 99.265625 261.710938 C 99.167969 262.089844 99.066406 262.464844 98.960938 262.839844 L 166.398438 301.761719 C 171.707031 296.25 179.171875 292.824219 187.441406 292.824219 C 196.011719 292.824219 203.703125 296.503906 209.046875 302.355469 Z M 209.046875 302.355469 " fill-opacity="1" fill-rule="evenodd"/></g></svg>