<svg xmlns="http://www.w3.org/2000/svg" xmlns:xlink="http://www.w3.org/1999/xlink" width="500" zoomAndPan="magnify" viewBox="0 0 375 374.999991" height="500" preserveAspectRatio="xMidYMid meet" version="1.0"><defs><clipPath id="ebb817f2b2"><path d="M 18.4375 18.4375 L 356.6875 18.4375 L 356.6875 356.6875 L 18.4375 356.6875 Z M 18.4375 18.4375 " clip-rule="nonzero"/></clipPath></defs><g clip-path="url(#ebb817f2b2)"><path fill="#005ef4" d="M 28.027344 18.433594 L 347.078125 18.433594 C 347.707031 18.433594 348.332031 18.492188 348.949219 18.617188 C 349.570312 18.738281 350.167969 18.921875 350.75 19.164062 C 351.332031 19.402344 351.886719 19.699219 352.410156 20.050781 C 352.933594 20.398438 353.417969 20.796875 353.863281 21.242188 C 354.308594 21.6875 354.707031 22.171875 355.058594 22.699219 C 355.40625 23.222656 355.703125 23.773438 355.945312 24.355469 C 356.183594 24.9375 356.367188 25.539062 356.488281 26.15625 C 356.613281 26.773438 356.675781 27.398438 356.675781 28.027344 L 356.675781 347.078125 C 356.675781 347.707031 356.613281 348.332031 356.488281 348.949219 C 356.367188 349.570312 356.183594 350.167969 355.945312 350.75 C 355.703125 351.332031 355.40625 351.886719 355.058594 352.410156 C 354.707031 352.933594 354.308594 353.417969 353.863281 353.863281 C 353.417969 354.308594 352.933594 354.707031 352.410156 355.058594 C 351.886719 355.40625 351.332031 355.703125 350.75 355.945312 C 350.167969 356.183594 349.570312 356.367188 348.949219 356.488281 C 348.332031 356.613281 347.707031 356.675781 347.078125 356.675781 L 28.027344 356.675781 C 27.398438 356.675781 26.773438 356.613281 26.15625 356.488281 C 25.539062 356.367188 24.9375 356.183594 24.355469 355.945312 C 23.773438 355.703125 23.222656 355.40625 22.699219 355.058594 C 22.171875 354.707031 21.6875 354.308594 21.242188 353.863281 C 20.796875 353.417969 20.398438 352.933594 20.050781 352.410156 C 19.699219 351.886719 19.402344 351.332031 19.164062 350.75 C 18.921875 350.167969 18.738281 349.570312 18.617188 348.949219 C 18.492188 348.332031 18.433594 347.707031 18.433594 347.078125 L 18.433594 28.027344 C 18.433594 27.398438 18.492188 26.773438 18.617188 26.15625 C 18.738281 25.539062 18.921875 24.9375 19.164062 24.355469 C 19.402344 23.773438 19.699219 23.222656 20.050781 22.699219 C 20.398438 22.171875 20.796875 21.6875 21.242188 21.242188 C 21.6875 20.796875 22.171875 20.398438 22.699219 20.050781 C 23.222656 19.699219 23.773438 19.402344 24.355469 19.164062 C 24.9375 18.921875 25.539062 18.738281 26.15625 18.617188 C 26.773438 18.492188 27.398438 18.433594 28.027344 18.433594 Z M 28.027344 18.433594 " fill-opacity="1" fill-rule="nonzero"/></g><path fill="#ffffff" d="M 280.386719 99.746094 L 280.386719 201.519531 C 255.859375 201.519531 235.976562 181.636719 235.976562 157.109375 L 235.976562 139.34375 L 219.695312 139.34375 C 195.167969 139.34375 175.285156 119.464844 175.285156 94.9375 L 275.574219 94.9375 C 275.890625 94.9375 276.203125 94.96875 276.511719 95.027344 C 276.820312 95.089844 277.121094 95.183594 277.414062 95.304688 C 277.707031 95.421875 277.984375 95.570312 278.246094 95.746094 C 278.507812 95.921875 278.753906 96.121094 278.976562 96.347656 C 279.199219 96.570312 279.398438 96.8125 279.574219 97.074219 C 279.75 97.335938 279.898438 97.613281 280.019531 97.90625 C 280.140625 98.199219 280.230469 98.5 280.292969 98.808594 C 280.355469 99.121094 280.386719 99.433594 280.386719 99.746094 Z M 280.386719 99.746094 " fill-opacity="1" fill-rule="nonzero"/><path fill="#ffffff" d="M 227.464844 152.667969 L 227.464844 254.4375 C 202.9375 254.4375 183.054688 234.554688 183.054688 210.027344 L 183.054688 192.265625 L 166.773438 192.265625 C 142.246094 192.265625 122.363281 172.382812 122.363281 147.855469 L 222.652344 147.855469 C 222.96875 147.855469 223.28125 147.886719 223.589844 147.949219 C 223.902344 148.011719 224.203125 148.101562 224.492188 148.222656 C 224.785156 148.34375 225.0625 148.492188 225.324219 148.667969 C 225.585938 148.84375 225.832031 149.042969 226.054688 149.265625 C 226.277344 149.488281 226.476562 149.734375 226.652344 149.996094 C 226.828125 150.257812 226.976562 150.535156 227.097656 150.828125 C 227.21875 151.117188 227.308594 151.417969 227.371094 151.730469 C 227.433594 152.039062 227.464844 152.351562 227.464844 152.667969 Z M 227.464844 152.667969 " fill-opacity="1" fill-rule="nonzero"/><path fill="#ffffff" d="M 174.542969 205.589844 L 174.542969 307.359375 C 150.015625 307.359375 130.132812 287.476562 130.132812 262.949219 L 130.132812 245.1875 L 113.851562 245.1875 C 89.324219 245.1875 69.441406 225.304688 69.441406 200.777344 L 169.730469 200.777344 C 170.046875 200.777344 170.359375 200.808594 170.671875 200.871094 C 170.980469 200.929688 171.28125 201.023438 171.574219 201.144531 C 171.863281 201.265625 172.140625 201.414062 172.40625 201.589844 C 172.667969 201.761719 172.910156 201.964844 173.132812 202.1875 C 173.355469 202.410156 173.558594 202.652344 173.730469 202.914062 C 173.90625 203.179688 174.054688 203.457031 174.175781 203.746094 C 174.296875 204.039062 174.390625 204.339844 174.449219 204.648438 C 174.511719 204.960938 174.542969 205.273438 174.542969 205.589844 Z M 174.542969 205.589844 " fill-opacity="1" fill-rule="nonzero"/></svg>