<svg xmlns="http://www.w3.org/2000/svg" xmlns:xlink="http://www.w3.org/1999/xlink" width="500" zoomAndPan="magnify" viewBox="0 0 375 374.999991" height="500" preserveAspectRatio="xMidYMid meet" version="1.0"><defs><clipPath id="155b80a627"><path d="M 10 15.570312 L 365 15.570312 L 365 358 L 10 358 Z M 10 15.570312 " clip-rule="nonzero"/></clipPath></defs><g clip-path="url(#155b80a627)"><path fill="#326ce5" d="M 186.398438 15.558594 C 183.207031 15.746094 180.179688 16.546875 177.3125 17.960938 L 54.265625 76.589844 C 47.84375 79.648438 43.171875 85.457031 41.570312 92.382812 L 11.453125 223.96875 C 10.019531 230.144531 11.175781 236.617188 14.765625 241.914062 C 15.183594 242.550781 15.625 243.167969 16.089844 243.765625 L 101.101562 349.355469 C 105.59375 354.867188 112.339844 358.035156 119.449219 358 L 255.796875 358 C 262.929688 358.011719 269.6875 354.691406 274.167969 349.253906 L 359.136719 243.644531 C 363.597656 238.128906 365.265625 230.851562 363.550781 223.945312 L 333.234375 92.253906 C 331.632812 85.328125 326.941406 79.515625 320.539062 76.460938 L 197.691406 17.972656 C 194.097656 16.203125 190.296875 15.398438 186.289062 15.558594 Z M 186.398438 15.558594 " fill-opacity="1" fill-rule="nonzero"/></g><path stroke-linecap="butt" transform="matrix(11.040371, 0, 0, 11.028721, 10.856779, 10.308948)" fill-opacity="1" fill="#ffffff" fill-rule="nonzero" stroke-linejoin="miter" d="M 16.001877 4.542086 C 15.617988 4.569004 15.327151 4.898045 15.346965 5.281986 L 15.346965 5.47006 C 15.36501 5.682928 15.396853 5.894025 15.438957 6.102996 C 15.500521 6.504292 15.522457 6.907359 15.50512 7.312905 C 15.466908 7.44608 15.390838 7.56615 15.28717 7.657885 L 15.271956 7.940174 C 14.866838 7.974176 14.464904 8.036159 14.068985 8.126123 C 12.40287 8.501917 10.886064 9.366138 9.714936 10.611112 L 9.47505 10.441101 C 9.343077 10.481124 9.200843 10.465894 9.079838 10.401078 C 8.754682 10.160229 8.455708 9.890337 8.182917 9.591048 C 8.046344 9.427767 7.900573 9.272632 7.745955 9.125998 L 7.598061 9.008053 C 7.466088 8.90215 7.30404 8.840876 7.134917 8.833084 C 7.032664 8.827417 6.934657 8.845834 6.84125 8.887275 C 6.747489 8.928715 6.668588 8.989281 6.60384 9.068973 C 6.378106 9.385972 6.452053 9.825167 6.76801 10.051847 L 6.905998 10.162 C 7.083613 10.280299 7.267951 10.387973 7.45795 10.48502 C 7.812119 10.681949 8.14612 10.912881 8.456062 11.184898 C 8.536732 11.300363 8.581313 11.428225 8.589097 11.568838 L 8.807047 11.768955 C 7.629904 13.534941 7.146946 15.673887 7.449104 17.774935 L 7.168883 17.854982 C 7.095997 17.971156 6.999052 18.069975 6.883 18.142938 C 6.491327 18.247423 6.093285 18.313302 5.688874 18.339867 C 5.474816 18.344471 5.261466 18.361118 5.049177 18.390161 L 4.871915 18.429831 L 4.852102 18.429831 C 4.790538 18.438685 4.731451 18.455332 4.67484 18.480125 C 4.617876 18.505273 4.565511 18.53715 4.517746 18.576819 C 4.469981 18.616134 4.428585 18.66147 4.393203 18.712473 C 4.357822 18.763476 4.330224 18.818376 4.310057 18.876817 C 4.290243 18.935612 4.278213 18.995824 4.275029 19.057807 C 4.271845 19.11979 4.276798 19.181065 4.290597 19.241277 C 4.304396 19.301843 4.325979 19.359222 4.355699 19.413767 C 4.385066 19.468312 4.421509 19.517544 4.465028 19.562172 C 4.508901 19.606092 4.557727 19.643282 4.611861 19.673742 C 4.665995 19.704556 4.723313 19.72687 4.783461 19.741392 C 4.843964 19.755914 4.905174 19.762289 4.967445 19.75981 C 5.029363 19.75733 5.089865 19.74635 5.148952 19.72687 L 5.162044 19.72687 L 5.342136 19.707036 C 5.544872 19.646823 5.745131 19.573152 5.940083 19.488855 C 6.315127 19.339033 6.70397 19.223922 7.102012 19.148834 C 7.24 19.15698 7.371973 19.204087 7.484132 19.284134 L 7.784167 19.233839 C 8.434126 21.250945 9.799852 22.959906 11.624123 24.036994 L 11.502056 24.29201 C 11.557959 24.408893 11.578834 24.53888 11.561851 24.668159 C 11.396973 25.049974 11.194945 25.415851 10.95895 25.760123 C 10.829454 25.930842 10.710218 26.108291 10.600889 26.292823 L 10.515974 26.473105 C 10.485192 26.526588 10.462194 26.583258 10.44698 26.643116 C 10.431766 26.702974 10.425043 26.76354 10.426812 26.825523 C 10.428228 26.887152 10.438134 26.947364 10.456533 27.006514 C 10.474931 27.065309 10.50076 27.120562 10.534372 27.172628 C 10.567985 27.22434 10.608319 27.270384 10.654669 27.311116 C 10.701019 27.351848 10.751968 27.385496 10.807871 27.412414 C 10.86342 27.438978 10.9218 27.457396 10.982656 27.468022 C 11.043512 27.478293 11.104722 27.480418 11.165932 27.474043 C 11.227496 27.466959 11.286937 27.452083 11.344255 27.428352 C 11.401573 27.404976 11.454645 27.374162 11.503472 27.336263 C 11.552298 27.298011 11.59511 27.254092 11.631553 27.204151 C 11.66835 27.15421 11.697362 27.100019 11.718945 27.041932 L 11.802092 26.871922 C 11.878162 26.672159 11.941849 26.468146 11.993859 26.262009 C 12.171121 25.82494 12.267005 25.355994 12.509014 25.065913 C 12.590038 24.989762 12.685214 24.943363 12.794897 24.926008 L 12.944914 24.652929 C 13.435302 24.841357 13.938427 24.983741 14.454643 25.080435 C 14.97086 25.176774 15.491322 25.225652 16.016737 25.226715 C 16.541799 25.228131 17.062615 25.181733 17.579185 25.087873 C 18.096108 24.994013 18.599941 24.854108 19.091037 24.668159 L 19.224071 24.923175 C 19.359936 24.943009 19.482002 25.018097 19.564087 25.127896 C 19.751963 25.485981 19.904104 25.861067 20.020155 26.247841 C 20.072873 26.455396 20.137622 26.659054 20.214046 26.859171 L 20.296838 27.028827 C 20.318775 27.086914 20.348142 27.140751 20.384938 27.190338 C 20.421381 27.239924 20.464193 27.283843 20.513019 27.321742 C 20.561846 27.35964 20.614918 27.3901 20.672236 27.413477 C 20.729554 27.436499 20.788995 27.451729 20.850205 27.458459 C 20.911769 27.465188 20.972979 27.463417 21.033835 27.453146 C 21.095045 27.443228 21.153425 27.424811 21.209328 27.398601 C 21.26523 27.372391 21.316534 27.338743 21.363237 27.298365 C 21.409941 27.257633 21.449922 27.211589 21.483888 27.159877 C 21.517501 27.108166 21.543329 27.052558 21.561727 26.993409 C 21.579772 26.934259 21.589679 26.873693 21.591094 26.81171 C 21.592509 26.749727 21.585433 26.68916 21.569865 26.628948 C 21.554651 26.56909 21.531299 26.51242 21.500164 26.458938 L 21.413125 26.27901 C 21.303796 26.095186 21.18456 25.918091 21.055064 25.748081 C 20.825084 25.415851 20.626948 25.062017 20.454994 24.690827 C 20.438718 24.622468 20.436595 24.553402 20.448271 24.483981 C 20.460301 24.41456 20.485068 24.350451 20.522926 24.290948 C 20.480468 24.203817 20.443318 24.113853 20.411828 24.022118 C 22.231853 22.936884 23.591918 21.221901 24.235154 19.201962 L 24.518914 19.251903 C 24.621167 19.159105 24.754909 19.109873 24.891835 19.114123 C 25.289169 19.18992 25.678012 19.313886 26.054118 19.454145 C 26.24907 19.544109 26.448975 19.619905 26.652065 19.684013 C 26.69983 19.697118 26.769886 19.708098 26.824019 19.720849 L 26.837111 19.720849 C 26.896198 19.739975 26.956346 19.750601 27.018618 19.75308 C 27.080535 19.755205 27.141745 19.749184 27.201894 19.734308 C 27.262042 19.719432 27.319007 19.697118 27.37314 19.666304 C 27.42692 19.635844 27.475747 19.598654 27.51962 19.55438 C 27.563139 19.510107 27.599936 19.461228 27.629656 19.406683 C 27.659731 19.352492 27.681667 19.295114 27.695466 19.234548 C 27.709619 19.174335 27.71528 19.113061 27.712095 19.051078 C 27.709265 18.989095 27.697589 18.928883 27.678129 18.870087 C 27.657962 18.811292 27.63001 18.756393 27.594629 18.705389 C 27.558893 18.654386 27.517143 18.609404 27.469378 18.569735 C 27.421259 18.53042 27.368895 18.498543 27.31193 18.47375 C 27.254966 18.448957 27.195525 18.43231 27.133961 18.424164 L 26.940071 18.378119 C 26.727782 18.349075 26.514431 18.332429 26.300019 18.328178 C 25.895962 18.301968 25.496151 18.236089 25.105893 18.130895 C 24.98595 18.063953 24.886174 17.964072 24.817888 17.84294 L 24.547927 17.762893 C 24.619398 17.242235 24.643103 16.719453 24.619044 16.194545 C 24.595338 15.669637 24.524221 15.151104 24.405693 14.639301 C 24.287165 14.127144 24.123703 13.630217 23.914598 13.147812 C 23.705493 12.665761 23.454638 12.206378 23.162033 11.770018 L 23.398028 11.551837 C 23.388121 11.41512 23.433055 11.279112 23.521863 11.173918 C 23.828975 10.910047 24.161915 10.676991 24.511838 10.477937 C 24.70219 10.380889 24.886174 10.273215 25.064143 10.154916 L 25.209915 10.036972 C 25.263695 10.003678 25.311814 9.9633 25.354271 9.916547 C 25.396375 9.86944 25.431403 9.817729 25.459355 9.760704 C 25.486952 9.70368 25.506058 9.644176 25.517026 9.581839 C 25.527641 9.519502 25.52941 9.45681 25.522687 9.394119 C 25.515611 9.331073 25.500043 9.270507 25.475984 9.212066 C 25.451924 9.153625 25.420081 9.099434 25.380454 9.050201 C 25.34118 9.000615 25.295538 8.957758 25.243881 8.920922 C 25.192578 8.884441 25.136675 8.855752 25.07688 8.834855 C 25.017439 8.814312 24.955876 8.802269 24.892897 8.798727 C 24.829564 8.795185 24.767292 8.800852 24.705728 8.81502 C 24.644165 8.829188 24.585785 8.851856 24.53059 8.88267 C 24.475395 8.91313 24.425507 8.951029 24.380926 8.99601 L 24.233031 9.113955 C 24.078414 9.26059 23.932642 9.415724 23.79607 9.579005 C 23.532124 9.881128 23.239872 10.155979 22.922854 10.40214 C 22.79265 10.455269 22.657847 10.46979 22.519151 10.44606 L 22.266173 10.625988 C 20.805978 9.095892 18.83912 8.145957 16.73109 7.956112 C 16.73109 7.855877 16.717999 7.706055 16.715876 7.658948 C 16.603009 7.581026 16.524108 7.462019 16.497926 7.327073 C 16.484127 6.922235 16.509602 6.519876 16.573996 6.119997 C 16.617161 5.909963 16.646882 5.699929 16.665988 5.487062 L 16.665988 5.286945 C 16.686155 4.903004 16.396027 4.573963 16.011076 4.547044 Z M 15.167935 9.70793 L 14.968029 13.200941 L 14.953169 13.200941 C 14.942908 13.416996 14.815889 13.601174 14.620937 13.704951 C 14.425984 13.809083 14.194943 13.777914 14.020866 13.651115 L 11.156025 11.620904 C 11.612093 11.173209 12.120525 10.796352 12.681676 10.490687 C 13.243181 10.185022 13.835467 9.962238 14.458889 9.821979 C 14.693115 9.772038 14.92911 9.73414 15.166166 9.70793 Z M 16.836173 9.70793 C 18.340949 9.894942 19.742056 10.571088 20.826146 11.631884 L 17.987841 13.648989 C 17.813056 13.788894 17.57317 13.816875 17.37008 13.72089 C 17.16699 13.624905 17.03714 13.420892 17.033956 13.197044 Z M 10.116163 12.934945 L 12.736164 15.272945 L 12.736164 15.288175 C 12.898918 15.429851 12.970035 15.650865 12.921916 15.861961 C 12.874151 16.073058 12.712104 16.239881 12.505122 16.296905 L 12.505122 16.307177 L 9.143171 17.274112 C 9.101775 16.897964 9.091514 16.521107 9.112743 16.143187 C 9.133618 15.765622 9.185629 15.391953 9.268422 15.022888 C 9.351214 14.653823 9.464081 14.293967 9.606315 13.94332 C 9.748903 13.592673 9.919088 13.256194 10.11687 12.933882 Z M 21.868839 12.934945 C 22.664923 14.229859 23.016969 15.748975 22.870843 17.26207 L 19.503939 16.291947 L 19.503939 16.278842 C 19.294126 16.222171 19.133848 16.054994 19.087145 15.843898 C 19.040087 15.633155 19.110143 15.413912 19.272898 15.270112 L 21.873085 12.943091 Z M 15.465139 15.454998 L 16.536845 15.454998 L 17.192111 16.286988 L 16.953993 17.326886 L 15.990909 17.790165 L 15.026055 17.326886 L 14.798906 16.286988 Z M 18.898915 18.293114 C 18.943849 18.288155 18.999045 18.288155 19.034072 18.293114 L 22.501106 18.877879 C 22.001166 20.318011 21.014022 21.548109 19.726135 22.37089 L 18.385883 19.126874 C 18.376684 19.105269 18.3689 19.083309 18.362531 19.060641 C 18.355809 19.037973 18.350855 19.014951 18.346963 18.991928 C 18.343071 18.968552 18.340949 18.945175 18.339887 18.921799 C 18.338826 18.898068 18.339179 18.874692 18.340949 18.850961 C 18.343071 18.827585 18.346256 18.804562 18.350855 18.781186 C 18.355455 18.758164 18.36147 18.735496 18.368546 18.713182 C 18.375976 18.690868 18.384822 18.668908 18.394728 18.647657 C 18.404635 18.626051 18.415957 18.605508 18.428341 18.585674 C 18.440724 18.565485 18.454169 18.546359 18.46903 18.527941 C 18.483536 18.509523 18.499458 18.492168 18.516087 18.475875 C 18.53307 18.459228 18.550761 18.443998 18.569513 18.429476 C 18.588265 18.414955 18.607371 18.40185 18.627893 18.389807 C 18.64806 18.377765 18.668935 18.367139 18.690518 18.357576 C 18.712101 18.348013 18.734037 18.339867 18.756327 18.332783 C 18.778972 18.326053 18.80197 18.320386 18.824968 18.316136 C 18.848319 18.31224 18.871671 18.309406 18.895023 18.30799 Z M 13.075826 18.30799 C 13.27184 18.310823 13.452993 18.412121 13.559845 18.576111 C 13.667051 18.7401 13.684034 18.945884 13.606902 19.126166 L 13.606902 19.138917 L 12.275142 22.357077 C 10.999993 21.539963 10.031955 20.325095 9.517154 18.899839 L 12.954114 18.316844 C 12.991972 18.312948 13.030891 18.312948 13.070165 18.316844 Z M 15.97994 19.708098 C 16.034782 19.706327 16.088562 19.711994 16.141634 19.725099 C 16.194352 19.738558 16.244594 19.758747 16.292005 19.78602 C 16.339416 19.812938 16.382228 19.846232 16.42044 19.885193 C 16.458652 19.924507 16.490849 19.968073 16.517032 20.015888 L 16.530123 20.015888 L 18.223836 23.072892 L 17.546987 23.273009 C 16.300851 23.558131 14.999873 23.490835 13.789117 23.078913 L 15.488845 20.021909 C 15.592159 19.841981 15.782158 19.731829 15.98914 19.72687 Z M 15.97994 19.708098 " stroke="#ffffff" stroke-width="0.055" stroke-opacity="1" stroke-miterlimit="4"/></svg>