<svg xmlns="http://www.w3.org/2000/svg" xmlns:xlink="http://www.w3.org/1999/xlink" width="500" zoomAndPan="magnify" viewBox="0 0 375 374.999991" height="500" preserveAspectRatio="xMidYMid meet" version="1.0"><path fill="#599636" d="M 186.808594 1.035156 L 196.960938 20.132812 C 199.246094 23.65625 201.71875 26.777344 204.632812 29.683594 C 213.136719 38.195312 221.210938 47.113281 228.464844 56.660156 C 245.671875 79.285156 257.277344 104.40625 265.566406 131.574219 C 270.539062 148.171875 273.238281 165.199219 273.4375 182.414062 C 274.273438 233.886719 256.648438 278.082031 221.113281 314.8125 C 215.3125 320.625 209.105469 326.003906 202.445312 330.792969 C 198.925781 330.792969 197.257812 328.089844 195.808594 325.601562 C 193.109375 321.039062 191.457031 315.835938 190.625 310.65625 C 189.375 304.429688 188.554688 298.203125 188.960938 291.773438 L 188.960938 288.871094 C 188.671875 288.25 185.570312 2.5 186.808594 1.035156 Z M 186.808594 1.035156 " fill-opacity="1" fill-rule="nonzero"/><path fill="#6cac48" d="M 186.808594 0.40625 C 186.390625 -0.429688 185.972656 0.203125 185.558594 0.605469 C 185.761719 4.773438 184.308594 8.488281 182.039062 12.039062 C 179.539062 15.5625 176.234375 18.265625 172.917969 21.167969 C 154.484375 37.148438 139.976562 56.449219 128.359375 78.035156 C 112.898438 107.085938 104.929688 138.21875 102.671875 170.996094 C 101.636719 182.820312 106.40625 224.539062 110.128906 236.578125 C 120.285156 268.535156 138.527344 295.3125 162.15625 318.550781 C 167.957031 324.148438 174.164062 329.339844 180.585938 334.328125 C 182.453125 334.328125 182.65625 332.660156 183.085938 331.421875 C 183.902344 328.769531 184.527344 326.070312 184.953125 323.324219 L 189.113281 292.203125 Z M 186.808594 0.40625 " fill-opacity="1" fill-rule="nonzero"/><path fill="#c2bfbf" d="M 196.960938 343.4375 C 197.378906 338.671875 199.660156 334.71875 202.148438 330.78125 C 199.648438 329.742188 197.796875 327.683594 196.34375 325.386719 C 195.09375 323.3125 194.0625 320.824219 193.253906 318.539062 C 190.351562 309.824219 189.730469 300.679688 188.898438 291.773438 L 188.898438 286.382812 C 187.863281 287.214844 187.652344 294.261719 187.652344 295.3125 C 187.046875 304.734375 185.800781 314.074219 183.917969 323.324219 C 183.296875 327.066406 182.882812 330.792969 180.585938 334.113281 C 180.585938 334.53125 180.585938 334.945312 180.789062 335.566406 C 184.523438 346.566406 185.546875 357.769531 186.175781 369.1875 L 186.175781 373.355469 C 186.175781 378.332031 185.972656 377.285156 190.101562 378.953125 C 191.765625 379.570312 193.621094 379.785156 195.285156 381.023438 C 196.535156 381.023438 196.738281 379.988281 196.738281 379.15625 L 196.117188 372.308594 L 196.117188 353.210938 C 195.914062 349.878906 196.535156 346.566406 196.949219 343.449219 Z M 196.960938 343.4375 " fill-opacity="1" fill-rule="nonzero"/></svg>