<svg xmlns="http://www.w3.org/2000/svg" xmlns:xlink="http://www.w3.org/1999/xlink" width="500" zoomAndPan="magnify" viewBox="0 0 375 374.999991" height="500" preserveAspectRatio="xMidYMid meet" version="1.0"><defs><clipPath id="fb8d9abb68"><path d="M 195 101.152344 L 279 101.152344 L 279 245 L 195 245 Z M 195 101.152344 " clip-rule="nonzero"/></clipPath></defs><path fill="#388e3c" d="M 136.433594 154.847656 L 99.445312 175.316406 C 98.058594 176.078125 97.203125 177.496094 97.203125 179.023438 L 97.203125 219.984375 C 97.203125 221.515625 98.058594 222.925781 99.445312 223.695312 L 136.441406 244.179688 C 137.820312 244.941406 139.53125 244.941406 140.910156 244.179688 L 177.898438 223.695312 C 179.273438 222.925781 180.125 221.515625 180.125 219.984375 L 180.125 179.023438 C 180.125 177.496094 179.273438 176.085938 177.886719 175.316406 L 140.902344 154.847656 C 140.210938 154.460938 139.433594 154.273438 138.664062 154.273438 C 137.886719 154.273438 137.117188 154.460938 136.425781 154.847656 M 326.746094 191.722656 L 320.582031 195.128906 C 320.347656 195.257812 320.210938 195.492188 320.210938 195.746094 L 320.210938 202.578125 C 320.210938 202.835938 320.355469 203.066406 320.582031 203.195312 L 326.746094 206.613281 C 326.980469 206.738281 327.257812 206.738281 327.492188 206.613281 L 333.660156 203.195312 C 333.886719 203.066406 334.027344 202.835938 334.027344 202.578125 L 334.027344 195.746094 C 334.027344 195.492188 333.886719 195.257812 333.652344 195.128906 L 327.484375 191.722656 C 327.371094 191.652344 327.246094 191.625 327.117188 191.625 C 326.988281 191.625 326.859375 191.652344 326.746094 191.722656 " fill-opacity="1" fill-rule="nonzero"/><g clip-path="url(#fb8d9abb68)"><path fill="#37474f" d="M 276.242188 111.4375 L 258.234375 101.386719 C 257.667969 101.070312 256.972656 101.078125 256.417969 101.410156 C 255.859375 101.738281 255.511719 102.335938 255.511719 102.984375 L 255.503906 163.691406 L 238.898438 154.5 C 238.203125 154.117188 237.429688 153.925781 236.660156 153.925781 C 235.890625 153.925781 235.113281 154.117188 234.421875 154.5 L 234.429688 154.5 L 197.4375 174.96875 C 196.050781 175.730469 195.199219 177.148438 195.199219 178.671875 L 195.199219 219.632812 C 195.199219 221.164062 196.050781 222.570312 197.4375 223.339844 L 234.4375 243.824219 C 235.816406 244.585938 237.527344 244.585938 238.90625 243.824219 L 275.894531 223.339844 C 277.265625 222.578125 278.117188 221.164062 278.117188 219.632812 L 278.117188 114.632812 C 278.117188 113.304688 277.394531 112.085938 276.242188 111.4375 Z M 254.496094 210.15625 L 237.683594 219.464844 C 237.058594 219.8125 236.28125 219.8125 235.65625 219.464844 L 218.839844 210.15625 C 218.199219 209.808594 217.8125 209.160156 217.8125 208.464844 L 217.8125 189.84375 C 217.8125 189.152344 218.199219 188.507812 218.832031 188.15625 L 235.648438 178.851562 L 235.640625 178.851562 C 235.957031 178.679688 236.304688 178.59375 236.660156 178.59375 C 237.011719 178.59375 237.359375 178.6875 237.675781 178.851562 L 254.488281 188.15625 C 255.121094 188.507812 255.503906 189.15625 255.503906 189.851562 L 255.503906 208.472656 C 255.503906 209.160156 255.121094 209.808594 254.496094 210.15625 Z M 254.496094 210.15625 " fill-opacity="1" fill-rule="nonzero"/></g><path fill="#2e7d32" d="M 136.433594 154.847656 L 97.203125 219.984375 C 97.203125 221.515625 98.058594 222.925781 99.445312 223.695312 L 136.441406 244.179688 C 137.820312 244.941406 139.53125 244.941406 140.910156 244.179688 L 180.125 179.023438 C 180.125 177.496094 179.273438 176.085938 177.886719 175.316406 L 140.902344 154.847656 C 140.210938 154.460938 139.433594 154.273438 138.664062 154.273438 C 137.886719 154.273438 137.117188 154.460938 136.425781 154.847656 " fill-opacity="1" fill-rule="nonzero"/><path fill="#4caf50" d="M 136.433594 154.847656 L 99.445312 175.316406 C 98.058594 176.078125 97.203125 177.496094 97.203125 179.023438 L 136.433594 244.179688 C 137.8125 244.941406 139.523438 244.941406 140.902344 244.179688 L 177.890625 223.695312 C 179.273438 222.925781 180.125 221.515625 180.125 219.984375 L 140.902344 154.847656 C 140.210938 154.460938 139.433594 154.273438 138.664062 154.273438 C 137.886719 154.273438 137.117188 154.460938 136.425781 154.847656 " fill-opacity="1" fill-rule="nonzero"/><path fill="#37474f" d="M 366.335938 174.96875 L 329.355469 154.5 C 328.660156 154.117188 327.886719 153.925781 327.117188 153.925781 C 326.347656 153.925781 325.570312 154.117188 324.878906 154.5 L 324.886719 154.5 L 287.894531 174.96875 C 286.515625 175.730469 285.65625 177.179688 285.65625 178.761719 L 285.65625 219.554688 C 285.65625 221.132812 286.515625 222.585938 287.894531 223.347656 L 324.890625 243.832031 C 326.28125 244.601562 327.976562 244.601562 329.363281 243.832031 L 346.421875 234.386719 C 347.980469 233.519531 347.972656 231.28125 346.40625 230.421875 L 309.289062 210.164062 C 308.664062 209.808594 308.269531 209.152344 308.269531 208.445312 L 308.269531 189.851562 C 308.269531 189.15625 308.648438 188.515625 309.25 188.183594 L 326.097656 178.867188 L 326.089844 178.867188 C 326.40625 178.695312 326.753906 178.609375 327.109375 178.609375 C 327.464844 178.609375 327.808594 178.699219 328.125 178.867188 L 344.972656 188.191406 C 345.578125 188.523438 345.953125 189.164062 345.953125 189.859375 L 345.953125 205.027344 C 345.953125 205.675781 346.300781 206.28125 346.867188 206.605469 C 347.429688 206.921875 348.125 206.921875 348.691406 206.597656 L 366.765625 196.09375 C 367.882812 195.445312 368.574219 194.246094 368.574219 192.949219 L 368.574219 178.777344 C 368.574219 177.1875 367.714844 175.730469 366.335938 174.96875 Z M 87.429688 174.96875 L 50.445312 154.5 C 49.753906 154.117188 48.976562 153.925781 48.207031 153.925781 C 47.4375 153.925781 46.660156 154.117188 45.96875 154.5 L 45.976562 154.5 L 8.988281 174.96875 C 7.605469 175.730469 6.746094 177.179688 6.746094 178.761719 L 6.746094 235.042969 C 6.746094 235.691406 7.09375 236.292969 7.660156 236.617188 C 8.226562 236.933594 8.917969 236.933594 9.484375 236.609375 L 27.5625 226.109375 C 28.675781 225.460938 29.363281 224.261719 29.363281 222.964844 L 29.363281 189.84375 C 29.363281 189.152344 29.738281 188.507812 30.34375 188.179688 L 47.191406 178.859375 C 47.507812 178.6875 47.851562 178.601562 48.207031 178.601562 C 48.5625 178.601562 48.910156 178.695312 49.226562 178.859375 L 66.074219 188.183594 C 66.675781 188.515625 67.050781 189.15625 67.050781 189.851562 L 67.050781 222.972656 C 67.050781 224.269531 67.738281 225.46875 68.863281 226.117188 L 86.9375 236.617188 C 87.503906 236.941406 88.195312 236.941406 88.761719 236.625 C 89.320312 236.292969 89.667969 235.691406 89.667969 235.042969 L 89.667969 178.769531 C 89.667969 177.1875 88.808594 175.730469 87.429688 174.96875 Z M 87.429688 174.96875 " fill-opacity="1" fill-rule="nonzero"/></svg>