<svg xmlns="http://www.w3.org/2000/svg" xmlns:xlink="http://www.w3.org/1999/xlink" width="500" zoomAndPan="magnify" viewBox="0 0 375 374.999991" height="500" preserveAspectRatio="xMidYMid meet" version="1.0"><defs><clipPath id="cda23dd02f"><path d="M 23 13.773438 L 353.9375 13.773438 L 353.9375 359 L 23 359 Z M 23 13.773438 " clip-rule="nonzero"/></clipPath></defs><path fill="#000000" d="M 331.035156 227.820312 C 331.035156 227.839844 331.023438 227.847656 331.007812 227.847656 C 330.988281 227.847656 330.976562 227.839844 330.976562 227.820312 C 330.976562 227.800781 330.988281 227.792969 331.007812 227.792969 C 331.023438 227.792969 331.035156 227.800781 331.035156 227.820312 Z M 331.035156 227.820312 " fill-opacity="1" fill-rule="nonzero"/><path fill="#32648d" d="M 288.496094 225.09375 L 288.523438 225.121094 L 288.523438 225.136719 L 288.480469 225.152344 C 286.398438 225.910156 284.675781 226.226562 283.226562 226.871094 C 281.75 227.460938 280.558594 228.539062 279.855469 229.914062 L 279.839844 229.945312 C 278.949219 231.59375 278.175781 234.519531 278.40625 239.5 C 278.992188 239.929688 279.710938 240.261719 280.441406 240.488281 L 280.5 240.503906 C 282.925781 241.25 286.988281 241.738281 291.523438 241.667969 C 300.566406 241.566406 311.703125 239.429688 317.613281 236.644531 C 322.710938 234.21875 327.074219 231.292969 330.964844 227.820312 C 311.214844 231.953125 300.0625 230.847656 293.214844 227.992188 C 291.4375 227.21875 289.871094 226.253906 288.496094 225.09375 Z M 288.496094 225.09375 " fill-opacity="1" fill-rule="nonzero"/><path fill="#32648d" d="M 268.242188 73.335938 L 268.328125 73.464844 L 268.429688 73.582031 Z M 268.242188 73.335938 " fill-opacity="1" fill-rule="nonzero"/><path fill="#32648d" d="M 192.707031 290.699219 C 192.691406 290.339844 192.707031 289.964844 192.691406 289.605469 C 192.691406 289.464844 192.679688 289.363281 192.679688 289.21875 Z M 192.707031 290.699219 " fill-opacity="1" fill-rule="nonzero"/><path fill="#32648d" d="M 177.566406 227.375 C 176.734375 226.957031 175.757812 226.65625 174.707031 226.515625 L 174.664062 226.515625 L 174.664062 226.484375 L 174.363281 226.484375 C 173.617188 226.558594 172.527344 226.816406 170.402344 229.183594 C 165.464844 234.777344 163.742188 238.292969 159.667969 241.582031 C 155.589844 244.851562 150.308594 246.601562 139.746094 248.796875 C 136.402344 249.488281 134.480469 250.246094 133.214844 250.863281 C 133.632812 251.207031 133.589844 251.296875 134.207031 251.625 C 135.757812 252.484375 137.738281 253.246094 139.34375 253.664062 C 143.878906 254.808594 151.34375 256.144531 159.121094 254.808594 C 166.902344 253.460938 174.996094 249.6875 181.898438 239.886719 C 183.089844 238.195312 183.21875 235.699219 182.242188 233.015625 C 181.269531 230.332031 179.085938 228.019531 177.566406 227.375 Z M 177.566406 227.375 " fill-opacity="1" fill-rule="nonzero"/><path fill="#32648d" d="M 235.519531 35.324219 L 234.703125 35.484375 C 234.972656 35.425781 235.277344 35.398438 235.546875 35.339844 C 235.535156 35.339844 235.535156 35.324219 235.519531 35.324219 Z M 235.519531 35.324219 " fill-opacity="1" fill-rule="nonzero"/><path fill="#32648d" d="M 275.449219 112.78125 C 265.816406 112.910156 260.421875 115.421875 257.578125 118.707031 C 253.5625 123.371094 253.1875 131.550781 255.683594 141.625 C 258.167969 151.710938 263.292969 162.988281 268.113281 172.359375 C 270.523438 177.050781 272.863281 181.269531 274.746094 184.699219 C 276.640625 188.144531 278.03125 190.582031 278.878906 192.664062 C 279.652344 194.585938 280.527344 196.28125 281.402344 197.859375 C 285.136719 189.894531 285.796875 182.074219 285.421875 173.925781 C 284.933594 163.835938 282.609375 153.519531 282.953125 143.074219 C 283.34375 130.863281 285.722656 122.914062 285.925781 113.472656 C 282.78125 113.039062 279.136719 112.78125 275.449219 112.78125 Z M 277.226562 120.042969 L 277.214844 120.15625 C 277.214844 120.199219 277.214844 120.242188 277.214844 120.300781 C 277.214844 120.960938 277.027344 121.59375 276.695312 122.109375 L 276.710938 122.09375 C 276.265625 122.914062 275.75 123.628906 275.148438 124.246094 C 273.738281 125.8125 271.859375 126.902344 269.734375 127.273438 L 269.679688 127.289062 C 269.378906 127.332031 269.03125 127.347656 268.671875 127.347656 C 266.867188 127.347656 265.199219 126.773438 263.835938 125.796875 L 263.867188 125.8125 C 263.164062 125.324219 262.546875 124.765625 262.042969 124.132812 L 262.027344 124.117188 C 261.582031 123.628906 261.269531 123 261.140625 122.324219 L 261.140625 122.296875 C 261.140625 122.222656 261.125 122.152344 261.125 122.082031 C 261.125 121.464844 261.355469 120.890625 261.742188 120.460938 C 262.199219 119.929688 262.746094 119.496094 263.378906 119.183594 L 263.40625 119.167969 C 264.769531 118.394531 266.605469 117.820312 268.6875 117.503906 C 269.464844 117.386719 270.238281 117.332031 270.957031 117.316406 L 270.957031 117.359375 L 271.660156 117.359375 C 272.59375 117.386719 273.453125 117.488281 274.214844 117.675781 C 274.972656 117.847656 275.632812 118.105469 276.164062 118.464844 C 276.695312 118.824219 277.097656 119.367188 277.226562 120.042969 Z M 277.226562 120.042969 " fill-opacity="1" fill-rule="nonzero"/><path fill="#32648d" d="M 117.5 176.019531 C 117.5 173.4375 117.703125 170.910156 118.074219 168.429688 L 118.046875 168.699219 C 119.507812 158.097656 119.710938 148.183594 119.539062 140.347656 C 119.367188 132.714844 118.820312 127.632812 118.820312 124.460938 C 118.820312 124.417969 118.820312 124.375 118.820312 124.332031 C 118.820312 124.289062 118.820312 124.234375 118.820312 124.191406 L 118.820312 124.117188 L 118.804688 124.03125 L 118.804688 124.019531 C 118.804688 123.988281 118.804688 123.976562 118.804688 123.945312 C 118.804688 106.957031 121.792969 90.671875 127.203125 75.5625 C 131.179688 64.886719 137.089844 54.050781 145.945312 45.269531 C 137.234375 42.371094 121.792969 37.953125 105.058594 37.121094 C 103.449219 37.03125 101.570312 36.976562 99.6875 36.976562 L 99.675781 36.976562 L 99.675781 36.988281 C 97.878906 36.988281 96.074219 37.046875 94.292969 37.148438 C 79.96875 37.980469 66.421875 42.183594 56.746094 52.574219 C 47.042969 62.960938 40.65625 79.996094 42.050781 108.191406 C 42.324219 113.527344 44.617188 128.480469 48.550781 146.246094 C 52.5 164.007812 58.054688 184.914062 64.742188 203.382812 C 71.445312 221.851562 79.566406 237.921875 87.289062 245.527344 C 91.179688 249.328125 94.550781 250.863281 97.609375 250.734375 C 100.679688 250.59375 104.382812 248.796875 108.902344 243.300781 C 117.789062 232.484375 126.183594 222.914062 134.851562 213.613281 L 134.566406 213.914062 C 124.089844 204.660156 117.5 191.128906 117.5 176.019531 Z M 117.5 176.019531 " fill-opacity="1" fill-rule="nonzero"/><path fill="#32648d" d="M 193.839844 36.273438 L 193.839844 36.242188 C 177.078125 36.285156 165.0625 41.410156 155.9375 49.085938 C 146.535156 57.023438 140.234375 67.882812 136.085938 79.003906 C 131.164062 92.207031 129.484375 104.976562 128.808594 113.644531 L 128.996094 113.527344 C 134.0625 110.660156 140.707031 107.789062 147.828125 106.125 C 154.945312 104.460938 162.609375 103.957031 169.554688 106.683594 C 176.503906 109.410156 182.242188 115.824219 184.324219 125.554688 C 194.300781 172.289062 181.226562 189.664062 176.402344 202.78125 C 174.867188 206.554688 173.273438 211.40625 171.9375 216.355469 L 171.710938 217.316406 C 172.3125 217.171875 172.929688 217 173.53125 216.941406 C 176.933594 216.65625 179.601562 217.804688 181.183594 218.492188 C 186.03125 220.53125 189.363281 224.804688 191.15625 229.683594 C 191.628906 230.960938 191.960938 232.339844 192.160156 233.761719 C 192.347656 234.25 192.449219 234.820312 192.449219 235.410156 C 192.449219 235.46875 192.449219 235.523438 192.449219 235.582031 C 192.21875 242.757812 192.074219 251.179688 192.074219 259.644531 C 192.074219 269.675781 192.277344 279.664062 192.648438 289.605469 C 192.980469 297.15625 193.453125 303.839844 194.042969 309.109375 C 194.660156 314.472656 195.519531 318.535156 196.066406 319.914062 C 197.875 324.503906 200.527344 330.515625 205.324219 334.605469 C 210.117188 338.679688 216.992188 341.40625 229.550781 338.679688 C 240.441406 336.3125 247.160156 333.027344 251.652344 328.308594 C 256.144531 323.585938 258.8125 317.015625 260.523438 306.957031 C 263.089844 291.890625 268.242188 248.195312 268.875 239.972656 C 268.585938 233.773438 269.492188 229.011719 271.457031 225.378906 C 273.46875 221.648438 276.597656 219.367188 279.28125 218.132812 C 280.628906 217.515625 281.890625 217.101562 282.925781 216.800781 C 281.664062 214.976562 280.527344 213.457031 279.351562 211.976562 L 279.480469 212.136719 C 275.765625 207.601562 272.59375 202.394531 270.195312 196.78125 L 270.039062 196.367188 C 268.585938 193.367188 267.367188 191.101562 266.089844 188.875 L 266.390625 189.4375 C 264.511719 185.992188 262.128906 181.6875 259.632812 176.851562 C 254.636719 167.164062 249.210938 155.429688 246.382812 143.992188 C 243.570312 132.570312 243.167969 120.746094 250.375 112.410156 C 256.746094 105.003906 267.957031 101.933594 284.761719 103.65625 C 284.273438 102.148438 283.972656 100.902344 283.125 98.890625 C 279.035156 89.277344 274.113281 80.984375 268.273438 73.464844 C 254.019531 55.070312 230.984375 36.859375 195.417969 36.273438 Z M 193.839844 36.273438 " fill-opacity="1" fill-rule="nonzero"/><path fill="#32648d" d="M 128.609375 125.265625 L 128.636719 125.25 L 128.679688 125.207031 Z M 128.609375 125.265625 " fill-opacity="1" fill-rule="nonzero"/><path fill="#32648d" d="M 149.707031 115.550781 L 149.851562 115.539062 L 149.964844 115.496094 Z M 149.707031 115.550781 " fill-opacity="1" fill-rule="nonzero"/><path fill="#32648d" d="M 167.488281 199.410156 C 173.246094 183.710938 184.570312 172.257812 175.039062 127.578125 C 173.472656 120.257812 170.390625 117.300781 166.140625 115.636719 C 164.074219 114.878906 161.675781 114.433594 159.164062 114.433594 C 159.007812 114.433594 158.835938 114.433594 158.675781 114.433594 L 158.707031 114.433594 C 155.648438 114.460938 152.691406 114.847656 149.851562 115.539062 C 143.824219 117.058594 138.511719 119.210938 133.574219 121.964844 C 131.722656 122.984375 130.128906 124.046875 128.636719 125.238281 L 128.363281 125.496094 C 128.453125 127.589844 128.851562 132.671875 129.023438 140.144531 C 129.199219 148.324219 128.996094 158.757812 127.433594 170.050781 C 124.046875 194.585938 141.640625 214.90625 162.308594 214.933594 C 163.527344 209.898438 165.507812 204.789062 167.488281 199.410156 Z M 155.277344 128.105469 C 154.601562 127.417969 154.054688 126.644531 153.609375 125.796875 L 153.582031 125.738281 C 153.210938 125.136719 152.992188 124.40625 152.992188 123.617188 C 152.992188 123.472656 153.007812 123.328125 153.023438 123.1875 L 153.023438 123.199219 C 153.238281 121.648438 154.5 120.847656 155.71875 120.402344 C 156.855469 120.027344 158.117188 119.8125 159.464844 119.8125 C 159.667969 119.8125 159.867188 119.8125 160.097656 119.828125 L 160.082031 119.769531 C 160.832031 119.769531 161.632812 119.84375 162.4375 119.957031 C 164.605469 120.257812 166.542969 120.847656 168.007812 121.707031 C 168.738281 122.109375 169.371094 122.613281 169.871094 123.214844 L 169.886719 123.230469 C 170.375 123.789062 170.660156 124.519531 170.660156 125.339844 C 170.660156 125.453125 170.660156 125.566406 170.648438 125.683594 L 170.648438 125.667969 C 170.503906 126.527344 170.117188 127.273438 169.585938 127.878906 C 168.996094 128.59375 168.335938 129.210938 167.589844 129.730469 L 167.5625 129.742188 C 166.113281 130.804688 164.289062 131.4375 162.324219 131.4375 C 161.933594 131.4375 161.546875 131.40625 161.175781 131.363281 L 161.21875 131.363281 C 158.835938 130.960938 156.796875 129.785156 155.277344 128.105469 Z M 155.277344 128.105469 " fill-opacity="1" fill-rule="nonzero"/><path fill="#32648d" d="M 133.289062 122.109375 C 133.386719 122.050781 133.488281 122.023438 133.574219 121.964844 C 133.589844 121.964844 133.605469 121.953125 133.617188 121.9375 Z M 133.289062 122.109375 " fill-opacity="1" fill-rule="nonzero"/><path fill="#32648d" d="M 275.921875 67.609375 C 282.136719 75.574219 287.519531 84.644531 291.667969 94.371094 L 291.96875 95.160156 C 293.53125 98.949219 294.578125 102.148438 295.167969 104.632812 C 295.46875 105.878906 295.671875 106.929688 295.742188 108.019531 C 295.769531 108.5625 295.800781 109.125 295.570312 110.085938 C 295.570312 110.128906 295.5 110.226562 295.484375 110.269531 C 295.914062 122.839844 292.828125 131.363281 292.46875 143.359375 C 292.183594 152.054688 294.378906 162.273438 294.925781 173.421875 C 295.441406 183.898438 294.191406 195.40625 287.460938 206.699219 C 288.035156 207.386719 288.539062 208.074219 289.082031 208.765625 C 306.867188 180.425781 319.683594 149.070312 326.515625 122.339844 C 330.171875 107.945312 332.109375 94.902344 332.285156 84.570312 C 332.425781 74.242188 330.519531 66.75 328.105469 63.621094 C 309.074219 39 283.34375 32.726562 261.757812 32.554688 L 261.757812 32.570312 L 259.6875 32.570312 C 251.363281 32.699219 243.328125 33.660156 235.5625 35.339844 C 253.1875 43.261719 266.535156 55.457031 275.921875 67.609375 Z M 275.921875 67.609375 " fill-opacity="1" fill-rule="nonzero"/><g clip-path="url(#cda23dd02f)"><path fill="#000000" d="M 196.207031 17.476562 L 196.066406 17.476562 C 179.359375 17.1875 165.019531 21.292969 153.4375 28.121094 C 142.042969 24.117188 118.40625 17.21875 93.472656 18.59375 C 76.121094 19.554688 57.175781 24.894531 43.140625 39.886719 C 29.148438 54.882812 21.753906 78.085938 23.304688 109.65625 C 23.738281 118.363281 26.191406 132.570312 30.253906 150.964844 C 34.328125 169.359375 40.039062 190.898438 47.171875 210.542969 C 54.308594 230.203125 62.113281 247.851562 74.328125 259.847656 C 80.429688 265.859375 88.824219 270.910156 98.714844 270.496094 C 105.660156 270.207031 111.933594 267.121094 117.355469 262.574219 C 119.996094 266.089844 122.8125 267.625 125.378906 269.046875 C 128.609375 270.839844 131.753906 272.058594 135.011719 272.863281 C 140.867188 274.339844 150.882812 276.320312 162.625 274.296875 C 166.628906 273.621094 170.832031 272.300781 175.023438 270.421875 C 175.183594 275.15625 175.367188 279.792969 175.542969 284.484375 C 176.128906 299.351562 176.488281 313.082031 180.894531 325.121094 C 181.597656 327.085938 183.550781 337.21875 191.199219 346.15625 C 198.847656 355.109375 213.863281 360.691406 230.941406 356.992188 C 242.996094 354.378906 258.3125 349.671875 268.5 335.007812 C 278.5625 320.515625 283.097656 299.722656 284.003906 266.003906 C 284.230469 264.179688 284.503906 262.628906 284.777344 261.179688 L 287.175781 261.398438 L 287.460938 261.398438 C 300.320312 261.984375 314.269531 260.132812 325.925781 254.652344 C 336.246094 249.816406 344.050781 244.925781 349.75 236.242188 C 351.171875 234.089844 352.722656 231.492188 353.152344 227.015625 C 353.582031 222.539062 351.042969 215.535156 346.824219 212.308594 C 338.382812 205.824219 333.085938 208.289062 327.402344 209.480469 C 322.335938 210.671875 316.480469 211.417969 310.480469 211.578125 L 310.367188 211.578125 C 326.757812 183.636719 338.511719 153.964844 345.214844 127.707031 C 349.191406 112.207031 351.414062 97.917969 351.585938 85.417969 C 351.773438 72.921875 350.769531 61.855469 343.363281 52.285156 C 320.242188 22.382812 287.734375 14.117188 262.574219 13.832031 C 261.800781 13.816406 261.007812 13.800781 260.234375 13.816406 L 260.234375 13.773438 C 246.542969 13.886719 233.367188 15.953125 220.894531 19.640625 L 220.304688 19.84375 C 213.101562 18.492188 204.734375 17.632812 196.207031 17.476562 Z M 230.210938 26.617188 C 238.992188 24.449219 249.097656 23.144531 259.488281 23.015625 L 259.574219 23.015625 L 259.589844 22.957031 C 283.386719 22.726562 313.769531 29.484375 335.597656 57.710938 C 340.507812 64.050781 341.972656 73.320312 341.800781 84.746094 C 341.613281 96.152344 339.53125 109.8125 335.714844 124.777344 C 328.308594 153.765625 314.328125 187.554688 294.636719 217.875 C 295.28125 218.347656 296.027344 218.765625 296.804688 219.082031 L 296.875 219.109375 C 300.980469 220.832031 310.351562 222.308594 329.054688 218.421875 C 333.761719 217.417969 337.207031 216.742188 340.78125 219.496094 C 342.386719 220.875 343.390625 222.914062 343.390625 225.195312 C 343.390625 225.335938 343.390625 225.480469 343.378906 225.625 L 343.378906 225.609375 C 343.164062 227.433594 342.515625 229.066406 341.527344 230.429688 C 337.910156 235.925781 330.777344 241.136719 321.648438 245.425781 C 313.554688 249.242188 301.941406 251.238281 291.652344 251.351562 C 286.484375 251.410156 281.734375 251.007812 277.6875 249.730469 L 277.429688 249.628906 C 275.863281 264.839844 272.277344 294.875 269.9375 308.578125 C 268.070312 319.625 264.796875 328.40625 258.539062 334.980469 C 252.296875 341.550781 243.472656 345.511719 231.585938 348.09375 C 216.875 351.292969 206.140625 347.851562 199.222656 341.953125 C 192.320312 336.070312 189.160156 328.265625 187.253906 323.484375 C 185.945312 320.183594 185.273438 315.910156 184.613281 310.199219 C 183.953125 304.488281 183.476562 297.5 183.148438 289.621094 C 182.832031 281.613281 182.660156 272.203125 182.660156 262.746094 C 182.660156 259.632812 182.6875 256.53125 182.71875 253.417969 C 176.789062 258.929688 169.296875 262.804688 160.972656 264.28125 L 160.714844 264.324219 C 150.941406 266.003906 142.230469 264.351562 137.019531 263.03125 C 134.25 262.328125 131.839844 261.339844 129.570312 260.105469 C 127.1875 258.8125 124.921875 257.335938 123.398438 254.453125 C 122.796875 253.347656 122.4375 252.011719 122.4375 250.605469 C 122.4375 250.046875 122.496094 249.488281 122.609375 248.96875 C 123.125 247.046875 124.203125 245.410156 125.679688 244.265625 L 125.695312 244.25 C 128.507812 241.9375 132.210938 240.648438 137.824219 239.472656 C 148.011719 237.347656 151.574219 235.898438 153.738281 234.160156 C 155.578125 232.667969 157.671875 229.65625 161.347656 225.238281 C 161.332031 225.109375 161.316406 224.890625 161.304688 224.691406 L 161.304688 224.648438 C 154.355469 224.449219 147.882812 222.566406 142.230469 219.398438 L 142.445312 219.511719 C 140.320312 221.777344 129.457031 233.402344 116.222656 249.53125 C 110.652344 256.273438 104.496094 260.148438 98.011719 260.421875 C 91.523438 260.695312 85.652344 257.394531 80.65625 252.5 C 70.683594 242.699219 62.730469 225.839844 55.800781 206.785156 C 48.882812 187.726562 43.253906 166.503906 39.25 148.425781 C 35.234375 130.347656 32.878906 115.765625 32.535156 108.734375 C 31.042969 78.859375 37.945312 58.730469 49.785156 46.03125 C 61.640625 33.332031 77.886719 28.523438 93.71875 27.605469 C 122.152344 25.957031 149.132812 35.984375 154.601562 38.136719 C 165.136719 30.90625 178.699219 26.402344 195.621094 26.6875 C 204.144531 26.816406 212.339844 27.949219 220.175781 29.972656 L 219.460938 29.816406 L 219.746094 29.6875 C 222.488281 28.652344 225.988281 27.605469 229.578125 26.746094 Z M 230.210938 26.617188 " fill-opacity="1" fill-rule="nonzero"/></g></svg>