<svg xmlns="http://www.w3.org/2000/svg" xmlns:xlink="http://www.w3.org/1999/xlink" width="500" zoomAndPan="magnify" viewBox="0 0 375 374.999991" height="500" preserveAspectRatio="xMidYMid meet" version="1.0"><path fill="#000000" d="M 268.082031 126.117188 L 268.097656 126.117188 L 268.097656 126.0625 Z M 268.082031 126.117188 " fill-opacity="1" fill-rule="nonzero"/><path fill="#f2bb30" d="M 300.304688 261.777344 C 322.054688 261.777344 330.097656 246.605469 337.65625 223.863281 C 345.488281 200.441406 345.148438 177.90625 337.65625 147.90625 C 332.265625 126.300781 322.066406 109.992188 300.304688 109.992188 L 272.273438 109.992188 L 272.273438 143.167969 C 272.273438 168.898438 250.445312 190.585938 225.5625 190.585938 L 150.855469 190.585938 C 130.425781 190.585938 113.503906 208.066406 113.503906 228.5625 L 113.503906 299.769531 C 113.503906 320.042969 131.128906 331.9375 150.855469 337.746094 C 174.488281 344.667969 197.230469 345.917969 225.546875 337.746094 C 244.359375 332.289062 262.898438 321.296875 262.898438 299.769531 L 262.898438 271.292969 L 188.261719 271.292969 L 188.261719 261.789062 L 300.304688 261.789062 Z M 230.234375 290.25 C 237.988281 290.25 244.296875 296.621094 244.296875 304.457031 C 244.296875 312.367188 238.003906 318.726562 230.234375 318.726562 C 222.53125 318.726562 216.171875 312.289062 216.171875 304.457031 C 216.253906 296.542969 222.558594 290.25 230.234375 290.25 Z M 230.234375 290.25 " fill-opacity="1" fill-rule="nonzero"/><path fill="#35668f" d="M 75.03125 261.789062 L 100.699219 261.789062 L 100.699219 227.648438 C 100.699219 202.960938 122.03125 181.199219 147.410156 181.199219 L 222.101562 181.199219 C 242.871094 181.199219 259.453125 164.070312 259.453125 143.21875 L 259.453125 71.960938 C 259.453125 51.6875 242.390625 36.488281 222.101562 33.082031 C 197.058594 28.945312 169.851562 29.179688 147.410156 33.160156 L 147.421875 33.148438 C 115.800781 38.734375 110.085938 50.40625 110.085938 72.015625 L 110.085938 100.488281 L 184.855469 100.488281 L 184.855469 110.007812 L 82.027344 110.007812 C 60.277344 110.007812 41.242188 123.085938 35.316406 147.917969 C 28.460938 176.394531 28.1875 194.148438 35.316406 223.875 C 40.617188 245.980469 53.292969 261.789062 75.03125 261.789062 Z M 142.734375 81.464844 C 134.980469 81.464844 128.675781 75.09375 128.675781 67.261719 C 128.765625 59.351562 134.980469 52.992188 142.734375 52.992188 C 150.4375 52.992188 156.796875 59.414062 156.796875 67.261719 C 156.796875 75.109375 150.503906 81.464844 142.734375 81.464844 Z M 142.734375 81.464844 " fill-opacity="1" fill-rule="nonzero"/></svg>