<svg xmlns="http://www.w3.org/2000/svg" xmlns:xlink="http://www.w3.org/1999/xlink" width="500" zoomAndPan="magnify" viewBox="0 0 375 374.999991" height="500" preserveAspectRatio="xMidYMid meet" version="1.0"><defs><clipPath id="4e67fae686"><path d="M 4.019531 24 L 370.769531 24 L 370.769531 351 L 4.019531 351 Z M 4.019531 24 " clip-rule="nonzero"/></clipPath></defs><g clip-path="url(#4e67fae686)"><path fill="#00d8ff" d="M 305.429688 130.191406 C 301.527344 128.851562 297.59375 127.609375 293.628906 126.464844 C 294.296875 123.742188 294.910156 121.050781 295.453125 118.40625 C 304.386719 74.984375 298.546875 40.003906 278.601562 28.484375 C 259.476562 17.445312 228.199219 28.957031 196.613281 56.484375 C 193.5 59.203125 190.457031 62 187.484375 64.871094 C 185.492188 62.960938 183.46875 61.089844 181.410156 59.253906 C 148.304688 29.820312 115.125 17.414062 95.199219 28.964844 C 76.089844 40.042969 70.433594 72.925781 78.476562 114.078125 C 79.277344 118.152344 80.179688 122.207031 81.183594 126.238281 C 76.488281 127.574219 71.957031 128.996094 67.617188 130.511719 C 28.804688 144.0625 4.019531 165.296875 4.019531 187.324219 C 4.019531 210.074219 30.628906 232.890625 71.054688 246.726562 C 74.332031 247.84375 77.636719 248.878906 80.964844 249.832031 C 79.882812 254.171875 78.921875 258.542969 78.085938 262.9375 C 70.417969 303.375 76.40625 335.480469 95.460938 346.488281 C 115.144531 357.851562 148.175781 346.171875 180.339844 318.015625 C 182.949219 315.726562 185.5 313.371094 187.988281 310.957031 C 191.207031 314.066406 194.511719 317.085938 197.898438 320.011719 C 229.058594 346.855469 259.828125 357.699219 278.863281 346.660156 C 298.527344 335.261719 304.917969 300.769531 296.621094 258.804688 C 295.96875 255.519531 295.234375 252.246094 294.421875 248.996094 C 296.742188 248.308594 299.019531 247.597656 301.238281 246.863281 C 343.265625 232.917969 370.609375 210.378906 370.609375 187.324219 C 370.609375 165.21875 345.023438 143.839844 305.429688 130.191406 Z M 296.316406 231.976562 C 294.308594 232.640625 292.253906 233.28125 290.15625 233.90625 C 285.519531 219.199219 279.257812 203.558594 271.59375 187.398438 C 278.90625 171.625 284.925781 156.1875 289.4375 141.574219 C 293.1875 142.664062 296.824219 143.808594 300.332031 145.015625 C 334.257812 156.710938 354.949219 174 354.949219 187.324219 C 354.949219 201.515625 332.601562 219.9375 296.316406 231.976562 Z M 281.257812 261.851562 C 284.925781 280.40625 285.449219 297.183594 283.019531 310.300781 C 280.839844 322.085938 276.449219 329.941406 271.015625 333.089844 C 259.464844 339.789062 234.757812 331.082031 208.113281 308.121094 C 204.964844 305.402344 201.890625 302.597656 198.894531 299.707031 C 209.226562 288.394531 219.550781 275.242188 229.625 260.636719 C 247.347656 259.0625 264.089844 256.488281 279.273438 252.972656 C 280.003906 255.914062 280.667969 258.878906 281.257812 261.851562 Z M 128.996094 331.933594 C 117.710938 335.925781 108.71875 336.039062 103.285156 332.902344 C 91.722656 326.222656 86.914062 300.441406 93.472656 265.863281 C 94.253906 261.773438 95.144531 257.710938 96.148438 253.675781 C 111.164062 257 127.785156 259.394531 145.550781 260.835938 C 155.695312 275.128906 166.316406 288.265625 177.019531 299.765625 C 174.746094 301.972656 172.417969 304.121094 170.035156 306.207031 C 155.8125 318.660156 141.558594 327.492188 128.996094 331.933594 Z M 76.121094 231.890625 C 58.246094 225.769531 43.480469 217.820312 33.363281 209.144531 C 24.269531 201.347656 19.679688 193.605469 19.679688 187.324219 C 19.679688 173.957031 39.582031 156.90625 72.773438 145.320312 C 76.800781 143.914062 81.015625 142.585938 85.390625 141.34375 C 89.980469 156.285156 95.996094 171.90625 103.257812 187.707031 C 95.902344 203.738281 89.800781 219.609375 85.167969 234.726562 C 82.128906 233.855469 79.113281 232.910156 76.121094 231.890625 Z M 93.84375 111.066406 C 86.957031 75.808594 91.53125 49.214844 103.046875 42.539062 C 115.308594 35.429688 142.429688 45.566406 171.011719 70.980469 C 172.875 72.640625 174.710938 74.335938 176.511719 76.0625 C 165.863281 87.515625 155.335938 100.554688 145.285156 114.761719 C 128.042969 116.363281 111.539062 118.933594 96.367188 122.375 C 95.429688 118.628906 94.589844 114.855469 93.84375 111.066406 Z M 251.976562 150.167969 C 248.390625 143.96875 244.675781 137.847656 240.828125 131.808594 C 252.523438 133.289062 263.730469 135.253906 274.253906 137.65625 C 271.097656 147.796875 267.15625 158.398438 262.523438 169.269531 C 259.132812 162.832031 255.617188 156.464844 251.976562 150.167969 Z M 187.492188 87.273438 C 194.714844 95.109375 201.949219 103.855469 209.0625 113.351562 C 194.628906 112.667969 180.171875 112.664062 165.734375 113.339844 C 172.859375 103.9375 180.152344 95.199219 187.492188 87.273438 Z M 122.589844 150.273438 C 118.996094 156.519531 115.542969 162.847656 112.242188 169.257812 C 107.683594 158.425781 103.78125 147.777344 100.59375 137.492188 C 111.054688 135.148438 122.207031 133.234375 133.828125 131.777344 C 129.9375 137.855469 126.191406 144.019531 122.589844 150.273438 Z M 134.164062 243.984375 C 122.15625 242.644531 110.835938 240.828125 100.378906 238.546875 C 103.613281 228.078125 107.601562 217.203125 112.261719 206.140625 C 115.574219 212.550781 119.039062 218.882812 122.652344 225.132812 C 126.367188 231.558594 130.214844 237.847656 134.164062 243.984375 Z M 187.921875 288.480469 C 180.5 280.460938 173.097656 271.589844 165.867188 262.046875 C 172.886719 262.324219 180.042969 262.464844 187.3125 262.464844 C 194.785156 262.464844 202.171875 262.296875 209.441406 261.972656 C 202.304688 271.6875 195.097656 280.570312 187.921875 288.480469 Z M 262.671875 205.574219 C 267.570312 216.757812 271.699219 227.578125 274.980469 237.867188 C 264.351562 240.296875 252.875 242.25 240.785156 243.703125 C 244.660156 237.554688 248.410156 231.324219 252.039062 225.027344 C 255.726562 218.621094 259.269531 212.136719 262.671875 205.574219 Z M 238.472656 217.191406 C 232.917969 226.851562 227.054688 236.328125 220.886719 245.605469 C 209.714844 246.398438 198.515625 246.789062 187.3125 246.785156 C 175.90625 246.785156 164.808594 246.429688 154.125 245.734375 C 147.792969 236.476562 141.816406 226.984375 136.207031 217.277344 C 130.621094 207.617188 125.402344 197.753906 120.566406 187.699219 C 125.390625 177.640625 130.59375 167.769531 136.160156 158.105469 L 136.15625 158.105469 C 141.722656 148.441406 147.652344 138.988281 153.933594 129.769531 C 164.835938 128.945312 176.015625 128.515625 187.3125 128.515625 C 198.664062 128.515625 209.859375 128.949219 220.757812 129.78125 C 226.976562 138.984375 232.867188 148.402344 238.421875 158.023438 C 244.007812 167.667969 249.277344 177.488281 254.222656 187.476562 C 249.328125 197.566406 244.074219 207.476562 238.472656 217.191406 Z M 270.777344 42.070312 C 283.054688 49.160156 287.828125 77.75 280.113281 115.238281 C 279.621094 117.632812 279.070312 120.066406 278.46875 122.539062 C 263.257812 119.023438 246.742188 116.40625 229.449219 114.785156 C 219.378906 100.417969 208.941406 87.359375 198.460938 76.054688 C 201.207031 73.40625 204.019531 70.824219 206.894531 68.3125 C 233.957031 44.726562 259.253906 35.414062 270.777344 42.070312 Z M 187.3125 154.542969 C 205.394531 154.542969 220.050781 169.21875 220.050781 187.324219 C 220.050781 205.429688 205.394531 220.105469 187.3125 220.105469 C 169.234375 220.105469 154.578125 205.429688 154.578125 187.324219 C 154.578125 169.21875 169.234375 154.542969 187.3125 154.542969 Z M 187.3125 154.542969 " fill-opacity="1" fill-rule="nonzero"/></g></svg>