<svg xmlns="http://www.w3.org/2000/svg" xmlns:xlink="http://www.w3.org/1999/xlink" width="500" zoomAndPan="magnify" viewBox="0 0 375 374.999991" height="500" preserveAspectRatio="xMidYMid meet" version="1.0"><path fill="#912626" d="M 340.480469 261.328125 C 323.449219 270.214844 235.226562 306.511719 216.449219 316.304688 C 197.660156 326.109375 187.238281 326.003906 172.398438 318.910156 C 157.558594 311.820312 63.671875 273.875 46.769531 265.785156 C 38.300781 261.738281 33.859375 258.332031 33.859375 255.101562 L 33.859375 222.820312 C 33.859375 222.820312 156.082031 196.195312 175.816406 189.117188 C 195.546875 182.039062 202.394531 181.773438 219.1875 187.933594 C 235.984375 194.09375 336.386719 212.214844 352.980469 218.296875 L 352.96875 250.125 C 352.980469 253.316406 349.152344 256.816406 340.480469 261.328125 Z M 340.480469 261.328125 " fill-opacity="1" fill-rule="nonzero"/><path fill="#c6302b" d="M 340.46875 229.246094 C 323.433594 238.121094 235.226562 274.417969 216.4375 284.226562 C 197.660156 294.03125 187.222656 293.925781 172.382812 286.832031 C 157.546875 279.726562 63.671875 241.78125 46.757812 233.691406 C 29.84375 225.601562 29.5 220.039062 46.105469 213.519531 C 62.714844 207.015625 156.082031 170.359375 175.816406 163.265625 C 195.546875 156.1875 202.394531 155.921875 219.175781 162.082031 C 235.96875 168.242188 323.660156 203.167969 340.253906 209.25 C 356.863281 215.355469 357.5 220.359375 340.46875 229.246094 Z M 340.46875 229.246094 " fill-opacity="1" fill-rule="nonzero"/><path fill="#912626" d="M 340.480469 209.101562 C 323.449219 217.992188 235.226562 254.289062 216.449219 264.082031 C 197.660156 273.875 187.238281 273.78125 172.398438 266.6875 C 157.558594 259.597656 63.671875 221.648438 46.769531 213.558594 C 38.300781 209.515625 33.859375 206.109375 33.859375 202.875 L 33.859375 170.597656 C 33.859375 170.597656 156.082031 143.972656 175.816406 136.894531 C 195.546875 129.816406 202.394531 129.550781 219.1875 135.710938 C 235.984375 141.859375 336.386719 159.992188 352.980469 166.074219 L 352.96875 197.898438 C 352.980469 201.082031 349.152344 204.578125 340.480469 209.101562 Z M 340.480469 209.101562 " fill-opacity="1" fill-rule="nonzero"/><path fill="#c6302b" d="M 340.46875 177.023438 C 323.433594 185.914062 235.226562 222.195312 216.4375 232 C 197.660156 241.792969 187.222656 241.703125 172.382812 234.609375 C 157.546875 227.519531 63.671875 189.570312 46.757812 181.480469 C 29.84375 173.390625 29.5 167.832031 46.105469 161.3125 C 62.714844 154.792969 156.082031 118.136719 175.816406 111.054688 C 195.546875 103.976562 202.394531 103.710938 219.175781 109.871094 C 235.96875 116.03125 323.660156 150.945312 340.253906 157.039062 C 356.863281 163.121094 357.5 168.136719 340.46875 177.023438 Z M 340.46875 177.023438 " fill-opacity="1" fill-rule="nonzero"/><path fill="#912626" d="M 340.480469 154.9375 C 323.449219 163.824219 235.226562 200.121094 216.449219 209.914062 C 197.660156 219.707031 187.238281 219.613281 172.398438 212.523438 C 157.558594 205.429688 63.671875 167.472656 46.769531 159.394531 C 38.300781 155.351562 33.859375 151.945312 33.859375 148.722656 L 33.859375 116.445312 C 33.859375 116.445312 156.082031 89.820312 175.816406 82.742188 C 195.546875 75.652344 202.394531 75.398438 219.1875 81.558594 C 235.984375 87.707031 336.386719 105.828125 352.980469 111.90625 L 352.96875 143.734375 C 352.980469 146.925781 349.152344 150.425781 340.480469 154.9375 Z M 340.480469 154.9375 " fill-opacity="1" fill-rule="nonzero"/><path fill="#c6302b" d="M 340.46875 122.859375 C 323.433594 131.746094 235.226562 168.042969 216.4375 177.835938 C 197.660156 187.628906 187.222656 187.535156 172.382812 180.445312 C 157.558594 173.339844 63.671875 135.390625 46.757812 127.300781 C 29.84375 119.210938 29.5 113.652344 46.105469 107.132812 C 62.714844 100.636719 156.082031 63.984375 175.816406 56.890625 C 195.546875 49.8125 202.394531 49.546875 219.175781 55.707031 C 235.96875 61.867188 323.660156 96.792969 340.253906 102.875 C 356.863281 108.953125 357.5 113.96875 340.46875 122.859375 Z M 340.46875 122.859375 " fill-opacity="1" fill-rule="nonzero"/><path fill="#ffffff" d="M 232.417969 91.457031 L 204.988281 94.304688 L 198.84375 109.101562 L 188.925781 92.601562 L 157.238281 89.742188 L 180.882812 81.210938 L 173.792969 68.121094 L 195.933594 76.78125 L 216.796875 69.941406 L 211.15625 83.488281 Z M 197.195312 163.199219 L 145.992188 141.953125 L 219.363281 130.683594 Z M 126.207031 99.679688 C 147.867188 99.679688 165.417969 106.492188 165.417969 114.886719 C 165.417969 123.285156 147.867188 130.097656 126.207031 130.097656 C 104.546875 130.097656 86.992188 123.285156 86.992188 114.886719 C 86.992188 106.492188 104.546875 99.679688 126.207031 99.679688 Z M 126.207031 99.679688 " fill-opacity="1" fill-rule="nonzero"/><path fill="#621b1c" d="M 264.835938 95.503906 L 308.265625 112.679688 L 264.875 129.832031 Z M 264.835938 95.503906 " fill-opacity="1" fill-rule="nonzero"/><path fill="#9a2928" d="M 216.796875 114.515625 L 264.835938 95.503906 L 264.875 129.832031 L 260.167969 131.667969 Z M 216.796875 114.515625 " fill-opacity="1" fill-rule="nonzero"/></svg>