<svg xmlns="http://www.w3.org/2000/svg" xmlns:xlink="http://www.w3.org/1999/xlink" width="500" zoomAndPan="magnify" viewBox="0 0 375 374.999991" height="500" preserveAspectRatio="xMidYMid meet" version="1.0"><path fill="#6c4eb0" d="M 139.402344 76.167969 C 152.007812 60.253906 175.738281 52.398438 191.914062 51.992188 C 237.277344 51.121094 256.1875 108.203125 257.644531 130.894531 L 278.644531 137.253906 C 273.808594 67.695312 230.984375 31.203125 190.007812 31.203125 C 151.585938 31.191406 116.105469 59.402344 101.808594 100.765625 C 82.28125 155.914062 95.09375 208.929688 119.035156 251.359375 C 116.949219 254.121094 115.6875 258.980469 116.105469 263.644531 C 116.511719 276.378906 127.222656 286.980469 140.050781 286.980469 L 140.890625 286.980469 C 154.332031 286.5625 164.621094 275.328125 163.992188 261.949219 C 163.992188 249.21875 153.070312 238.640625 140.257812 238.640625 L 139.402344 238.640625 C 138.5625 238.640625 137.316406 238.640625 136.25 239.046875 C 118.824219 209.351562 111.464844 177.527344 114.214844 143.195312 C 115.882812 117.308594 124.292969 94.824219 139.402344 76.167969 Z M 139.402344 76.167969 " fill-opacity="1" fill-rule="nonzero"/><path fill="#6c4eb0" d="M 38.195312 316.914062 C 52.269531 338.121094 81.046875 351.683594 112.546875 351.683594 C 120.941406 351.683594 129.773438 351.066406 138.378906 348.9375 C 192.996094 338.332031 234.375 305.246094 258.105469 256.472656 L 258.304688 256.039062 C 270.484375 254.972656 279.933594 244.144531 279.316406 231.203125 C 278.671875 218.261719 268.171875 207.878906 255.375 207.878906 L 254.519531 207.878906 C 241.300781 208.316406 230.996094 219.550781 231.417969 232.925781 C 231.835938 239.707031 234.585938 245.226562 238.34375 249.246094 C 223.652344 278.101562 201.601562 299.292969 168.195312 317.125 C 145.726562 328.988281 121.992188 333.457031 98.890625 330.277344 C 79.574219 327.53125 64.464844 318.804688 55.210938 304.828125 C 41.363281 283.605469 40.101562 260.71875 51.636719 237.816406 C 60.0625 221.273438 72.652344 209.183594 81.0625 203.230469 C 78.960938 197.726562 76.4375 188.394531 75.175781 181.40625 C 12.976562 226.355469 19.300781 287.851562 38.195312 316.914062 Z M 38.195312 316.914062 " fill-opacity="1" fill-rule="nonzero"/><path fill="#6c4eb0" d="M 354.058594 307.558594 C 366.648438 282.105469 365.609375 239.273438 333.46875 202.570312 L 333.269531 202.992188 C 300.734375 164.386719 252.835938 143.179688 198.210938 143.179688 L 191.058594 143.179688 C 187.511719 135.335938 179.328125 130.445312 170.074219 130.445312 L 169.445312 130.445312 C 156.226562 130.445312 145.921875 141.917969 146.355469 155.269531 C 146.777344 167.988281 157.488281 178.605469 170.300781 178.605469 L 171.335938 178.605469 C 180.800781 178.183594 188.984375 172.230469 192.335938 163.757812 L 200.117188 163.757812 C 232.484375 163.757812 263.125 173.296875 291.078125 191.953125 C 312.484375 206.171875 327.832031 224.828125 336.4375 247.101562 C 343.980469 265.339844 343.574219 283.15625 335.808594 298.019531 C 323.835938 321.339844 303.664062 333.65625 277.003906 333.65625 C 260.195312 333.65625 243.824219 328.34375 235.414062 324.535156 C 230.378906 328.75 221.96875 335.753906 215.871094 340.015625 C 234.347656 348.472656 253.046875 353.363281 271.101562 353.363281 C 312.0625 353.363281 342.496094 330.054688 354.058594 307.558594 Z M 354.058594 307.558594 " fill-opacity="1" fill-rule="nonzero"/></svg>