<svg xmlns="http://www.w3.org/2000/svg" xmlns:xlink="http://www.w3.org/1999/xlink" width="500" zoomAndPan="magnify" viewBox="0 0 375 374.999991" height="500" preserveAspectRatio="xMidYMid meet" version="1.0"><defs><clipPath id="401afd4215"><path d="M 17.453125 1 L 369 1 L 369 231 L 17.453125 231 Z M 17.453125 1 " clip-rule="nonzero"/></clipPath><clipPath id="90fdeeefd3"><path d="M 67 58 L 369.203125 58 L 369.203125 375 L 67 375 Z M 67 58 " clip-rule="nonzero"/></clipPath><clipPath id="25153f96de"><path d="M 17.453125 58 L 319 58 L 319 375 L 17.453125 375 Z M 17.453125 58 " clip-rule="nonzero"/></clipPath></defs><g clip-path="url(#401afd4215)"><path fill="#f6bd3a" d="M 168.480469 202.179688 L 218.796875 172.945312 L 268.488281 202.179688 L 218.796875 230.800781 L 168.480469 202.804688 Z M 17.53125 115.714844 L 218.796875 1.25 L 368.503906 86.472656 L 318.8125 172.945312 L 218.800781 115.714844 L 67.851562 201.5625 Z M 17.53125 115.714844 " fill-opacity="1" fill-rule="nonzero"/></g><g clip-path="url(#90fdeeefd3)"><path fill="#eb8c23" d="M 168.480469 316.648438 L 168.480469 259.417969 L 218.171875 230.800781 L 268.488281 202.179688 L 268.488281 259.410156 L 218.796875 288.027344 L 218.796875 345.257812 L 168.480469 374.5 Z M 168.480469 202.179688 L 118.164062 173.5625 L 67.847656 201.558594 L 67.847656 144.328125 L 218.796875 58.480469 L 218.796875 172.945312 Z M 318.1875 144.328125 L 318.1875 115.707031 L 368.503906 86.472656 L 369.128906 143.703125 L 318.8125 172.9375 Z M 318.1875 144.328125 " fill-opacity="1" fill-rule="nonzero"/></g><g clip-path="url(#25153f96de)"><path fill="#e35a2b" d="M 118.164062 344.015625 L 118.164062 173.570312 L 167.855469 145.574219 L 168.480469 202.1875 L 218.796875 230.179688 L 218.796875 288.035156 L 168.480469 261.285156 L 168.480469 374.5 Z M 42.378906 186.632812 L 17.53125 171.703125 L 17.53125 115.714844 L 67.847656 144.332031 L 67.847656 201.5625 Z M 218.796875 115.714844 L 218.796875 58.480469 L 318.1875 115.707031 L 318.8125 172.9375 L 218.800781 115.707031 Z M 218.796875 115.714844 " fill-opacity="1" fill-rule="nonzero"/></g></svg>