<svg xmlns="http://www.w3.org/2000/svg" xmlns:xlink="http://www.w3.org/1999/xlink" width="500" zoomAndPan="magnify" viewBox="0 0 375 374.999991" height="500" preserveAspectRatio="xMidYMid meet" version="1.0"><defs><clipPath id="f0a51d3eff"><path d="M 4.34375 4.34375 L 370.34375 4.34375 L 370.34375 370.34375 L 4.34375 370.34375 Z M 4.34375 4.34375 " clip-rule="nonzero"/></clipPath></defs><g clip-path="url(#f0a51d3eff)"><path fill="#007acc" d="M 4.34375 370.34375 L 370.34375 370.34375 L 370.34375 4.34375 L 4.34375 4.34375 Z M 4.34375 370.34375 " fill-opacity="1" fill-rule="nonzero"/></g><path fill="#ffffff" d="M 85.261719 188.542969 L 85.148438 203.542969 L 132.785156 203.542969 L 132.785156 338.902344 L 166.480469 338.902344 L 166.480469 203.542969 L 214.121094 203.542969 L 214.121094 188.84375 C 214.121094 180.710938 213.945312 173.902344 213.714844 173.730469 C 213.539062 173.503906 184.550781 173.390625 149.398438 173.445312 L 85.433594 173.617188 Z M 85.261719 188.542969 " fill-opacity="1" fill-rule="nonzero"/><path fill="#ffffff" d="M 299.671875 173.203125 C 308.964844 175.519531 316.058594 179.652344 322.5625 186.386719 C 325.921875 189.988281 330.925781 196.550781 331.328125 198.121094 C 331.441406 198.59375 315.527344 209.273438 305.878906 215.265625 C 305.535156 215.492188 304.148438 213.976562 302.574219 211.660156 C 297.871094 204.800781 292.925781 201.839844 285.375 201.324219 C 274.28125 200.566406 267.132812 206.371094 267.191406 216.078125 C 267.191406 218.925781 267.605469 220.613281 268.761719 222.929688 C 271.207031 227.988281 275.742188 231.003906 289.964844 237.167969 C 316.171875 248.433594 327.378906 255.867188 334.359375 266.449219 C 342.136719 278.242188 343.878906 297.058594 338.589844 311.054688 C 332.785156 326.28125 318.375 336.617188 298.101562 340.046875 C 291.824219 341.148438 276.957031 340.976562 270.207031 339.761719 C 255.511719 337.144531 241.570312 329.882812 232.980469 320.359375 C 229.605469 316.644531 223.042969 306.9375 223.441406 306.234375 C 223.628906 306.007812 225.128906 305.078125 226.816406 304.089844 C 228.445312 303.160156 234.609375 299.617188 240.414062 296.242188 L 250.921875 290.152344 L 253.136719 293.398438 C 256.210938 298.101562 262.960938 304.546875 267.019531 306.707031 C 278.699219 312.855469 294.726562 311.984375 302.632812 304.90625 C 306.007812 301.816406 307.394531 298.628906 307.394531 293.925781 C 307.394531 289.679688 306.878906 287.820312 304.664062 284.632812 C 301.816406 280.558594 296.011719 277.128906 279.515625 269.992188 C 260.628906 261.859375 252.492188 256.796875 245.058594 248.777344 C 240.757812 244.128906 236.695312 236.695312 235.007812 230.476562 C 233.609375 225.316406 233.265625 212.363281 234.367188 207.128906 C 238.269531 188.886719 252.035156 176.164062 271.894531 172.386719 C 278.34375 171.171875 293.339844 171.628906 299.671875 173.203125 Z M 299.671875 173.203125 " fill-opacity="1" fill-rule="nonzero"/></svg>