<svg width="1605" height="3262" viewBox="0 0 1605 3262" fill="none" xmlns="http://www.w3.org/2000/svg">
<g clip-path="url(#clip0_20_2)">
<g clip-path="url(#clip1_20_2)">
<path d="M988.417 1568.91L988.417 1568.91C941.865 1674.96 1071.42 1729.86 1103.6 1719.02C1115.23 1715.1 1097.2 1690.06 1086.55 1677.29C1069.91 1662.26 1033.34 1625.91 1020.09 1600.78C1006.84 1575.65 993.534 1570.78 988.417 1568.91Z" fill="black"/>
<path d="M976.253 1567.97L835.45 1762.36C807.236 1801.31 813.103 1855.11 848.991 1886.53C888.201 1920.86 948.022 1915.54 980.695 1874.39C1035.25 1805.67 1102.41 1719.97 1104.98 1715.67C1109.69 1707.79 1106.58 1695.62 1092.96 1702.72C1052.99 1743.01 985.023 1646.52 982.803 1599.34C981.362 1568.72 1024.56 1597.02 1014.87 1579.79C1007.11 1566.01 982.118 1566.8 976.253 1567.97Z" fill="#263241"/>
<path d="M1030.96 1573.93L1006.49 1614.89C1011.55 1660.08 1040.44 1681.94 1067.11 1687.8L1104.21 1645.84C1105.57 1647.88 1113.26 1654.99 1133.11 1667.08C1247.69 1702.61 1317.85 1630.19 1347.88 1594.26C1377.9 1558.33 1359.47 1544.12 1344.96 1532.24C1360.21 1506.01 1341.43 1484.21 1322.27 1481.46C1308.79 1453.78 1287.62 1463.92 1278.72 1472.46C1270.53 1487.29 1247.81 1516.56 1222.36 1514.92C1193.84 1509.88 1191.25 1508.76 1170.83 1506.08L1158.43 1504.19C1214.1 1501.1 1219.32 1450.37 1211.87 1426.67C1206.12 1408.41 1193.91 1422.59 1177.15 1443.82C1160.39 1465.06 1152.03 1449.02 1079.48 1470.81C1021.44 1488.24 1022.45 1554.94 1030.96 1573.93Z" fill="#C88954"/>
<mask id="mask0_20_2" style="mask-type:alpha" maskUnits="userSpaceOnUse" x="1007" y="1418" width="358" height="269">
<path d="M1040.47 1557.27L1007.92 1613.34C1017.91 1669.99 1050.64 1679.91 1068.53 1686.25L1104.24 1645.84C1105.6 1647.88 1113.29 1654.99 1133.14 1667.08C1247.72 1702.61 1317.88 1630.19 1347.91 1594.26C1377.93 1558.33 1359.5 1544.12 1344.99 1532.24C1360.24 1506.01 1341.46 1484.21 1322.3 1481.46C1308.82 1453.78 1287.65 1463.92 1278.75 1472.46C1270.56 1487.29 1247.84 1516.56 1222.39 1514.92C1193.87 1509.88 1191.28 1508.76 1170.86 1506.08L1158.46 1504.19C1214.13 1501.1 1219.35 1450.37 1211.9 1426.67C1206.15 1408.41 1193.94 1422.59 1177.18 1443.82C1160.42 1465.06 1152.06 1449.02 1079.51 1470.81C1021.47 1488.24 1031.96 1538.28 1040.47 1557.27Z" fill="#B37340"/>
</mask>
<g mask="url(#mask0_20_2)">
</g>
<path d="M1034.99 1549.49L1016.12 1579.73C993.912 1560.65 979.597 1567.37 975.216 1573.11C934.759 1629.93 850.241 1747.82 835.82 1764.86C817.795 1786.16 799.979 1865.84 867.499 1898.9C921.516 1925.34 964.68 1897.32 979.511 1879.99C1017.01 1832.23 1094.9 1733.49 1106.48 1720.66C1118.05 1707.84 1099.83 1687.19 1089.27 1678.47L1106.57 1655.06C1107.81 1653.39 1110.63 1653.76 1111.87 1655.4C1119.88 1666.01 1146.65 1678.21 1209.65 1675.6C1299.54 1671.89 1366.28 1580.62 1367.86 1560.23C1369.12 1543.91 1354.1 1537.3 1346.42 1536.03C1349.16 1531.23 1354.55 1520.1 1354.27 1514.02C1352.02 1487.75 1333.78 1483.01 1324.94 1483.92C1325.63 1480.5 1323.62 1472.07 1310.13 1465.71C1293.27 1457.76 1288.68 1468.17 1262.22 1498.82C1240.26 1524.25 1204.14 1513.85 1169.11 1505.79C1165.79 1505.03 1165.94 1498.41 1169.24 1497.51C1231.44 1480.57 1226.31 1425.91 1211.53 1419.14C1204.84 1416.08 1196.96 1423.87 1181.59 1440.9C1164.87 1459.43 1161.15 1453.66 1087.09 1470.46C1027.85 1483.9 1027.68 1528.75 1034.99 1549.49Z" stroke="black" stroke-width="21.9689"/>
<path d="M1083.59 1557.29C1101.55 1552.49 1152.77 1544.57 1187.63 1584.52" stroke="black" stroke-width="12.6719" stroke-linecap="round"/>
<path d="M1249.66 1543.05C1246.21 1543.65 1243.87 1546.92 1244.43 1550.37C1245 1553.82 1248.25 1556.14 1251.7 1555.55L1249.66 1543.05ZM1311.66 1484.88C1308.59 1492.5 1300.51 1505.97 1289.19 1518.19C1277.81 1530.48 1263.99 1540.59 1249.66 1543.05L1251.7 1555.55C1270.09 1552.39 1286.29 1539.89 1298.45 1526.77C1310.67 1513.57 1319.66 1498.81 1323.4 1489.55L1311.66 1484.88Z" fill="black"/>
<path d="M1261.75 1588.1C1258.32 1588.8 1256.08 1592.15 1256.76 1595.58C1257.43 1599.01 1260.76 1601.22 1264.19 1600.51L1261.75 1588.1ZM1336.68 1527.61C1333.36 1534.71 1322.72 1548.3 1308.33 1561.14C1293.97 1573.96 1277.06 1584.95 1261.75 1588.1L1264.19 1600.51C1282.8 1596.7 1301.76 1583.92 1316.72 1570.57C1331.65 1557.25 1343.76 1542.29 1348.15 1532.9L1336.68 1527.61Z" fill="black"/>
</g>
<path d="M1030.89 2910.42C1002.81 2895.57 968.462 2857.69 954.795 2840.61L765.14 2860.36L765.583 2992.51L767.193 3026.73C797.748 3036.5 872.314 3057.42 926.145 3062.92C1090.17 3065.27 1117.78 3034.63 1127.71 3022.49C1129.05 2997.92 1123.11 2990.58 1119.97 2989.98C1119.54 2986.53 1118.7 2982.9 1117.98 2979.08C1112.33 2949.13 1065.98 2928.97 1030.89 2910.42Z" fill="#333333"/>
<path d="M765.583 2992.51C789.543 3001.12 847.655 3021.26 903.882 3028.73C1001.46 3036.66 1122.95 3013.52 1119.97 2989.98M765.583 2992.51L765.14 2860.36L954.795 2840.61C968.462 2857.69 1002.81 2895.57 1030.89 2910.42C1065.98 2928.97 1112.33 2949.13 1117.98 2979.08C1118.7 2982.9 1119.54 2986.53 1119.97 2989.98M765.583 2992.51L767.193 3026.73C797.747 3036.5 872.314 3057.42 926.145 3062.92C1090.17 3065.27 1117.78 3034.63 1127.71 3022.49C1129.05 2997.92 1123.11 2990.58 1119.97 2989.98" stroke="#090909" stroke-width="24.3424"/>
<path d="M1033.86 2912.88C1021.89 2903.94 990.644 2890.72 961.332 2909.33C924.69 2932.58 901.019 2972.81 848.059 2970.87M765.751 2896.39C786.612 2901.62 831.48 2921.74 844.067 2960.41C856.655 2999.08 891.963 3029.67 906.672 3038.32" stroke="black" stroke-width="5.5252"/>
<path d="M963.757 2905.95L961.193 2903.25M961.193 2903.25L917.605 2857.31L941.681 2851.1L932.76 2868.66L957.18 2869.74L948.144 2884.87L972.564 2885.96L961.193 2903.25Z" stroke="black" stroke-width="4.86848"/>
<path d="M630.322 3031.69C605.313 3013.61 577.056 2971.9 566.054 2953.3L382.842 2950.49L367.555 3081.87L365.023 3116.07C393 3129.4 461.622 3159.01 512.305 3170.85C668.449 3192.59 698.416 3165.41 709.328 3154.52C713.529 3130.26 708.738 3122.27 705.818 3121.3C705.812 3117.82 705.444 3114.12 705.212 3110.23C703.389 3079.8 661.582 3054.28 630.322 3031.69Z" fill="#333333"/>
<path d="M367.555 3081.87C389.381 3093.27 442.405 3120.15 495.139 3134.23C587.247 3153.67 705.862 3145.05 705.818 3121.3M367.555 3081.87L382.842 2950.49L566.054 2953.3C577.056 2971.9 605.313 3013.61 630.322 3031.69C661.582 3054.28 703.389 3079.8 705.212 3110.23C705.444 3114.12 705.812 3117.82 705.818 3121.3M367.555 3081.87L365.023 3116.07C393 3129.4 461.622 3159.01 512.305 3170.85C668.449 3192.59 698.416 3165.41 709.328 3154.52C713.529 3130.26 708.738 3122.27 705.818 3121.3" stroke="#090909" stroke-width="24.3424"/>
<path d="M632.858 3034.48C622.514 3024.19 594.283 3007.35 564.118 3022.37C526.412 3041.14 499.055 3078.32 448.78 3070.13M379.142 2986.36C398.414 2994.03 438.81 3019.34 446.217 3059.26C453.625 3099.18 483.659 3133.76 496.659 3144.1" stroke="black" stroke-width="5.5252"/>
<path d="M566.833 3019.3L564.709 3016.31M564.709 3016.31L528.601 2965.5L552.3 2962.18L541.705 2978.58L564.864 2982.54L554.449 2996.51L577.608 3000.48L564.709 3016.31Z" stroke="black" stroke-width="4.86848"/>
<path d="M506.376 1471.1L662.186 1388.97C662.186 1388.97 1018.17 2044.4 909.101 2072.1C800.034 2099.8 668.594 2065.95 668.594 2065.95L506.376 1471.1Z" fill="#F1F0F0"/>
<mask id="mask1_20_2" style="mask-type:alpha" maskUnits="userSpaceOnUse" x="506" y="1388" width="402" height="712">
<path d="M506.373 1471.09L662.186 1388.97L907.84 2040.25L671.188 2099.54L506.373 1471.09Z" fill="#F1F0F0"/>
</mask>
<g mask="url(#mask1_20_2)">
</g>
<path d="M933.493 2687.79C944.591 2555.54 934.062 2270.62 927.411 2144.7L903.716 2055.08L546.185 2092.22C524.313 2117.97 477.954 2178.28 467.492 2213.5C477.752 2247.57 419.143 2611.66 388.556 2789.45C376.147 2801.68 348.881 2829.32 339.089 2841.99C329.298 2854.66 372.865 2915.89 395.873 2944.93C429.723 2943.77 504.311 2940.65 531.858 2937.39C566.292 2933.31 584.601 2908.48 583.381 2882.57L580.841 2828.59C616.388 2664.24 694.782 2334.27 723.975 2329.18C760.466 2322.83 783.914 2683.09 785.845 2724.12C769.146 2737.17 763.093 2792.5 762.154 2818.53L815.56 2895.68C839.729 2887.84 898.798 2870.28 941.725 2862.7C984.652 2855.13 982.26 2789.01 975.698 2756.9L956.273 2757.97C949.357 2748.98 935.119 2722.34 933.493 2687.79Z" fill="#354455"/>
<mask id="mask2_20_2" style="mask-type:alpha" maskUnits="userSpaceOnUse" x="337" y="2055" width="643" height="890">
<path d="M933.493 2687.79C944.591 2555.54 934.062 2270.62 927.411 2144.7L903.716 2055.08L546.185 2092.22C524.313 2117.97 477.954 2178.28 467.492 2213.5C477.752 2247.57 419.143 2611.66 388.556 2789.45C376.147 2801.68 348.881 2829.32 339.089 2841.99C329.298 2854.66 372.865 2915.89 395.873 2944.93C429.723 2943.77 504.311 2940.65 531.858 2937.39C566.292 2933.31 584.601 2908.48 583.381 2882.57L580.841 2828.59C616.388 2664.24 694.782 2334.27 723.975 2329.18C760.466 2322.83 783.914 2683.09 785.845 2724.12C769.146 2737.17 763.093 2792.5 762.154 2818.53L815.56 2895.68C839.729 2887.84 898.798 2870.28 941.725 2862.7C984.652 2855.13 982.26 2789.01 975.698 2756.9L956.273 2757.97C949.357 2748.98 935.119 2722.34 933.493 2687.79Z" fill="#2E333D"/>
</mask>
<g mask="url(#mask2_20_2)">
<path d="M415.745 2863.73L577.226 2846.12L576.108 2822.37C542.909 2822.04 469.585 2821.34 441.875 2821.15C414.165 2820.95 392.796 2789.95 385.575 2774.47L356.779 2806.38L415.745 2863.73Z" fill="#516280"/>
<path d="M907.662 2829.97L972.746 2787.39L980.77 2773.95L962.689 2757.63L905.833 2791.1L763.575 2803.31L763.88 2809.79L907.662 2829.97Z" fill="#516280"/>
<path d="M636.462 2217.14L590.325 2386.41L494.311 2415.55L457.946 2378.6" stroke="black" stroke-width="18.3883"/>
</g>
<path d="M439.526 1439.5C473.265 1385.36 504.02 1385.69 509.435 1392.69C511.874 1402.76 519.404 1428.08 530.008 1448.83C653.296 1561.69 762.827 1863.71 754.327 2188.94C673.69 2209.14 575.501 2159.88 499.275 2103.48C485.678 2035.85 356.412 1579.72 356.22 1561.66C356.028 1543.6 397.352 1507.17 439.526 1439.5Z" fill="#263242"/>
<path d="M741.789 1416.71C725.642 1380.71 656.589 1372.25 626.887 1366.69L630.162 1436.27C643.211 1446 673.593 1471.64 678.938 1493.7C804.732 1644.88 880.101 2056.39 901.105 2180.8C918.727 2178.7 949.125 2143.5 990.973 2113.03C963.08 1980.18 839.959 1489.23 823.608 1469.54C814.618 1458.72 804.2 1449.82 741.789 1416.71Z" fill="#263242"/>
<g filter="url(#filter0_b_20_2)">
<path d="M515.046 1423.58C511.77 1405.46 507.917 1336.71 497.425 1306.84L591.318 1281.33C603.28 1319.2 628.796 1401.48 635.159 1427.75C651.446 1443.17 682.789 1463.17 679.037 1482.22C606.198 1526.93 539.689 1461.98 515.046 1423.58Z" fill="#CC874D"/>
</g>
<mask id="mask3_20_2" style="mask-type:alpha" maskUnits="userSpaceOnUse" x="500" y="1275" width="180" height="222">
<path d="M514.853 1419.19C511.577 1401.07 510.764 1330.3 500.273 1300.43L605.327 1275.85C617.289 1313.71 628.871 1401.48 635.234 1427.74C651.521 1443.16 682.864 1463.17 679.112 1482.21C606.273 1526.93 539.496 1457.59 514.853 1419.19Z" fill="#9A5E2C"/>
</mask>
<g mask="url(#mask3_20_2)">
<path d="M618.618 1384.22C593.884 1392.65 534.359 1362.62 507.689 1346.55L500.689 1317.66L620.161 1310.01C629.953 1331.24 643.352 1375.8 618.618 1384.22Z" fill="black"/>
</g>
<path d="M752.472 2193.37C752.663 2182.65 746.98 1892.73 712.391 1801.55C675.806 1641.35 574.791 1486.7 527.514 1433.54C522.869 1425.88 508.569 1394.4 504.751 1378.65" stroke="black" stroke-width="12.3026"/>
<path d="M903.42 2180.67C903.61 2169.95 831.022 1845.58 812.441 1768.89C768.767 1618.73 675.739 1465.6 628.461 1412.44L624.166 1321.7" stroke="black" stroke-width="12.3026"/>
<path d="M518.849 1718.4C522.512 1689.79 513.713 1661.1 494.695 1639.63L410.614 1544.7C390.487 1521.97 352.793 1533.75 348.797 1564.01L307.151 1879.35C300.17 1932.21 337.934 1980.11 390.827 1985.49C442.247 1990.73 488.72 1953.73 495.302 1902.32L518.849 1718.4Z" fill="#263241"/>
<path d="M339.648 1587.3C386.303 1535.61 445.747 1573.41 463.656 1622.65C481.566 1671.89 468.889 1841.03 460.312 1919.45" stroke="black" stroke-width="21.453"/>
<path d="M468.238 1913.21C443.779 1867.53 386.291 1851.39 341.149 1877.53C299.604 1901.59 286.055 1955.21 311.301 1995.65L474.088 2256.43L582.696 2127L468.238 1913.21Z" fill="#263241"/>
<g filter="url(#filter1_b_20_2)">
<path d="M613.842 2192.39L568.233 2142.96L478.137 2251.88L613.842 2192.39Z" fill="#CC874D"/>
</g>
<path d="M624.859 1366.9C662.167 1362.67 727.428 1400.06 746.015 1412.14C795.128 1444.06 812.755 1455.48 821.306 1481.41C825.924 1495.41 955.452 1923.03 993.447 2117.23C969.145 2137.34 915.005 2180.91 901.353 2185.13" stroke="black" stroke-width="21.6181"/>
<path d="M505.089 1304.39L504.278 1380.17C494.755 1377.09 484.287 1391.55 460.519 1414.98C426.846 1448.19 394.122 1489.25 367.061 1527.83C351.35 1550.23 342.267 1576.45 339.166 1603.55L304.705 1904.8C300.379 1942.6 308.606 1980.68 328.113 2013.14L471.789 2252.24" stroke="black" stroke-width="21.6181"/>
<path d="M922.546 2175.28C926.227 2330.24 938.637 2655.46 932.534 2709.49C933.55 2731.09 947.416 2749.81 956.355 2755.81C965.294 2761.81 983.704 2739.13 977.814 2797.92C973.102 2844.94 957.232 2851.02 950.039 2851.42" stroke="black" stroke-width="21.6181"/>
<path d="M478.864 2247.86C439.721 2398.19 404.69 2704.61 398.245 2758.6C392.299 2779.45 381.955 2781.78 364.39 2798.68C346.824 2815.58 336.844 2833.46 341.669 2844.01C361.234 2886.82 393.383 2938.43 400.307 2940.35" stroke="black" stroke-width="21.6181"/>
<path d="M584.583 2120.41L480.293 2249.6" stroke="black" stroke-width="21.453"/>
<path d="M463.919 1881.2C457.874 2013.52 584.874 2126.88 584.874 2126.88" stroke="black" stroke-width="21.453"/>
<path d="M631.347 2195.75L467.887 2263.27" stroke="black" stroke-width="21.6181"/>
<path d="M787.922 2303.99L713.29 2327.61L571.907 2818.26C580.009 2852.45 585.582 2924.89 543.063 2941.1" stroke="black" stroke-width="21.6181"/>
<path d="M730.666 2328.81C750.285 2408.55 782.034 2601.79 777.944 2735.39C761.585 2801.25 747.371 2821.52 783.838 2860.63" stroke="black" stroke-width="21.6181"/>
<path d="M715.507 2329.65L733.636 2255.04" stroke="black" stroke-width="18.3883"/>
<path d="M748.808 2071.01L878.317 2063.83" stroke="black" stroke-width="10.8091"/>
<path d="M952.49 2855.61L813.712 2895.78L783.619 2854.15" stroke="black" stroke-width="12.9709"/>
<path d="M542.801 2934.62L452.145 2939.64L393.865 2942.88" stroke="black" stroke-width="12.9709"/>
<path d="M615.964 2190.12L595.471 2168.52L570.254 2138.52" stroke="black" stroke-width="12.9709"/>
<path d="M565.461 2818.62L444.586 2825.32C424.854 2819.92 386.895 2804.27 392.908 2784.88" stroke="black" stroke-width="12.9709"/>
<path d="M763.599 2798.97L909.534 2790.88C928.655 2783.32 964.948 2763.56 957.147 2744.94" stroke="black" stroke-width="12.9709"/>
<g filter="url(#filter2_b_20_2)">
<path d="M214.933 963.952C230.656 932.96 265.066 937.333 280.02 945.33C291.209 996.587 316.681 1114.26 329.058 1174.89C185.878 1153 194.529 1004.17 214.933 963.952Z" fill="#CC874D"/>
<path d="M214.933 963.952C230.656 932.96 265.066 937.333 280.02 945.33C291.209 996.587 316.681 1114.26 329.058 1174.89C185.878 1153 194.529 1004.17 214.933 963.952Z" stroke="#391F06" stroke-width="19.6369"/>
</g>
<mask id="mask4_20_2" style="mask-type:alpha" maskUnits="userSpaceOnUse" x="193" y="929" width="149" height="258">
<path d="M214.933 963.952C230.656 932.96 265.066 937.333 280.02 945.33C291.209 996.587 316.681 1114.26 329.058 1174.89C185.878 1153 194.529 1004.17 214.933 963.952Z" fill="#C88954" stroke="#391F06" stroke-width="19.6369"/>
</mask>
<g mask="url(#mask4_20_2)">
</g>
<path d="M215.018 963.941C230.741 932.949 265.151 937.322 280.105 945.319C291.294 996.576 316.766 1114.25 329.143 1174.88C185.963 1152.99 194.614 1004.16 215.018 963.941Z" stroke="black" stroke-width="19.6369"/>
<path d="M234.325 1059.03C235.207 1062.3 238.574 1064.21 241.845 1063.3C245.115 1062.39 247.052 1059 246.169 1055.73L234.325 1059.03ZM246.169 1055.73C245.025 1051.5 243.978 1045.23 243.82 1038.51C243.661 1031.74 244.413 1024.96 246.532 1019.46C248.61 1014.07 251.826 1010.28 256.567 1008.42C261.474 1006.49 269.167 1006.16 281.047 1010.27L285.144 998.667C271.757 994.03 260.824 993.587 252.163 996.992C243.337 1000.46 238.045 1007.46 235.091 1015.13C232.178 1022.69 231.375 1031.24 231.556 1038.9C231.737 1046.6 232.924 1053.84 234.325 1059.03L246.169 1055.73Z" fill="black"/>
<g filter="url(#filter3_b_20_2)">
<path d="M1000.27 899.087C980.171 871.054 946.825 881.023 933.232 891.378C929.74 943.848 921.935 1064.27 918.653 1126.2C1056.86 1081.06 1026.36 935.466 1000.27 899.087Z" fill="#CC874D"/>
<path d="M1000.27 899.087C980.171 871.054 946.825 881.023 933.232 891.378C929.74 943.848 921.935 1064.27 918.653 1126.2C1056.86 1081.06 1026.36 935.466 1000.27 899.087Z" stroke="#391F06" stroke-width="19.6369"/>
</g>
<mask id="mask5_20_2" style="mask-type:alpha" maskUnits="userSpaceOnUse" x="908" y="871" width="125" height="269">
<path d="M1000.27 899.087C980.171 871.054 946.825 881.023 933.232 891.378C929.74 943.848 921.935 1064.27 918.653 1126.2C1056.86 1081.06 1026.36 935.466 1000.27 899.087Z" fill="#C88954" stroke="#391F06" stroke-width="19.6369"/>
</mask>
<g mask="url(#mask5_20_2)">
</g>
<path d="M1000.44 899.069C980.341 871.037 946.995 881.006 933.403 891.361C929.911 943.831 922.106 1064.25 918.823 1126.18C1057.03 1081.05 1026.53 935.449 1000.44 899.069Z" stroke="black" stroke-width="19.6369"/>
<path d="M998.854 995.875C998.464 999.246 995.42 1001.69 992.055 1001.32C988.69 1000.96 986.278 997.935 986.667 994.564L998.854 995.875ZM986.667 994.564C987.173 990.19 987.282 983.825 986.447 977.161C985.606 970.453 983.863 963.88 980.959 958.794C978.111 953.809 974.375 950.593 969.417 949.529C964.285 948.429 956.637 949.37 945.509 955.384L939.75 944.592C952.29 937.813 963.025 935.58 972.082 937.523C981.313 939.502 987.572 945.545 991.622 952.634C995.614 959.623 997.668 967.939 998.62 975.534C999.577 983.172 999.473 990.523 998.854 995.875L986.667 994.564Z" fill="black"/>
<g filter="url(#filter4_b_20_2)">
<path fill-rule="evenodd" clip-rule="evenodd" d="M265.844 653.113C265.844 653.113 301.994 1073.98 337.228 1150.77C372.463 1227.56 503.864 1339.88 660.429 1326.95C871.573 1303.5 910.555 1123.61 925.421 1055.06C925.6 1054.23 925.662 1053.44 925.625 1052.59L906.006 606.274C916.089 443.627 663.595 465.289 573.605 471.916C483.732 480.145 302.015 525.335 265.844 653.113Z" fill="#CC874D"/>
<path d="M255.223 650.182L254.67 652.134L254.843 654.15L265.844 653.113C254.843 654.15 254.843 654.152 254.844 654.155L254.845 654.171L254.85 654.229L254.87 654.461L254.949 655.371C255.019 656.174 255.123 657.365 255.26 658.92C255.534 662.03 255.94 666.598 256.47 672.436C257.529 684.114 259.081 700.877 261.053 721.231C264.997 761.933 270.625 817.018 277.357 874.522C284.086 932.003 291.932 992.009 300.318 1042.52C308.608 1092.45 317.656 1134.68 327.188 1155.45C345.884 1196.2 389.209 1244.95 447.362 1281.85C505.71 1318.88 580.051 1344.67 661.247 1337.96L661.402 1337.95L661.556 1337.93C770.672 1325.82 836.016 1272.98 875.671 1214.04C914.854 1155.81 928.689 1092 936.136 1057.66L936.21 1057.32C936.604 1055.5 936.731 1053.75 936.655 1052.01L925.625 1052.59L936.655 1052.01L917.061 606.271C919.614 562.598 904.445 530.318 878.29 507.392C852.539 484.821 816.922 471.974 779.507 464.765C707.502 450.891 624.065 457.092 578.089 460.509C576.297 460.643 574.562 460.772 572.886 460.895L572.788 460.902L572.69 460.911C526.855 465.108 457.651 478.693 395.024 507.659C332.615 536.523 274.608 581.7 255.223 650.182Z" stroke="#391F06" stroke-width="22.0915"/>
</g>
<path d="M379.737 695.998L304.129 821.666L287.512 597.735L519.775 542.847L927.331 660.616L936.32 781.759L600.31 649.462L379.737 695.998Z" fill="#9A5E2C"/>
<path d="M616.755 1301.58C455.969 1311.16 348.705 1150.66 315.171 1069.22C272.965 1230.32 541.789 1352.97 708.884 1332.22C875.98 1311.46 925.522 1099.93 923.642 1074.59C890.363 1173.53 817.737 1289.62 616.755 1301.58Z" fill="#9A5E2C"/>
<mask id="mask6_20_2" style="mask-type:alpha" maskUnits="userSpaceOnUse" x="243" y="445" width="719" height="906">
<path d="M255.223 650.182L254.67 652.134L254.843 654.15L265.844 653.113C254.843 654.15 254.843 654.152 254.844 654.155L254.845 654.171L254.85 654.229L254.87 654.461L254.949 655.371C255.019 656.174 255.123 657.365 255.26 658.92C255.534 662.03 255.94 666.598 256.47 672.436C257.529 684.114 259.081 700.877 261.053 721.231C264.997 761.933 270.625 817.018 277.357 874.522C284.086 932.003 291.932 992.009 300.318 1042.52C308.608 1092.45 317.656 1134.68 327.188 1155.45C345.884 1196.2 389.209 1244.95 447.362 1281.85C505.71 1318.88 580.051 1344.67 661.247 1337.96L661.402 1337.95L661.556 1337.93C880.478 1313.62 934.522 1126.37 949.689 1057.23C950.139 1055.18 950.247 1053.2 950.104 1051.27L917.071 606.102C919.575 562.514 904.411 530.288 878.29 507.392C852.539 484.821 816.922 471.974 779.507 464.765C707.502 450.891 624.065 457.092 578.089 460.509C576.297 460.643 574.562 460.772 572.886 460.895L572.788 460.902L572.69 460.911C526.855 465.108 457.651 478.693 395.024 507.659C332.615 536.523 274.608 581.7 255.223 650.182Z" fill="#C88954" stroke="#391F06" stroke-width="22.0915"/>
</mask>
<g mask="url(#mask6_20_2)">
<path d="M325.148 638.299C303.136 739.781 299.062 800.991 294.567 856.534L292.467 911.175L200.901 539.786L886.015 483.196L913.217 683.911C915.684 717.156 857.245 659.495 836.638 647.199C788.347 659.937 657.76 608.69 614.099 584.302C574.568 615.562 381.425 633.651 325.148 638.299Z" fill="#9A5E2C"/>
<mask id="path-64-outside-1_20_2" maskUnits="userSpaceOnUse" x="229.726" y="420.517" width="753.771" height="959.045" fill="black">
<rect fill="white" x="229.726" y="420.517" width="753.771" height="959.045"/>
<path fill-rule="evenodd" clip-rule="evenodd" d="M265.844 653.113C265.844 653.113 301.994 1073.98 337.228 1150.77C372.463 1227.56 503.864 1339.88 660.429 1326.95C871.278 1303.54 915.279 1105.86 925.463 1054.95C925.618 1054.18 925.663 1053.47 925.628 1052.68L906.006 606.274C916.089 443.627 663.595 465.289 573.605 471.916C483.732 480.145 302.015 525.335 265.844 653.113Z"/>
</mask>
<path d="M265.844 653.113L244.601 647.252L243.496 651.156L243.843 655.187L265.844 653.113ZM660.429 1326.95L662.064 1348.97L662.374 1348.95L662.684 1348.91L660.429 1326.95ZM906.006 606.274L883.966 605.088L883.893 606.258L883.945 607.428L906.006 606.274ZM573.605 471.916L572.167 449.874L571.971 449.889L571.775 449.907L573.605 471.916ZM925.463 1054.95L903.812 1050.79L925.463 1054.95ZM925.628 1052.68L947.689 1051.52L925.628 1052.68ZM265.844 653.113C243.843 655.187 243.843 655.189 243.843 655.193C243.843 655.197 243.844 655.202 243.845 655.209C243.846 655.223 243.847 655.243 243.85 655.27C243.854 655.323 243.861 655.401 243.87 655.504C243.888 655.711 243.914 656.017 243.949 656.421C244.02 657.228 244.124 658.422 244.261 659.982C244.536 663.1 244.944 667.677 245.474 673.526C246.535 685.223 248.089 702.009 250.064 722.388C254.012 763.136 259.647 818.299 266.391 875.898C273.129 933.451 280.998 993.656 289.426 1044.42C297.661 1094.02 306.892 1137.78 317.148 1160.13L357.309 1141.41C349.947 1125.37 341.446 1087.73 332.994 1036.82C324.734 987.068 316.959 927.658 310.255 870.394C303.557 813.178 297.953 758.324 294.022 717.759C292.057 697.482 290.511 680.787 289.458 669.168C288.931 663.358 288.527 658.818 288.255 655.734C288.119 654.192 288.016 653.014 287.947 652.224C287.913 651.829 287.887 651.53 287.87 651.332C287.861 651.232 287.855 651.158 287.851 651.109C287.849 651.084 287.847 651.066 287.846 651.054C287.846 651.048 287.845 651.044 287.845 651.041C287.845 651.039 287.845 651.038 265.844 653.113ZM317.148 1160.13C336.923 1203.23 381.914 1253.45 441.395 1291.2C501.265 1329.19 577.955 1355.92 662.064 1348.97L658.795 1304.92C586.338 1310.91 519.045 1287.94 465.265 1253.81C411.095 1219.44 372.768 1175.1 357.309 1141.41L317.148 1160.13ZM662.684 1348.91C775.857 1336.35 845.032 1276.5 886.607 1213.31C927.687 1150.88 941.89 1085.23 947.114 1059.12L903.812 1050.79C898.852 1075.58 885.963 1134.23 849.784 1189.21C814.101 1243.45 755.85 1294.14 658.175 1304.98L662.684 1348.91ZM947.689 1051.52L928.066 605.119L883.945 607.428L903.568 1053.83L947.689 1051.52ZM928.045 607.46C930.977 560.169 914.492 524.374 885.603 499.053C857.76 474.648 819.956 461.288 781.681 453.913C705.169 439.171 616.486 446.611 572.167 449.874L575.043 493.957C620.714 490.594 703.272 483.889 772.985 497.321C807.821 504.033 836.874 515.339 856.35 532.41C874.78 548.565 886.076 571.055 883.966 605.088L928.045 607.46ZM571.775 449.907C525.042 454.186 454.532 468.002 390.461 497.635C326.83 527.064 265.287 574.177 244.601 647.252L287.086 658.973C302.571 604.271 349.973 564.899 408.712 537.732C467.011 510.769 532.296 497.875 575.436 493.924L571.775 449.907ZM947.114 1059.12C947.658 1056.4 947.793 1053.89 947.689 1051.52L903.568 1053.83C903.553 1053.5 903.549 1053.03 903.589 1052.45C903.63 1051.87 903.709 1051.3 903.812 1050.79L947.114 1059.12Z" fill="black" mask="url(#path-64-outside-1_20_2)"/>
</g>
<g clip-path="url(#clip2_20_2)">
<path d="M419.894 726.776C356.768 755.383 351.451 788.652 353.16 806.158C352.885 816.03 500.195 780.47 512.248 777.012C524.301 773.554 536.621 740.526 527.828 721.554C519.034 702.582 489.803 695.094 419.894 726.776Z" fill="black"/>
<mask id="mask7_20_2" style="mask-type:alpha" maskUnits="userSpaceOnUse" x="352" y="705" width="179" height="103">
<path d="M419.894 726.776C356.768 755.383 351.451 788.652 353.16 806.158C352.885 816.03 500.195 780.47 512.248 777.012C524.301 773.554 536.621 740.526 527.828 721.554C519.034 702.582 489.803 695.094 419.894 726.776Z" fill="black"/>
</mask>
<g mask="url(#mask7_20_2)">
</g>
<path d="M775.546 697.386C842.122 715.28 852.282 747.271 853.176 764.843C854.903 774.55 704.142 763.611 691.727 762.174C679.311 760.737 662.269 730.134 668.157 709.949C674.045 689.764 701.815 677.569 775.546 697.386Z" fill="black"/>
<mask id="mask8_20_2" style="mask-type:alpha" maskUnits="userSpaceOnUse" x="666" y="687" width="188" height="82">
<path d="M775.546 697.386C842.122 715.28 852.282 747.271 853.176 764.843C854.904 774.55 704.142 763.611 691.727 762.174C679.311 760.737 662.269 730.134 668.157 709.949C674.045 689.764 701.815 677.569 775.546 697.386Z" fill="black"/>
</mask>
<g mask="url(#mask8_20_2)">
</g>
<path d="M463.858 850.789C407.215 861.893 392.14 895.95 391.634 926.127C391.316 945.06 402.582 963.758 421.499 963.659C441.389 963.556 465.645 955.455 481.437 953.571C508.887 950.296 534.232 958.231 554.51 944.852C574.789 931.473 558.837 832.169 463.858 850.789Z" fill="#FBFAFB"/>
<circle cx="40.3248" cy="40.3248" r="40.3248" transform="matrix(0.998547 -0.0536177 0.0452721 0.998989 469.57 868.033)" fill="black"/>
<circle cx="10.0695" cy="10.0695" r="10.0695" transform="matrix(-0.993481 0.118541 0.110184 0.993379 530.706 877.874)" fill="#FBFAFB"/>
<path d="M754.163 825.406C696.74 839.621 683.775 872.268 684.44 901.513C684.855 919.755 695.709 937.16 713.932 937.695C731.394 938.209 752.954 933.484 769.071 931.561C797.36 928.186 824.892 935.86 845.17 922.481C865.449 909.101 848.152 802.137 754.163 825.406Z" fill="#FBFAFB"/>
<circle cx="40.3248" cy="40.3248" r="40.3248" transform="matrix(0.998547 -0.0536177 0.0452721 0.998989 757.029 846.06)" fill="black"/>
<circle cx="10.0695" cy="10.0695" r="10.0695" transform="matrix(-0.993481 0.118541 0.110184 0.993379 818.164 855.902)" fill="#FBFAFB"/>
<path d="M696.642 1021.95C681.999 1036.95 633.027 1049.36 610.372 1053.7C567.889 1065.1 655.783 1101.65 673.225 1087.9C688.989 1057.05 711.285 1006.95 696.642 1021.95Z" fill="#935724"/>
<path d="M623.385 866.711C627.667 918.886 635.441 997.715 658.315 1000.75C686.908 1004.54 707.39 1015.16 696.021 1044.42C686.926 1067.82 673.718 1081.14 668.25 1084.88" stroke="black" stroke-width="12.2731" stroke-linecap="round"/>
<path d="M853.155 912.297C859.925 862.134 831.211 825.459 775.394 822.865C716.994 820.151 669.498 869.433 691.813 931.549" stroke="black" stroke-width="12.2588" stroke-linecap="round"/>
<path d="M395.248 956.235C377.672 908.976 398.101 870.955 451.892 855.283C508.172 838.885 566.236 857.065 563.512 943.762" stroke="black" stroke-width="12.2588" stroke-linecap="round"/>
<path d="M421.232 743.888C358.107 772.495 352.789 805.764 354.499 823.27C354.223 833.142 501.534 797.582 513.587 794.124C525.639 790.666 537.959 757.638 529.166 738.666C520.373 719.694 491.142 712.206 421.232 743.888Z" fill="#9A5E2C"/>
<path d="M419.894 726.776C356.768 755.383 351.451 788.652 353.16 806.158C352.885 816.03 500.195 780.47 512.248 777.012C524.301 773.554 536.621 740.526 527.828 721.554C519.034 702.582 489.803 695.094 419.894 726.776Z" fill="black"/>
<mask id="mask9_20_2" style="mask-type:alpha" maskUnits="userSpaceOnUse" x="352" y="705" width="179" height="103">
<path d="M419.894 726.776C356.768 755.383 351.451 788.652 353.16 806.158C352.885 816.03 500.195 780.47 512.248 777.012C524.301 773.554 536.621 740.526 527.828 721.554C519.034 702.582 489.803 695.094 419.894 726.776Z" fill="black"/>
</mask>
<g mask="url(#mask9_20_2)">
<path d="M541.918 748.819L340.828 792.515L334.835 711.753L490.611 654.564L541.918 748.819Z" fill="#272B2B"/>
</g>
<path d="M776.714 714.527C843.291 732.421 853.45 764.412 854.344 781.985C856.072 791.692 705.311 780.752 692.895 779.315C680.479 777.879 663.438 747.276 669.325 727.091C675.213 706.906 702.984 694.71 776.714 714.527Z" fill="#9A5E2C"/>
<path d="M775.546 697.386C842.122 715.28 852.282 747.271 853.176 764.843C854.903 774.55 704.142 763.611 691.727 762.174C679.311 760.737 662.269 730.134 668.157 709.949C674.045 689.764 701.815 677.569 775.546 697.386Z" fill="black"/>
<mask id="mask10_20_2" style="mask-type:alpha" maskUnits="userSpaceOnUse" x="666" y="687" width="188" height="82">
<path d="M775.546 697.386C842.122 715.28 852.282 747.271 853.176 764.843C854.903 774.55 704.142 763.611 691.727 762.174C679.311 760.737 662.269 730.134 668.157 709.949C674.045 689.764 701.815 677.569 775.546 697.386Z" fill="black"/>
</mask>
<g mask="url(#mask10_20_2)">
<path d="M658.389 739.188L863.474 749.334L857.481 668.572L695.168 637.657L658.389 739.188Z" fill="#272B2B"/>
</g>
<path d="M540.115 1179.46C518.782 1133.94 538.31 1120.16 550.74 1118.97C667.422 1144.08 721.5 1137.87 746.08 1140.7C770.66 1143.53 766.819 1161.89 744.27 1192.05C652.045 1279.7 566.782 1236.37 540.115 1179.46Z" fill="black"/>
<mask id="mask11_20_2" style="mask-type:alpha" maskUnits="userSpaceOnUse" x="530" y="1118" width="234" height="125">
<path d="M539.953 1178.24C518.662 1133.75 538.426 1120.16 550.969 1118.93C668.53 1142.98 723.104 1136.65 747.881 1139.31C772.658 1141.97 764.855 1166.12 741.963 1195.76C648.51 1282.05 566.567 1233.86 539.953 1178.24Z" fill="black"/>
</mask>
<g mask="url(#mask11_20_2)">
<path d="M763.375 1155.49C680.786 1188.53 573.959 1157 530.869 1137.1L531.698 1100.21C605.022 1109.09 753.906 1127.76 762.855 1131.41C774.041 1135.96 769.413 1142.99 763.375 1155.49Z" fill="#FBFAFB"/>
<path d="M672.486 1215.18C629.045 1188.05 580.046 1207.5 560.977 1220.61C570.679 1239.96 630.306 1249.65 658.908 1252.07C681.534 1251.08 715.927 1242.32 672.486 1215.18Z" fill="#B35A4E"/>
</g>
<path d="M537.617 1177.97C516.26 1133.08 536.009 1119.41 548.553 1118.18C666.173 1142.59 720.75 1136.28 745.536 1138.99C756.983 1140.24 764.226 1167.51 743.526 1189.72C681.435 1280.92 564.314 1234.09 537.617 1177.97Z" stroke="black" stroke-width="11.7568"/>
</g>
<path d="M278.508 261.756L284.603 252.877L266.961 240.823L260.866 249.702L278.508 261.756ZM249.732 413.815C240.569 392.897 231.369 330.424 278.508 261.756L260.866 249.702C209.407 324.663 218.015 395.024 230.081 422.569L249.732 413.815Z" fill="black"/>
<path d="M1025.28 382.239C905.067 371.238 1000.2 193.48 804.857 198.533C557.369 247.294 558.512 163.171 444.805 190.109C320.04 219.666 242.849 347.315 239.283 418.28C124.186 393.314 22.0213 492.859 72.5111 576.102C106.138 631.542 83.0529 673.778 68.5659 688.114C73.6569 695.589 100.997 716.307 120.575 709.445C111.211 745.99 130.571 753.098 141.726 776.103C151.022 795.274 157.736 804.076 163.214 814.462C185.125 856.005 185.125 856.005 191.285 871.522C212.717 909.462 218.877 924.979 226.126 937.687C215.36 938.577 238.657 956.726 236.287 963.488L257.624 980.639L299.416 1079.37C290.873 1014.01 273.26 876.176 271.154 847.787C337.742 829.483 346.749 738.536 347.077 709.782C346.037 723.41 343.645 663.525 344.807 679.188C421.562 651.92 498.365 641.881 562.661 629.185C565.519 651.11 635.173 710.609 702.465 738.292C678.355 711.966 658.551 693.903 657.825 684.114C687.784 739.504 810.961 757.236 859.703 767.164C856.53 757.576 848.361 730.427 841.07 698.526C851.656 708.486 899.678 725.285 922.365 732.44L938.981 956.37C940.31 952.157 954.176 938.864 959.865 922.635C965.554 906.406 968.982 879.611 968.51 856.668L989.308 854.95L988.31 841.49L987.354 812.021C981.946 805.491 1020.96 770.588 999.172 755.644C1056.08 752.913 1093.17 717.51 1102.52 705.247C1094.14 697.322 1073.22 678.612 1056.62 667.18C1118.52 625.624 1160.31 482.301 1156.56 442.804L1097.84 447.654C1109.65 421.07 1098.1 373.763 1090.85 353.432C1082.48 362.331 1050.3 387.559 1025.28 382.239Z" fill="#232727"/>
<mask id="mask12_20_2" style="mask-type:alpha" maskUnits="userSpaceOnUse" x="5" y="226" width="161" height="124">
<path d="M146.265 253.891C128.735 252.287 142.607 226.366 114.122 227.103C78.0338 234.213 78.3564 223.119 61.7757 227.047C43.5825 231.357 36.0841 242.272 35.5641 252.62C18.7807 248.979 3.8831 263.495 11.2455 275.633C16.1489 283.717 8.27658 291.258 5.80991 291.88C5.85404 292.475 13.1312 293.789 21.0267 291.342C14.288 297.284 14.7514 303.529 14.1772 307.885C17.4343 305.821 23.3082 305.156 25.2378 306.972C29.5995 312.536 19.7026 319.457 17.4629 320.72C21.157 324.544 26.6943 326.6 33.6455 328.359C32.0756 328.489 29.7368 332.931 29.3912 333.917L38.2386 334.622L44.3327 349.02C43.0869 339.488 40.5186 319.39 40.2114 315.25C49.9213 312.581 51.2347 299.319 51.2826 295.126C51.1309 297.113 50.7821 288.381 50.9516 290.665C62.144 286.689 73.3433 285.225 82.719 283.374C83.1357 286.571 93.2925 295.247 103.105 299.283C99.5894 295.445 96.7016 292.811 96.5957 291.383C100.964 299.46 118.926 302.046 126.033 303.494C125.571 302.096 124.379 298.137 123.316 293.485C124.86 294.937 131.862 297.387 135.171 298.43L137.594 331.084C137.787 330.469 139.809 328.531 140.639 326.164C141.469 323.798 141.968 319.891 141.9 316.545L144.932 316.295L144.787 314.332L144.647 310.035C143.859 309.082 149.548 303.993 146.371 301.814C154.67 301.415 160.078 296.253 161.441 294.465C160.219 293.309 157.168 290.581 154.747 288.914C163.775 282.854 165.955 268.482 165.408 262.722L156.845 263.43C158.567 259.553 156.883 252.655 155.825 249.69C154.605 250.988 149.912 254.667 146.265 253.891Z" fill="#272B2B"/>
</mask>
<g mask="url(#mask12_20_2)">
<path d="M317.714 663.502C340.597 641.732 536.255 459.122 558.662 558.098C582.466 663.243 694.218 742.656 694.218 742.656L320.317 666.565L369.101 723.956L307.906 877.982L284.828 1097.8C249.397 1012.91 320.393 701.696 315.169 660.698C315.047 660.491 314.923 660.283 314.799 660.074C313.507 658.398 311.887 655.746 310.001 652.3C268.943 587.845 159.096 459.306 135.466 378.829L250.467 369.33C247.029 411.474 244.904 506.695 263.905 550.433C280.06 587.62 299.299 632.741 310.001 652.3C311.726 655.007 313.329 657.601 314.799 660.074L317.714 663.502Z" fill="black"/>
</g>
<path d="M59.1688 509.498C110.556 405.775 204.426 410.087 244.937 425.208C230.155 358.715 310.498 251.687 373.069 215.74C435.64 179.793 505.556 176.48 587.711 205.398C653.435 228.532 756.681 209.908 800.089 197.705C837.078 193.008 917.457 203.523 943.061 283.157C975.066 382.701 978.822 350.38 980.002 366.288C1033.23 396.531 1062.57 378.361 1078.47 365.576C1084.07 361.079 1091.65 362.751 1093.99 369.49C1104.97 401.144 1100.03 434.037 1095.61 447.845L1144.1 443.84C1151.03 443.268 1157.02 448.569 1156.85 455.519C1154.31 557.096 1078.67 654.285 1055.52 666.046L1094 696.256C1099.88 700.873 1100.23 709.684 1094.62 714.726C1091.52 717.519 1088.3 720.364 1085.57 722.66C978.457 778.784 872.19 705.812 832.989 669.653C837.998 682.162 848.291 720.33 852.952 750.31C854.254 758.679 846.407 765.247 838.289 762.883C735.521 732.964 671.129 691.424 651.107 673.595C657.225 684.17 672.01 709.789 682.198 727.661C587.797 676.362 571.761 649.37 555.264 626.11C500.982 635.518 391.837 659.799 344.751 675.508C356.404 792.737 303.887 838.114 276.172 846.149L268.942 980.943C262.775 976.153 260.093 976.532 244.014 958.319C239.19 952.855 235.056 947.294 228.789 937.475C213.468 913.472 208.377 905.998 176.228 849.087C169.025 836.337 162.44 826.013 149.704 803.673C136.968 781.332 119.158 758.826 116.487 738.719C114.884 726.655 118.372 722.066 120.258 705.413C106.067 701.928 93.9126 697.433 83.1697 692.235C75.6471 688.596 75.0178 678.422 79.8763 671.545C97.0225 647.274 94.0226 614.903 80.0979 588.182C58.5687 546.87 54.0075 539.472 59.1688 509.498Z" stroke="black" stroke-width="21.453"/>
<path d="M991.452 768.494C996.6 769.232 1016.47 779.384 1002.21 801.66C987.934 823.95 977.565 864.412 984.55 882.441C972.31 883.12 959.733 876.655 959.637 874.614C962.734 896.951 959.452 948.902 921.552 978.013" stroke="black" stroke-width="21.453"/>
<rect width="270.347" height="479.866" rx="37.1727" transform="matrix(0.99929 0.0154588 -0.0237539 1.00031 1079.8 1289.46)" fill="#E7F5FD"/>
<rect width="270.347" height="479.866" rx="37.1727" transform="matrix(0.99929 0.0154588 -0.0237539 1.00031 1079.8 1289.46)" stroke="black"/>
<path d="M1324.03 1557.34C1295.68 1530.15 1091.71 1514.38 1091.71 1514.38L1084.59 1758.45L1324.79 1758.67C1324.79 1758.67 1352.37 1584.54 1324.03 1557.34Z" fill="url(#paint0_linear_20_2)"/>
<path d="M1090.82 1323.45C1091.11 1311.31 1101.17 1301.63 1113.29 1301.82L1315.91 1304.95C1328.03 1305.14 1337.63 1315.13 1337.34 1327.26L1327.54 1739.67C1327.26 1751.8 1317.19 1761.49 1305.07 1761.3L1102.46 1758.17C1090.33 1757.98 1080.74 1747.99 1081.03 1735.85L1090.82 1323.45Z" stroke="black" stroke-width="23.6554"/>
<path d="M1104.13 1537.38C1092.26 1548.76 1105.06 1563.05 1304.47 1573.66" stroke="black" stroke-width="16.8967"/>
<path d="M1111.24 1175.85L1109.83 1179.79C1107.38 1186.66 1110.79 1194.19 1117.53 1196.84L1211.63 1233.75C1217.93 1236.22 1221.38 1242.98 1219.71 1249.57L1105.1 1700.85C1103.7 1706.38 1105.9 1712.17 1110.6 1715.33L1114.89 1718.21C1122.61 1723.39 1133.19 1719.33 1135.55 1710.28L1260.95 1230.55C1262.7 1223.88 1259.17 1217.01 1252.76 1214.58L1128.83 1167.65C1121.75 1164.96 1113.8 1168.67 1111.24 1175.85Z" fill="white" stroke="black" stroke-width="13.5174"/>
</g>
<defs>
<filter id="filter0_b_20_2" x="493.425" y="1277.33" width="189.92" height="224.01" filterUnits="userSpaceOnUse" color-interpolation-filters="sRGB">
<feFlood flood-opacity="0" result="BackgroundImageFix"/>
<feGaussianBlur in="BackgroundImageFix" stdDeviation="2"/>
<feComposite in2="SourceAlpha" operator="in" result="effect1_backgroundBlur_20_2"/>
<feBlend mode="normal" in="SourceGraphic" in2="effect1_backgroundBlur_20_2" result="shape"/>
</filter>
<filter id="filter1_b_20_2" x="474.137" y="2138.96" width="143.705" height="116.919" filterUnits="userSpaceOnUse" color-interpolation-filters="sRGB">
<feFlood flood-opacity="0" result="BackgroundImageFix"/>
<feGaussianBlur in="BackgroundImageFix" stdDeviation="2"/>
<feComposite in2="SourceAlpha" operator="in" result="effect1_backgroundBlur_20_2"/>
<feBlend mode="normal" in="SourceGraphic" in2="effect1_backgroundBlur_20_2" result="shape"/>
</filter>
<filter id="filter2_b_20_2" x="189.703" y="925.682" width="155.807" height="265.064" filterUnits="userSpaceOnUse" color-interpolation-filters="sRGB">
<feFlood flood-opacity="0" result="BackgroundImageFix"/>
<feGaussianBlur in="BackgroundImageFix" stdDeviation="2"/>
<feComposite in2="SourceAlpha" operator="in" result="effect1_backgroundBlur_20_2"/>
<feBlend mode="normal" in="SourceGraphic" in2="effect1_backgroundBlur_20_2" result="shape"/>
</filter>
<filter id="filter3_b_20_2" x="904.1" y="867.002" width="132.372" height="276.947" filterUnits="userSpaceOnUse" color-interpolation-filters="sRGB">
<feFlood flood-opacity="0" result="BackgroundImageFix"/>
<feGaussianBlur in="BackgroundImageFix" stdDeviation="2"/>
<feComposite in2="SourceAlpha" operator="in" result="effect1_backgroundBlur_20_2"/>
<feBlend mode="normal" in="SourceGraphic" in2="effect1_backgroundBlur_20_2" result="shape"/>
</filter>
<filter id="filter4_b_20_2" x="239.496" y="441.084" width="712.221" height="912.99" filterUnits="userSpaceOnUse" color-interpolation-filters="sRGB">
<feFlood flood-opacity="0" result="BackgroundImageFix"/>
<feGaussianBlur in="BackgroundImageFix" stdDeviation="2"/>
<feComposite in2="SourceAlpha" operator="in" result="effect1_backgroundBlur_20_2"/>
<feBlend mode="normal" in="SourceGraphic" in2="effect1_backgroundBlur_20_2" result="shape"/>
</filter>
<linearGradient id="paint0_linear_20_2" x1="1192.93" y1="1508.77" x2="1207.15" y2="1765.2" gradientUnits="userSpaceOnUse">
<stop stop-color="#CC4DBF"/>
<stop offset="1" stop-color="#FFB97D" stop-opacity="0.38"/>
</linearGradient>
<clipPath id="clip0_20_2">
<rect width="1457.55" height="3184.12" fill="white" transform="matrix(-0.998467 0.055357 0.0470107 0.998894 1455.31 -0.00012207)"/>
</clipPath>
<clipPath id="clip1_20_2">
<rect width="582.907" height="499.273" fill="white" transform="matrix(0.998467 -0.055357 0.0470107 0.998894 789.496 1427.44)"/>
</clipPath>
<clipPath id="clip2_20_2">
<rect width="501.503" height="552.321" fill="white" transform="matrix(0.996831 -0.0823373 0.0739824 0.997033 346.8 717.181)"/>
</clipPath>
</defs>
</svg>
